<svg id="Layer_1" data-name="Layer 1" xmlns="http://www.w3.org/2000/svg" viewBox="0 0 1440 246"><defs><style>.cls-1{fill:#673ab7;}.cls-2{fill:#fff;isolation:isolate;opacity:0.1;}</style></defs><path class="cls-1" d="M1262.96,3.38062c-123.83545,15.00274-242.82336,87.52923-393.17523,135.5606C772.77039,169.93341,662.69928,190.72833,529.837,179.287,406.08557,168.63062,280.92871,138.54315,171.90149,104.644,107.84509,84.72742,49.36017,63.497,0,44.11554V246H1440V19.79736C1383.90454,4.43591,1322.97729-3.89087,1262.96,3.38062Z"/><path class="cls-2" d="M1262.96,3.38062c-123.83545,15.00274-242.82336,87.52923-393.17523,135.5606-97.50317,49.8747-206.877,85.676-334.94074,74.64777C409.06677,202.75781,281.98657,157.39758,171.90149,104.644,107.84509,84.72742,49.36017,63.497,0,44.11554v68.38763C133.67023,160.568,331.19232,220.25153,524.873,236.93c212.492,18.298,366.046-38.345,501.18707-88.197C1106.37,119.107,1180.18005,91.8797,1256,84.20551c62.3938-6.31611,125.91406,2.65106,184,18.11511V19.79736C1383.90454,4.43591,1322.97729-3.89087,1262.96,3.38062Z"/></svg>