<svg width="26" height="26" viewBox="0 0 26 26" fill="none" xmlns="http://www.w3.org/2000/svg">
<path d="M20.118 1.17437C19.742 0.79699 19.2321 0.584974 18.7004 0.584961C18.1687 0.584948 17.6588 0.796939 17.2828 1.1743C16.9069 1.55166 16.6956 2.06347 16.6956 2.59715C16.6956 3.13083 16.9068 3.64266 17.2828 4.02004L22.3173 9.0737C22.5033 9.26113 22.7244 9.40989 22.9677 9.51148C23.2111 9.61307 23.472 9.6655 23.7356 9.66576C23.9992 9.66601 24.2602 9.6141 24.5038 9.51298C24.7473 9.41187 24.9686 9.26353 25.155 9.07647C25.3414 8.88941 25.4892 8.6673 25.59 8.42284C25.6907 8.17838 25.7425 7.91637 25.7422 7.65182C25.742 7.38726 25.6898 7.12535 25.5886 6.88106C25.4874 6.63678 25.3392 6.41492 25.1525 6.22819L20.118 1.17437Z" fill="white"/>
<path d="M5.25534 2.48011C5.06934 2.29261 4.84832 2.14377 4.60494 2.04211C4.36156 1.94046 4.10059 1.88798 3.83697 1.8877C3.57336 1.88741 3.31228 1.93932 3.06868 2.04044C2.82507 2.14157 2.60373 2.28993 2.41733 2.47703C2.23093 2.66413 2.08312 2.88629 1.98237 3.13081C1.88163 3.37532 1.82991 3.63738 1.8302 3.90197C1.83049 4.16657 1.88277 4.42852 1.98404 4.67281C2.08532 4.9171 2.23361 5.13895 2.42042 5.32564L20.5153 23.4881C20.8912 23.8655 21.4011 24.0775 21.9328 24.0775C22.4645 24.0775 22.9744 23.8655 23.3504 23.4882C23.7264 23.1108 23.9376 22.599 23.9376 22.0653C23.9376 21.5317 23.7264 21.0198 23.3505 20.6425L5.25534 2.48011Z" fill="white"/>
<path d="M11.453 0.590688C11.2669 0.403551 11.0459 0.255061 10.8026 0.153707C10.5593 0.0523527 10.2985 0.000121888 10.0351 2.13077e-07C9.77164 -0.000121461 9.51078 0.0518684 9.26739 0.152998C9.024 0.254127 8.80285 0.402413 8.61659 0.589378C8.43033 0.776344 8.28261 0.998323 8.18187 1.24263C8.08113 1.48693 8.02935 1.74877 8.02948 2.01317C8.02961 2.27757 8.08166 2.53935 8.18265 2.78355C8.28364 3.02775 8.43159 3.24958 8.61804 3.43636L22.5753 17.4456C22.7613 17.633 22.9823 17.7818 23.2257 17.8833C23.4691 17.9849 23.73 18.0373 23.9936 18.0375C24.2571 18.0378 24.5182 17.9858 24.7617 17.8847C25.0052 17.7836 25.2265 17.6352 25.4129 17.4482C25.5993 17.2611 25.747 17.039 25.8478 16.7945C25.9485 16.55 26.0002 16.288 26 16.0235C25.9998 15.759 25.9475 15.4971 25.8463 15.2528C25.7451 15.0085 25.5969 14.7867 25.4102 14.6L11.453 0.590688Z" fill="white"/>
<path d="M3.42003 8.75212C3.04387 8.37576 2.53428 8.16462 2.00316 8.16504C1.47203 8.16546 0.96278 8.37742 0.58721 8.75438C0.21164 9.13133 0.000447252 9.64248 7.09554e-07 10.1756C-0.000445833 10.7087 0.20989 11.2202 0.584828 11.5978L14.3472 25.4113C14.7231 25.7887 15.2331 26.0007 15.7647 26.0007C16.028 26.0007 16.2887 25.9487 16.5319 25.8475C16.7752 25.7464 16.9962 25.5982 17.1823 25.4114C17.3685 25.2245 17.5162 25.0027 17.6169 24.7586C17.7177 24.5144 17.7695 24.2528 17.7695 23.9885C17.7695 23.7243 17.7177 23.4626 17.617 23.2185C17.5162 22.9743 17.3686 22.7525 17.1824 22.5656L3.42003 8.75212Z" fill="white"/>
<path d="M3.95389 17.399C3.57793 17.0216 3.06802 16.8096 2.53633 16.8096C2.00464 16.8096 1.49471 17.0215 1.11874 17.3989C0.742766 17.7763 0.531538 18.2881 0.531525 18.8218C0.531511 19.3554 0.742712 19.8673 1.11867 20.2446L6.15324 25.2983C6.33939 25.4852 6.56038 25.6334 6.80359 25.7345C7.04681 25.8357 7.30749 25.8877 7.57075 25.8877C7.83401 25.8878 8.0947 25.8357 8.33792 25.7346C8.58115 25.6335 8.80215 25.4853 8.98832 25.2985C9.17448 25.1116 9.32215 24.8898 9.42291 24.6457C9.52367 24.4015 9.57554 24.1399 9.57555 23.8756C9.57556 23.6114 9.52372 23.3497 9.42299 23.1056C9.32225 22.8615 9.1746 22.6396 8.98845 22.4528L3.95389 17.399Z" fill="white"/>
</svg>
