<?xml version="1.0" encoding="utf-8"?>
<!-- Generator: Adobe Illustrator 23.0.1, SVG Export Plug-In . SVG Version: 6.00 Build 0)  -->
<svg version="1.1" id="Layer_1" xmlns="http://www.w3.org/2000/svg" xmlns:xlink="http://www.w3.org/1999/xlink" x="0px" y="0px"
	 viewBox="0 0 254.4 254.4" style="enable-background:new 0 0 254.4 254.4;" xml:space="preserve">
<style type="text/css">
	.st0{fill:#E01E5A;}
	.st1{fill:#36C5F0;}
	.st2{fill:#2EB67D;}
	.st3{fill:#ECB22E;}
</style>
<g>
	<g>
		<g>
			<path class="st0" d="M89.2,142c0,7.3-5.9,13.2-13.2,13.2s-13.2-5.9-13.2-13.2s5.9-13.2,13.2-13.2h13.2V142z"/>
			<path class="st0" d="M95.8,142c0-7.3,5.9-13.2,13.2-13.2s13.2,5.9,13.2,13.2V175c0,7.3-5.9,13.2-13.2,13.2s-13.2-5.9-13.2-13.2
				V142z"/>
		</g>
		<g>
			<path class="st1" d="M109,89c-7.3,0-13.2-5.9-13.2-13.2c0-7.3,5.9-13.2,13.2-13.2s13.2,5.9,13.2,13.2V89H109z"/>
			<path class="st1" d="M109,95.7c7.3,0,13.2,5.9,13.2,13.2c0,7.3-5.9,13.2-13.2,13.2H75.9c-7.3,0-13.2-5.9-13.2-13.2
				c0-7.3,5.9-13.2,13.2-13.2H109z"/>
		</g>
		<g>
			<path class="st2" d="M161.9,108.9c0-7.3,5.9-13.2,13.2-13.2s13.2,5.9,13.2,13.2c0,7.3-5.9,13.2-13.2,13.2h-13.2V108.9z"/>
			<path class="st2" d="M155.3,108.9c0,7.3-5.9,13.2-13.2,13.2s-13.2-5.9-13.2-13.2V75.8c0-7.3,5.9-13.2,13.2-13.2
				s13.2,5.9,13.2,13.2V108.9z"/>
		</g>
		<g>
			<path class="st3" d="M142.1,161.8c7.3,0,13.2,5.9,13.2,13.2c0,7.3-5.9,13.2-13.2,13.2s-13.2-5.9-13.2-13.2v-13.2H142.1z"/>
			<path class="st3" d="M142.1,155.2c-7.3,0-13.2-5.9-13.2-13.2s5.9-13.2,13.2-13.2h33.1c7.3,0,13.2,5.9,13.2,13.2
				s-5.9,13.2-13.2,13.2H142.1z"/>
		</g>
	</g>
</g>
</svg>
