<svg version="1.1" id="Layer_1" xmlns="http://www.w3.org/2000/svg" x="0" y="0" width="820" height="655.739" xml:space="preserve"><style>.st1{fill:#333}.st2{fill:none;stroke:#333;stroke-width:2;stroke-linecap:round;stroke-linejoin:round;stroke-miterlimit:10}</style><linearGradient id="SVGID_1_" gradientUnits="userSpaceOnUse" x1="89.776" y1="330.547" x2="734.09" y2="330.547"><stop offset="0" stop-color="#17c9c0"/><stop offset=".168" stop-color="#00a9d7"/><stop offset=".564" stop-color="#1cd0bb"/><stop offset="1" stop-color="#0fbec8"/></linearGradient><path d="M734.056 335.041c.022-1.5.034-3.001.034-4.492 0-43.447-8.531-85.65-25.357-125.439-14.915-35.256-35.779-67.246-62.006-95.137l.015-.028-1.494-1.561a.578.578 0 0 0-.024-.025l-2.852-2.993-.015.029a282.12 282.12 0 0 0-2.623-2.647c-29.54-29.548-63.98-52.764-102.365-69.003C500.558 18.179 461.61 9.72 421.574 8.553l-.007-.022-2.154-.052-.03-.001-4.143-.094.007.024c-1.107-.012-2.216-.02-3.318-.02-43.441 0-85.641 8.531-125.429 25.357-35.345 14.953-67.393 35.875-95.309 62.174l-.019-.01-1.549 1.473-.015.014-3.017 2.881.024.013c-.833.816-1.661 1.636-2.476 2.455-29.547 29.538-52.763 63.978-69.002 102.363-15.459 36.557-23.914 75.219-25.176 114.943l-.025.008-.055 2.151v.008l-.105 4.172.028-.009c-.016 1.35-.024 2.731-.024 4.166 0 43.44 8.531 85.641 25.356 125.429 14.752 34.875 35.342 66.564 61.189 94.241l-.008.016 1.437 1.528.035.038 2.881 3.043.008-.016a328.904 328.904 0 0 0 3.449 3.523c29.564 29.554 64.007 52.766 102.372 68.99 36.146 15.291 74.406 23.731 113.751 25.13l.008.026 2.141.061h.002l4.195.121-.007-.024c1.892.035 3.67.054 5.338.054 43.433 0 85.636-8.535 125.439-25.368 34.777-14.714 66.408-35.246 94.068-61.02l.024.013 1.551-1.467.007-.006 3.051-2.881-.022-.011a253.257 253.257 0 0 0 3.683-3.619c29.557-29.558 52.772-64.001 69.001-102.372 15.406-36.425 23.854-74.972 25.155-114.603l.021-.007.061-2.146v-.024l.109-4.164-.019.009zm-90.281-219.464c25.078 27.017 45.062 57.904 59.432 91.871 16.511 39.044 24.883 80.462 24.883 123.102 0 2.111-.022 4.243-.066 6.362l-106.63 33.063-95.509-32.541a114.092 114.092 0 0 0-25.019-78.396l90.893-44.688 52.016-98.773zM481.741 413.09c-19.512 16.521-44.305 25.619-69.812 25.619-2.833 0-5.77-.121-8.728-.36l-.02-.002c-28.419-2.281-54.397-15.505-73.151-37.239a108.049 108.049 0 0 1-26.251-70.56c0-2.409.085-4.877.253-7.336l.001-.021c1.927-28.613 14.923-54.857 36.595-73.9l.014-.013c19.736-17.34 45.051-26.891 71.285-26.891 2.416 0 4.888.085 7.347.253l.014.001c28.99 1.958 55.469 15.221 74.559 37.346l.018.021a108.096 108.096 0 0 1 25.873 79.278l-.001.007c-2.316 28.799-15.811 55.007-37.996 73.797zm53.29-373.819c37.67 15.936 71.469 38.72 100.464 67.724a294.941 294.941 0 0 1 3.921 3.982l-52.056 98.85-90.505 44.496c-19.15-21.335-44.974-34.479-73.297-37.342l32.796-96.249-32.905-106.133c38.57 1.369 76.088 9.663 111.582 24.672zm-246.193.001c40.621-17.178 83.82-25.59 128.277-24.839l32.931 106.211-32.669 95.877a113.476 113.476 0 0 0-5.447-.133c-26.397 0-51.915 9.16-72.286 25.87l-45.222-91.98-97.627-51.408c27.043-25.151 57.988-45.19 92.043-59.598zM96.012 318.176c1.462-38.258 9.749-75.488 24.651-110.729 15.937-37.67 38.72-71.469 67.724-100.463a269.98 269.98 0 0 1 3.808-3.754l97.703 51.448 45.056 91.643c-20.884 19.086-33.76 44.665-36.582 72.609l-97.569-33.246-104.791 32.492zm83.27 226.43c-24.702-26.798-44.413-57.382-58.619-90.967-16.511-39.044-24.883-80.457-24.883-123.091 0-2.106.017-4.099.052-6.035l104.883-32.521 97.197 33.119a113.147 113.147 0 0 0-.132 5.437c0 26.034 8.934 51.275 25.233 71.511l-92.653 45.558-51.078 96.989zm109.556 77.209c-37.65-15.923-71.453-38.703-100.462-67.703a318.079 318.079 0 0 1-4.75-4.877l51.134-97.095 92.265-45.367c18.806 20.943 44.126 34.033 71.873 37.186l-33.142 97.275 32.617 105.176c-37.877-1.593-74.706-9.86-109.535-24.595zm246.193 0c-39.059 16.518-80.477 24.894-123.102 24.894-2.204 0-4.579-.03-7.211-.093l-32.654-105.294 32.99-96.827c2.327.142 4.63.214 6.875.214 25.649 0 50.613-8.715 70.725-24.615l45.034 91.594 98.134 51.677c-26.778 24.629-57.302 44.281-90.791 58.45zm192.802-278.563c-1.499 38.164-9.777 75.28-24.626 110.388-15.927 37.657-38.711 71.459-67.723 100.473a277.58 277.58 0 0 1-5.03 4.909l-98.242-51.732-44.818-91.156c21.394-18.86 34.754-44.417 37.955-72.543l95.956 32.693 106.528-33.032z" fill="url(#SVGID_1_)"/><path class="st1" d="M329.357 158.268h2.593c2.186 0 3.695 1.5 3.695 3.457v.021c0 1.957-1.51 3.477-3.695 3.477h-2.593v-6.955zm1.223 1.113v4.729h1.37c1.461 0 2.414-.983 2.414-2.345v-.02c0-1.361-.953-2.364-2.414-2.364h-1.37zM339.716 158.218h1.133l3.06 7.003h-1.292l-.705-1.679h-3.288l-.715 1.679h-1.252l3.059-7.003zm1.748 4.242l-1.201-2.781-1.192 2.781h2.393zM346.529 159.4h-2.205v-1.132h5.642v1.132h-2.205v5.821h-1.231V159.4zM353.441 158.218h1.133l3.06 7.003h-1.292l-.705-1.679h-3.288l-.715 1.679h-1.252l3.059-7.003zm1.748 4.242l-1.201-2.781-1.192 2.781h2.393zM331.821 170.137h1.133l3.06 7.003h-1.292l-.705-1.679h-3.288l-.715 1.679h-1.252l3.059-7.003zm1.748 4.241l-1.201-2.781-1.192 2.781h2.393zM337.818 170.186h3.1c.874 0 1.56.258 2.007.695.367.377.576.894.576 1.5v.02c0 1.143-.686 1.828-1.649 2.105l1.878 2.633h-1.45l-1.709-2.424h-1.529v2.424h-1.223v-6.953zm3.011 3.447c.874 0 1.43-.457 1.43-1.162v-.02c0-.745-.536-1.152-1.44-1.152h-1.777v2.334h1.787zM345.306 173.682v-.02c0-1.977 1.48-3.596 3.586-3.596 1.281 0 2.057.446 2.722 1.082l-.784.904c-.557-.517-1.152-.864-1.947-.864-1.321 0-2.295 1.093-2.295 2.453v.021c0 1.36.964 2.463 2.295 2.463.854 0 1.4-.337 1.997-.894l.784.795c-.725.755-1.52 1.231-2.821 1.231-2.027.002-3.537-1.577-3.537-3.575zM353.559 170.186h1.223v2.891h3.317v-2.891h1.222v6.953h-1.222v-2.931h-3.317v2.931h-1.223v-6.953zM361.792 170.186h1.222v6.953h-1.222v-6.953zM367.196 171.318h-2.205v-1.132h5.643v1.132h-2.206v5.821h-1.231v-5.821zM372.538 170.186h5.156v1.093h-3.934v1.808h3.486v1.093h-3.486v1.867h3.983v1.093h-5.206v-6.954zM379.5 173.682v-.02c0-1.977 1.48-3.596 3.586-3.596 1.281 0 2.057.446 2.722 1.082l-.784.904c-.557-.517-1.152-.864-1.947-.864-1.321 0-2.295 1.093-2.295 2.453v.021c0 1.36.964 2.463 2.295 2.463.854 0 1.4-.337 1.997-.894l.784.795c-.725.755-1.52 1.231-2.821 1.231-2.028.002-3.537-1.577-3.537-3.575zM389.461 171.318h-2.205v-1.132h5.643v1.132h-2.206v5.821h-1.231v-5.821zM394.695 174.189v-4.003h1.222v3.953c0 1.291.665 1.977 1.758 1.977 1.083 0 1.748-.646 1.748-1.927v-4.003h1.223v3.943c0 2.076-1.173 3.119-2.99 3.119-1.809.001-2.961-1.042-2.961-3.059zM402.937 170.186h3.1c.874 0 1.56.258 2.007.695.367.377.576.894.576 1.5v.02c0 1.143-.686 1.828-1.649 2.105l1.878 2.633h-1.45l-1.709-2.424h-1.529v2.424h-1.223v-6.953zm3.011 3.447c.874 0 1.43-.457 1.43-1.162v-.02c0-.745-.536-1.152-1.44-1.152h-1.777v2.334h1.787zM410.732 170.186h5.156v1.093h-3.934v1.808h3.486v1.093h-3.486v1.867h3.983v1.093h-5.206v-6.954z"/><g><path class="st1" d="M550.186 289.975h1.302l2.116 3.288 2.115-3.288h1.302v6.953h-1.222v-4.986l-2.195 3.277h-.04l-2.176-3.258v4.967h-1.202v-6.953zM561.886 289.926h1.133l3.06 7.003h-1.292l-.705-1.679h-3.288l-.715 1.679h-1.252l3.059-7.003zm1.748 4.241l-1.201-2.781-1.192 2.781h2.393zM567.297 295.915l.735-.874c.666.576 1.341.904 2.195.904.755 0 1.231-.357 1.231-.874v-.02c0-.497-.277-.766-1.569-1.063-1.479-.357-2.314-.795-2.314-2.076v-.02c0-1.192.993-2.017 2.374-2.017 1.014 0 1.818.308 2.523.874l-.655.924c-.626-.467-1.252-.715-1.888-.715-.715 0-1.133.367-1.133.824v.02c0 .537.318.775 1.659 1.093 1.47.357 2.226.885 2.226 2.036v.021c0 1.301-1.023 2.076-2.483 2.076a4.286 4.286 0 0 1-2.901-1.113zM576.296 291.107h-2.205v-1.132h5.643v1.132h-2.206v5.821h-1.231v-5.821zM581.638 289.975h5.156v1.093h-3.934v1.808h3.486v1.093h-3.486v1.867h3.983v1.093h-5.206v-6.954zM588.907 289.975h3.1c.874 0 1.56.258 2.007.695.367.377.576.894.576 1.5v.02c0 1.143-.686 1.828-1.649 2.105l1.878 2.633h-1.45l-1.709-2.424h-1.529v2.424h-1.223v-6.953zm3.011 3.447c.874 0 1.43-.457 1.43-1.162v-.02c0-.745-.536-1.152-1.44-1.152h-1.777v2.334h1.787zM600.298 289.975h2.593c2.186 0 3.695 1.5 3.695 3.456v.021c0 1.957-1.51 3.477-3.695 3.477h-2.593v-6.954zm1.223 1.113v4.729h1.37c1.461 0 2.414-.983 2.414-2.345v-.02c0-1.361-.953-2.364-2.414-2.364h-1.37zM610.657 289.926h1.133l3.06 7.003h-1.292l-.705-1.679h-3.288l-.715 1.679h-1.252l3.059-7.003zm1.748 4.241l-1.201-2.781-1.192 2.781h2.393zM617.471 291.107h-2.205v-1.132h5.642v1.132h-2.205v5.821h-1.231v-5.821zM624.383 289.926h1.133l3.06 7.003h-1.292l-.705-1.679h-3.288l-.715 1.679h-1.252l3.059-7.003zm1.748 4.241l-1.201-2.781-1.192 2.781h2.393zM629.824 297.862c.605-.119.894-.427.854-.934h-.517v-1.371h1.321v1.162c0 1.103-.527 1.57-1.53 1.659l-.128-.516zM550.186 301.893h3.1c.874 0 1.56.258 2.007.695.367.377.576.894.576 1.5v.02c0 1.143-.686 1.828-1.649 2.105l1.878 2.633h-1.45l-1.709-2.424h-1.529v2.424h-1.223v-6.953zm3.01 3.447c.874 0 1.43-.457 1.43-1.162v-.02c0-.745-.536-1.152-1.44-1.152h-1.777v2.334h1.787zM557.981 301.893h5.156v1.093h-3.934v1.808h3.486v1.093h-3.486v1.867h3.983v1.093h-5.206v-6.954zM565.251 301.893h5.176v1.112h-3.953v1.897h3.506v1.112h-3.506v2.831h-1.223v-6.952zM572.382 301.893h5.156v1.093h-3.934v1.808h3.486v1.093h-3.486v1.867h3.983v1.093h-5.206v-6.954zM579.651 301.893h3.1c.874 0 1.56.258 2.007.695.367.377.576.894.576 1.5v.02c0 1.143-.686 1.828-1.649 2.105l1.878 2.633h-1.45l-1.709-2.424h-1.529v2.424h-1.223v-6.953zm3.011 3.447c.874 0 1.43-.457 1.43-1.162v-.02c0-.745-.536-1.152-1.44-1.152h-1.777v2.334h1.787zM587.447 301.893h5.156v1.093h-3.934v1.808h3.486v1.093h-3.486v1.867h3.983v1.093h-5.206v-6.954zM594.717 301.893h1.133l3.726 4.808v-4.808h1.201v6.953h-1.022l-3.835-4.947v4.947h-1.202v-6.953zM602.871 305.39v-.02c0-1.977 1.48-3.596 3.586-3.596 1.281 0 2.057.446 2.722 1.082l-.784.904c-.557-.517-1.152-.864-1.947-.864-1.321 0-2.295 1.093-2.295 2.453v.021c0 1.36.964 2.463 2.295 2.463.854 0 1.4-.337 1.997-.894l.784.795c-.725.755-1.52 1.231-2.821 1.231-2.027.001-3.537-1.578-3.537-3.575zM611.123 301.893h5.156v1.093h-3.934v1.808h3.486v1.093h-3.486v1.867h3.983v1.093h-5.206v-6.954zM621.988 301.893h2.593c2.186 0 3.695 1.5 3.695 3.456v.021c0 1.957-1.51 3.477-3.695 3.477h-2.593v-6.954zm1.223 1.113v4.729h1.37c1.461 0 2.414-.983 2.414-2.345v-.02c0-1.361-.953-2.364-2.414-2.364h-1.37zM632.347 301.844h1.133l3.06 7.003h-1.292l-.705-1.679h-3.288l-.715 1.679h-1.252l3.059-7.003zm1.748 4.241l-1.201-2.781-1.192 2.781h2.393zM639.16 303.025h-2.205v-1.132h5.642v1.132h-2.205v5.821h-1.231v-5.821zM646.072 301.844h1.133l3.06 7.003h-1.292l-.705-1.679h-3.288l-.715 1.679h-1.252l3.059-7.003zm1.748 4.241l-1.201-2.781-1.192 2.781h2.393zM651.514 309.78c.605-.119.894-.427.854-.934h-.517v-1.371h1.321v1.162c0 1.103-.527 1.57-1.53 1.659l-.128-.516zM661.416 301.844h1.133l3.06 7.003h-1.292l-.705-1.679h-3.288l-.715 1.679h-1.252l3.059-7.003zm1.748 4.241l-1.201-2.781-1.192 2.781h2.393zM667.413 301.893h1.133l3.726 4.808v-4.808h1.201v6.953h-1.022l-3.835-4.947v4.947h-1.202v-6.953zM675.874 301.893h2.593c2.186 0 3.695 1.5 3.695 3.456v.021c0 1.957-1.51 3.477-3.695 3.477h-2.593v-6.954zm1.223 1.113v4.729h1.37c1.461 0 2.414-.983 2.414-2.345v-.02c0-1.361-.953-2.364-2.414-2.364h-1.37zM550.186 313.81h1.302l2.116 3.288 2.115-3.288h1.302v6.953h-1.222v-4.986l-2.195 3.277h-.04l-2.176-3.258v4.967h-1.202v-6.953zM559.422 313.81h5.156v1.093h-3.934v1.808h3.486v1.093h-3.486v1.867h3.983v1.093h-5.206v-6.954zM568.4 314.942h-2.205v-1.132h5.642v1.132h-2.205v5.821H568.4v-5.821zM575.312 313.761h1.133l3.06 7.003h-1.292l-.705-1.679h-3.288l-.715 1.679h-1.252l3.059-7.003zm1.749 4.241l-1.201-2.781-1.192 2.781h2.393zM581.31 313.81h2.593c2.186 0 3.695 1.5 3.695 3.457v.02c0 1.957-1.51 3.477-3.695 3.477h-2.593v-6.954zm1.222 1.113v4.729h1.37c1.461 0 2.414-.983 2.414-2.345v-.02c0-1.361-.953-2.364-2.414-2.364h-1.37zM591.669 313.761h1.133l3.06 7.003h-1.292l-.705-1.679h-3.288l-.715 1.679h-1.252l3.059-7.003zm1.748 4.241l-1.201-2.781-1.192 2.781h2.393zM598.481 314.942h-2.205v-1.132h5.643v1.132h-2.206v5.821h-1.231v-5.821zM605.395 313.761h1.133l3.06 7.003h-1.292l-.705-1.679h-3.288l-.715 1.679h-1.252l3.059-7.003zm1.748 4.241l-1.201-2.781-1.192 2.781h2.393zM614.986 313.81h1.302l2.116 3.288 2.115-3.288h1.302v6.953H620.6v-4.986l-2.195 3.277h-.04l-2.176-3.258v4.967h-1.202v-6.953zM626.687 313.761h1.133l3.06 7.003h-1.292l-.705-1.679h-3.288l-.715 1.679h-1.252l3.059-7.003zm1.748 4.241l-1.201-2.781-1.192 2.781h2.393zM632.684 313.81h1.133l3.726 4.808v-4.808h1.201v6.953h-1.022l-3.835-4.947v4.947h-1.202v-6.953zM643.609 313.761h1.133l3.06 7.003h-1.292l-.705-1.679h-3.288l-.715 1.679h-1.252l3.059-7.003zm1.748 4.241l-1.201-2.781-1.192 2.781h2.393zM648.862 317.307v-.02c0-1.947 1.49-3.596 3.586-3.596 1.212 0 1.957.337 2.672.943l-.774.924c-.536-.457-1.062-.745-1.947-.745-1.281 0-2.255 1.122-2.255 2.454v.02c0 1.431.944 2.483 2.364 2.483.656 0 1.252-.209 1.679-.526v-1.302h-1.777v-1.062h2.96v2.92a4.435 4.435 0 0 1-2.9 1.083c-2.177 0-3.608-1.55-3.608-3.576zM657.571 313.81h5.156v1.093h-3.934v1.808h3.486v1.093h-3.486v1.867h3.983v1.093h-5.206v-6.954zM664.842 313.81h1.302l2.116 3.288 2.115-3.288h1.302v6.953h-1.222v-4.986l-2.195 3.277h-.04l-2.176-3.258v4.967h-1.202v-6.953zM674.077 313.81h5.156v1.093H675.3v1.808h3.486v1.093H675.3v1.867h3.983v1.093h-5.206v-6.954zM681.347 313.81h1.133l3.726 4.808v-4.808h1.201v6.953h-1.022l-3.835-4.947v4.947h-1.202v-6.953zM691.518 314.942h-2.205v-1.132h5.642v1.132h-2.205v5.821h-1.231v-5.821z"/></g><g><path class="st1" d="M529.552 411.145h2.593c2.186 0 3.695 1.5 3.695 3.456v.021c0 1.957-1.51 3.477-3.695 3.477h-2.593v-6.954zm1.222 1.113v4.729h1.37c1.461 0 2.414-.983 2.414-2.345v-.02c0-1.361-.953-2.364-2.414-2.364h-1.37zM539.911 411.096h1.133l3.06 7.003h-1.292l-.705-1.679h-3.288l-.715 1.679h-1.252l3.059-7.003zm1.748 4.241l-1.201-2.781-1.192 2.781h2.393zM546.724 412.277h-2.205v-1.132h5.642v1.132h-2.205v5.821h-1.231v-5.821zM553.636 411.096h1.133l3.06 7.003h-1.292l-.705-1.679h-3.288l-.715 1.679h-1.252l3.059-7.003zm1.748 4.241l-1.201-2.781-1.192 2.781h2.393zM563.229 411.145h2.742c1.629 0 2.643.924 2.643 2.324v.02c0 1.56-1.252 2.374-2.781 2.374h-1.381v2.235h-1.223v-6.953zm2.642 3.616c.924 0 1.5-.517 1.5-1.241v-.021c0-.814-.586-1.241-1.5-1.241h-1.42v2.503h1.42zM570.479 411.145h3.1c.874 0 1.56.258 2.007.695.367.377.576.894.576 1.5v.02c0 1.143-.686 1.828-1.649 2.105l1.878 2.633h-1.45l-1.709-2.424h-1.529v2.424h-1.223v-6.953zm3.01 3.447c.874 0 1.43-.457 1.43-1.162v-.02c0-.745-.536-1.152-1.44-1.152h-1.777v2.334h1.787zM578.274 411.145h5.156v1.093h-3.934v1.808h3.486v1.093h-3.486v1.867h3.983v1.093h-5.206v-6.954zM585.544 411.145h2.742c1.629 0 2.643.924 2.643 2.324v.02c0 1.56-1.252 2.374-2.782 2.374h-1.38v2.235h-1.223v-6.953zm2.643 3.616c.924 0 1.5-.517 1.5-1.241v-.021c0-.814-.586-1.241-1.5-1.241h-1.42v2.503h1.42zM594.562 411.096h1.133l3.06 7.003h-1.292l-.705-1.679h-3.288l-.715 1.679h-1.252l3.059-7.003zm1.749 4.241l-1.201-2.781-1.192 2.781h2.393zM600.56 411.145h3.1c.874 0 1.56.258 2.007.695.367.377.576.894.576 1.5v.02c0 1.143-.686 1.828-1.649 2.105l1.878 2.633h-1.45l-1.709-2.424h-1.529v2.424h-1.223v-6.953zm3.01 3.447c.874 0 1.43-.457 1.43-1.162v-.02c0-.745-.536-1.152-1.44-1.152h-1.777v2.334h1.787zM610.819 411.096h1.133l3.06 7.003h-1.292l-.705-1.679h-3.288l-.715 1.679h-1.252l3.059-7.003zm1.748 4.241l-1.201-2.781-1.192 2.781h2.393zM617.633 412.277h-2.205v-1.132h5.643v1.132h-2.206v5.821h-1.231v-5.821zM623.045 411.145h1.222v6.953h-1.222v-6.953zM626.431 414.641v-.02c0-1.957 1.51-3.596 3.646-3.596s3.626 1.619 3.626 3.575v.021c0 1.957-1.51 3.596-3.646 3.596s-3.626-1.618-3.626-3.576zm5.99 0v-.02c0-1.352-.983-2.474-2.364-2.474s-2.345 1.103-2.345 2.453v.021c0 1.351.983 2.463 2.364 2.463s2.345-1.091 2.345-2.443zM635.796 411.145h1.133l3.726 4.808v-4.808h1.201v6.953h-1.022l-3.835-4.947v4.947h-1.202v-6.953zM532.016 423.014h1.133l3.06 7.003h-1.292l-.705-1.679h-3.288l-.715 1.679h-1.252l3.059-7.003zm1.748 4.241l-1.201-2.781-1.192 2.781h2.393zM538.013 423.063h1.133l3.726 4.808v-4.808h1.201v6.953h-1.022l-3.835-4.947v4.947h-1.202v-6.953zM546.475 423.063h2.593c2.186 0 3.695 1.5 3.695 3.456v.021c0 1.957-1.51 3.477-3.695 3.477h-2.593v-6.954zm1.222 1.113v4.729h1.37c1.461 0 2.414-.983 2.414-2.345v-.02c0-1.361-.953-2.364-2.414-2.364h-1.37zM564.72 430.225l-.835-.745a3.664 3.664 0 0 1-2.115.655c-2.136 0-3.626-1.619-3.626-3.576v-.02c0-1.957 1.51-3.596 3.646-3.596s3.626 1.619 3.626 3.575v.021a3.61 3.61 0 0 1-.705 2.136l.794.675-.785.875zm-1.729-1.54l-1.202-1.023.785-.894 1.222 1.112c.219-.377.338-.824.338-1.321v-.02c0-1.352-.983-2.474-2.364-2.474s-2.345 1.103-2.345 2.453v.021c0 1.351.983 2.463 2.364 2.463a2.34 2.34 0 0 0 1.202-.317zM567.4 427.066v-4.003h1.222v3.953c0 1.291.665 1.977 1.758 1.977 1.083 0 1.748-.646 1.748-1.927v-4.003h1.223v3.943c0 2.076-1.173 3.119-2.99 3.119-1.808.001-2.961-1.042-2.961-3.059zM577.857 423.014h1.133l3.06 7.003h-1.292l-.705-1.679h-3.288l-.715 1.679h-1.252l3.059-7.003zm1.748 4.241l-1.201-2.781-1.192 2.781h2.393zM583.855 423.063h1.223v5.841h3.655v1.112h-4.878v-6.953zM590.688 423.063h1.222v6.953h-1.222v-6.953zM596.091 424.195h-2.205v-1.132h5.642v1.132h-2.205v5.821h-1.231v-5.821zM603.48 427.275l-2.762-4.212h1.45l1.938 3.069 1.967-3.069h1.4l-2.762 4.182v2.771h-1.231v-2.741z"/></g><g><path class="st1" d="M424.186 480.95h2.593c2.186 0 3.695 1.5 3.695 3.456v.021c0 1.957-1.51 3.477-3.695 3.477h-2.593v-6.954zm1.222 1.112v4.729h1.37c1.461 0 2.414-.983 2.414-2.345v-.02c0-1.361-.953-2.364-2.414-2.364h-1.37zM434.545 480.9h1.133l3.06 7.003h-1.292l-.705-1.679h-3.288l-.715 1.679h-1.252l3.059-7.003zm1.748 4.241l-1.201-2.781-1.192 2.781h2.393zM441.357 482.082h-2.205v-1.132h5.642v1.132h-2.205v5.821h-1.231v-5.821zM448.27 480.9h1.133l3.06 7.003h-1.292l-.705-1.679h-3.288l-.715 1.679h-1.252l3.059-7.003zm1.748 4.241l-1.201-2.781-1.192 2.781h2.393zM424.256 492.868h1.222v6.953h-1.222v-6.953zM427.949 492.868h1.133l3.726 4.808v-4.808h1.201v6.953h-1.022l-3.835-4.947v4.947h-1.202v-6.953zM438.12 494h-2.205v-1.132h5.643V494h-2.206v5.821h-1.231V494zM443.462 492.868h5.156v1.093h-3.934v1.808h3.486v1.093h-3.486v1.867h3.983v1.093h-5.206v-6.954zM450.424 496.364v-.02c0-1.947 1.49-3.596 3.586-3.596 1.212 0 1.957.337 2.672.943l-.774.924c-.536-.457-1.062-.745-1.947-.745-1.281 0-2.255 1.122-2.255 2.453v.021c0 1.431.944 2.483 2.364 2.483.656 0 1.252-.209 1.679-.526V497h-1.778v-1.062h2.961v2.92a4.435 4.435 0 0 1-2.9 1.083c-2.178-.001-3.608-1.55-3.608-3.577zM459.133 492.868h3.1c.874 0 1.56.258 2.007.695.367.377.576.894.576 1.5v.02c0 1.143-.686 1.828-1.649 2.105l1.878 2.633h-1.45l-1.709-2.424h-1.529v2.424h-1.223v-6.953zm3.011 3.446c.874 0 1.43-.457 1.43-1.162v-.02c0-.745-.536-1.152-1.44-1.152h-1.777v2.334h1.787zM469.394 492.818h1.133l3.06 7.003h-1.292l-.705-1.679h-3.288l-.715 1.679h-1.252l3.059-7.003zm1.748 4.241l-1.201-2.781-1.192 2.781h2.393zM476.206 494h-2.205v-1.132h5.643V494h-2.206v5.821h-1.231V494zM481.618 492.868h1.222v6.953h-1.222v-6.953zM485.004 496.364v-.02c0-1.957 1.51-3.596 3.646-3.596s3.626 1.619 3.626 3.575v.021c0 1.957-1.51 3.596-3.646 3.596s-3.626-1.619-3.626-3.576zm5.99 0v-.02c0-1.352-.983-2.474-2.364-2.474s-2.345 1.103-2.345 2.453v.021c0 1.351.983 2.463 2.364 2.463s2.345-1.091 2.345-2.443zM494.369 492.868h1.133l3.726 4.808v-4.808h1.201v6.953h-1.022l-3.835-4.947v4.947h-1.202v-6.953z"/></g><g><path class="st1" d="M279.308 457.243h2.593c2.186 0 3.695 1.5 3.695 3.456v.021c0 1.957-1.51 3.477-3.695 3.477h-2.593v-6.954zm1.223 1.112v4.729h1.37c1.461 0 2.414-.983 2.414-2.345v-.02c0-1.361-.953-2.364-2.414-2.364h-1.37zM289.667 457.193h1.133l3.06 7.003h-1.292l-.705-1.679h-3.288l-.715 1.679h-1.252l3.059-7.003zm1.749 4.241l-1.201-2.781-1.192 2.781h2.393zM296.48 458.375h-2.205v-1.132h5.642v1.132h-2.205v5.821h-1.231v-5.821zM303.392 457.193h1.133l3.06 7.003h-1.292l-.705-1.679H302.3l-.715 1.679h-1.252l3.059-7.003zm1.748 4.241l-1.201-2.781-1.192 2.781h2.393zM278.772 469.161h1.321l1.659 5.155 1.708-5.176h1.033l1.709 5.176 1.658-5.155h1.282l-2.414 7.003h-1.063l-1.708-4.997-1.709 4.997h-1.053l-2.423-7.003zM292.578 469.111h1.133l3.06 7.003h-1.292l-.705-1.679h-3.288l-.715 1.679h-1.252l3.059-7.003zm1.748 4.241l-1.201-2.781-1.192 2.781h2.393zM298.575 469.161h3.1c.874 0 1.56.258 2.007.695.367.377.576.894.576 1.5v.02c0 1.143-.686 1.828-1.649 2.105l1.878 2.633h-1.45l-1.709-2.424h-1.529v2.424h-1.223v-6.953zm3.01 3.446c.874 0 1.43-.457 1.43-1.162v-.02c0-.745-.536-1.152-1.44-1.152h-1.777v2.334h1.787zM306.371 469.161h5.156v1.093h-3.934v1.808h3.486v1.093h-3.486v1.867h3.983v1.093h-5.206v-6.954zM313.64 469.161h1.223v2.891h3.317v-2.891h1.222v6.953h-1.222v-2.931h-3.317v2.931h-1.223v-6.953zM321.497 472.657v-.02c0-1.957 1.51-3.596 3.646-3.596s3.626 1.619 3.626 3.575v.021c0 1.957-1.51 3.596-3.646 3.596s-3.626-1.619-3.626-3.576zm5.99 0v-.02c0-1.352-.983-2.474-2.364-2.474s-2.345 1.103-2.345 2.453v.021c0 1.351.983 2.463 2.364 2.463s2.345-1.091 2.345-2.443zM330.752 473.164v-4.003h1.222v3.953c0 1.291.665 1.977 1.758 1.977 1.083 0 1.748-.646 1.748-1.927v-4.003h1.223v3.943c0 2.076-1.173 3.119-2.99 3.119-1.808.001-2.961-1.042-2.961-3.059zM338.528 475.1l.735-.874c.666.576 1.341.904 2.195.904.755 0 1.231-.357 1.231-.874v-.02c0-.497-.277-.766-1.569-1.063-1.479-.357-2.314-.795-2.314-2.076v-.02c0-1.192.993-2.017 2.374-2.017 1.014 0 1.818.308 2.523.874l-.655.924c-.626-.467-1.252-.715-1.888-.715-.715 0-1.133.367-1.133.824v.02c0 .537.318.775 1.659 1.093 1.47.357 2.226.885 2.226 2.036v.021c0 1.301-1.023 2.076-2.483 2.076a4.276 4.276 0 0 1-2.901-1.113zM346.037 469.161h1.222v6.953h-1.222v-6.953zM349.73 469.161h1.133l3.726 4.808v-4.808h1.201v6.953h-1.022l-3.835-4.947v4.947h-1.202v-6.953zM357.883 472.657v-.02c0-1.947 1.49-3.596 3.586-3.596 1.212 0 1.957.337 2.672.943l-.774.924c-.536-.457-1.062-.745-1.947-.745-1.281 0-2.255 1.122-2.255 2.453v.021c0 1.431.944 2.483 2.364 2.483.656 0 1.252-.209 1.679-.526v-1.302h-1.777v-1.062h2.96v2.92a4.435 4.435 0 0 1-2.9 1.083c-2.177 0-3.608-1.55-3.608-3.576z"/></g><g><path class="st1" d="M374.774 312.901h6.006c5.062 0 8.56 3.475 8.56 8.008v.046c0 4.533-3.498 8.054-8.56 8.054h-6.006v-16.108zm2.831 2.577v10.953h3.175c3.382 0 5.591-2.278 5.591-5.431v-.046c0-3.152-2.209-5.477-5.591-5.477h-3.175zM398.771 312.786h2.623l7.087 16.223h-2.991l-1.634-3.889h-7.617l-1.656 3.889h-2.899l7.087-16.223zm4.049 9.826l-2.784-6.443-2.761 6.443h5.545zM414.552 315.524h-5.108v-2.623h13.07v2.623h-5.108v13.484h-2.854v-13.484zM430.564 312.786h2.623l7.088 16.223h-2.992l-1.634-3.889h-7.616l-1.656 3.889h-2.899l7.086-16.223zm4.05 9.826l-2.784-6.443-2.761 6.443h5.545zM314.787 340.509h3.015l4.901 7.616 4.901-7.616h3.014v16.107h-2.83v-11.551l-5.085 7.593h-.092l-5.04-7.547v11.505h-2.784v-16.107zM341.889 340.393h2.624l7.087 16.223h-2.991l-1.634-3.889h-7.616l-1.657 3.889h-2.899l7.086-16.223zm4.05 9.827l-2.784-6.443-2.761 6.443h5.545zM355.783 340.509h2.623l8.629 11.137v-11.137h2.784v16.107h-2.37l-8.882-11.459v11.459h-2.784v-16.107zM381.09 340.393h2.624l7.087 16.223h-2.991l-1.634-3.889h-7.616l-1.657 3.889h-2.899l7.086-16.223zm4.05 9.827l-2.784-6.443-2.761 6.443h5.545zM393.259 348.608v-.046c0-4.51 3.452-8.329 8.307-8.329 2.807 0 4.533.782 6.189 2.186l-1.795 2.14c-1.242-1.059-2.462-1.726-4.51-1.726-2.968 0-5.224 2.601-5.224 5.684v.046c0 3.313 2.186 5.753 5.477 5.753 1.519 0 2.899-.483 3.889-1.22v-3.015h-4.119v-2.462h6.857v6.765c-1.587 1.358-3.866 2.509-6.719 2.509-5.038-.001-8.352-3.59-8.352-8.285zM413.436 340.509h11.942v2.531h-9.112v4.188h8.076v2.531h-8.076v4.326h9.227v2.531h-12.057v-16.107zM430.276 340.509h3.014l4.901 7.616 4.901-7.616h3.015v16.107h-2.831v-11.551l-5.085 7.593h-.091l-5.039-7.547v11.505h-2.784v-16.107zM451.672 340.509h11.942v2.531h-9.112v4.188h8.076v2.531h-8.076v4.326h9.227v2.531h-12.057v-16.107zM468.512 340.509h2.623l8.629 11.137v-11.137h2.784v16.107h-2.37l-8.882-11.459v11.459h-2.784v-16.107zM492.069 343.132h-5.108v-2.623h13.07v2.623h-5.108v13.484h-2.854v-13.484z"/></g><g><path class="st1" d="M176.577 342.658h2.593c2.186 0 3.695 1.5 3.695 3.456v.021c0 1.957-1.51 3.477-3.695 3.477h-2.593v-6.954zm1.222 1.112v4.729h1.37c1.461 0 2.414-.983 2.414-2.345v-.02c0-1.361-.953-2.364-2.414-2.364h-1.37zM186.936 342.608h1.133l3.06 7.003h-1.292l-.705-1.679h-3.288l-.715 1.679h-1.252l3.059-7.003zm1.748 4.241l-1.201-2.781-1.192 2.781h2.393zM193.749 343.79h-2.205v-1.132h5.642v1.132h-2.205v5.821h-1.231v-5.821zM200.661 342.608h1.133l3.06 7.003h-1.292l-.705-1.679h-3.288l-.715 1.679h-1.252l3.059-7.003zm1.748 4.241l-1.201-2.781-1.192 2.781h2.393zM178.286 355.708h-2.205v-1.132h5.642v1.132h-2.205v5.821h-1.231v-5.821zM183.627 354.576h3.1c.874 0 1.56.258 2.007.695.367.377.576.894.576 1.5v.02c0 1.143-.686 1.828-1.649 2.105l1.878 2.633h-1.45l-1.709-2.424h-1.529v2.424h-1.223v-6.953zm3.011 3.446c.874 0 1.43-.457 1.43-1.162v-.02c0-.745-.536-1.152-1.44-1.152h-1.777v2.334h1.787zM193.887 354.526h1.133l3.06 7.003h-1.292l-.705-1.679h-3.288l-.715 1.679h-1.252l3.059-7.003zm1.748 4.241l-1.201-2.781-1.192 2.781h2.393zM199.885 354.576h1.133l3.726 4.808v-4.808h1.201v6.953h-1.022l-3.835-4.947v4.947h-1.202v-6.953zM207.879 360.516l.735-.874c.666.576 1.341.904 2.195.904.755 0 1.231-.357 1.231-.874v-.02c0-.497-.277-.766-1.569-1.063-1.479-.357-2.314-.795-2.314-2.076v-.02c0-1.192.993-2.017 2.374-2.017 1.014 0 1.818.308 2.523.874l-.655.924c-.626-.467-1.252-.715-1.888-.715-.715 0-1.133.367-1.133.824v.02c0 .537.318.775 1.659 1.093 1.47.357 2.226.885 2.226 2.036v.021c0 1.301-1.023 2.076-2.483 2.076a4.286 4.286 0 0 1-2.901-1.113zM215.318 354.576h5.176v1.112h-3.953v1.897h3.506v1.112h-3.506v2.831h-1.223v-6.952zM222.082 358.072v-.02c0-1.957 1.51-3.596 3.646-3.596s3.626 1.619 3.626 3.575v.021c0 1.957-1.51 3.596-3.646 3.596s-3.626-1.619-3.626-3.576zm5.99 0v-.02c0-1.352-.983-2.474-2.364-2.474s-2.345 1.103-2.345 2.453v.021c0 1.351.983 2.463 2.364 2.463s2.345-1.091 2.345-2.443zM231.447 354.576h3.1c.874 0 1.56.258 2.007.695.367.377.576.894.576 1.5v.02c0 1.143-.686 1.828-1.649 2.105l1.878 2.633h-1.45l-1.709-2.424h-1.529v2.424h-1.223v-6.953zm3.011 3.446c.874 0 1.43-.457 1.43-1.162v-.02c0-.745-.536-1.152-1.44-1.152h-1.777v2.334h1.787zM239.243 354.576h1.302l2.116 3.288 2.115-3.288h1.302v6.953h-1.222v-4.986l-2.195 3.277h-.04l-2.176-3.258v4.967h-1.202v-6.953zM250.942 354.526h1.133l3.06 7.003h-1.292l-.705-1.679h-3.288l-.715 1.679h-1.252l3.059-7.003zm1.748 4.241l-1.201-2.781-1.192 2.781h2.393zM257.755 355.708h-2.205v-1.132h5.643v1.132h-2.206v5.821h-1.231v-5.821zM263.167 354.576h1.222v6.953h-1.222v-6.953zM266.553 358.072v-.02c0-1.957 1.51-3.596 3.646-3.596s3.626 1.619 3.626 3.575v.021c0 1.957-1.51 3.596-3.646 3.596s-3.626-1.619-3.626-3.576zm5.99 0v-.02c0-1.352-.983-2.474-2.364-2.474s-2.345 1.103-2.345 2.453v.021c0 1.351.983 2.463 2.364 2.463s2.345-1.091 2.345-2.443zM275.918 354.576h1.133l3.726 4.808v-4.808h1.201v6.953h-1.022l-3.835-4.947v4.947h-1.202v-6.953zM283.913 360.516l.735-.874c.666.576 1.341.904 2.195.904.755 0 1.231-.357 1.231-.874v-.02c0-.497-.277-.766-1.569-1.063-1.479-.357-2.314-.795-2.314-2.076v-.02c0-1.192.993-2.017 2.374-2.017 1.014 0 1.818.308 2.523.874l-.655.924c-.626-.467-1.252-.715-1.888-.715-.715 0-1.133.367-1.133.824v.02c0 .537.318.775 1.659 1.093 1.47.357 2.226.885 2.226 2.036v.021c0 1.301-1.023 2.076-2.483 2.076a4.284 4.284 0 0 1-2.901-1.113z"/></g><g><path class="st1" d="M220.479 243h2.593c2.186 0 3.695 1.5 3.695 3.456v.021c0 1.957-1.51 3.477-3.695 3.477h-2.593V243zm1.223 1.112v4.729h1.37c1.461 0 2.414-.983 2.414-2.345v-.02c0-1.361-.953-2.364-2.414-2.364h-1.37zM230.838 242.95h1.133l3.06 7.003h-1.292l-.705-1.679h-3.288l-.715 1.679h-1.252l3.059-7.003zm1.748 4.241l-1.201-2.781-1.192 2.781h2.393zM237.651 244.132h-2.205V243h5.642v1.132h-2.205v5.821h-1.231v-5.821zM244.563 242.95h1.133l3.06 7.003h-1.292l-.705-1.679h-3.288l-.715 1.679h-1.252l3.059-7.003zm1.748 4.241l-1.201-2.781-1.192 2.781h2.393zM220.171 258.414v-.02c0-1.947 1.49-3.596 3.586-3.596 1.212 0 1.957.337 2.672.943l-.774.924c-.536-.457-1.062-.745-1.947-.745-1.281 0-2.255 1.122-2.255 2.453v.021c0 1.431.944 2.483 2.364 2.483.656 0 1.252-.209 1.679-.526v-1.302h-1.777v-1.062h2.96v2.92a4.435 4.435 0 0 1-2.9 1.083c-2.177 0-3.608-1.55-3.608-3.576zM228.573 258.414v-.02c0-1.957 1.51-3.596 3.646-3.596s3.626 1.619 3.626 3.575v.021c0 1.957-1.51 3.596-3.646 3.596s-3.626-1.619-3.626-3.576zm5.99 0v-.02c0-1.352-.983-2.474-2.364-2.474s-2.345 1.103-2.345 2.453v.021c0 1.351.983 2.463 2.364 2.463s2.345-1.091 2.345-2.443zM236.906 254.918h1.352l2.096 5.344 2.086-5.344h1.321l-2.881 7.003h-1.083l-2.891-7.003zM245.565 254.918h5.156v1.093h-3.934v1.808h3.486v1.093h-3.486v1.867h3.983v1.093h-5.206v-6.954zM252.835 254.918h3.1c.874 0 1.56.258 2.007.695.367.377.576.894.576 1.5v.02c0 1.143-.686 1.828-1.649 2.105l1.878 2.633h-1.45l-1.709-2.424h-1.529v2.424h-1.223v-6.953zm3.011 3.446c.874 0 1.43-.457 1.43-1.162v-.02c0-.745-.536-1.152-1.44-1.152h-1.777v2.334h1.787zM260.631 254.918h1.133l3.726 4.808v-4.808h1.201v6.953h-1.022l-3.835-4.947v4.947h-1.202v-6.953zM271.556 254.868h1.133l3.06 7.003h-1.292l-.705-1.679h-3.288l-.715 1.679h-1.252l3.059-7.003zm1.748 4.241l-1.201-2.781-1.192 2.781h2.393zM277.553 254.918h1.133l3.726 4.808v-4.808h1.201v6.953h-1.022l-3.835-4.947v4.947h-1.202v-6.953zM285.708 258.414v-.02c0-1.977 1.48-3.596 3.586-3.596 1.281 0 2.057.446 2.722 1.082l-.784.904c-.557-.517-1.152-.864-1.947-.864-1.321 0-2.295 1.093-2.295 2.453v.021c0 1.36.964 2.463 2.295 2.463.854 0 1.4-.337 1.997-.894l.784.795c-.725.755-1.52 1.231-2.821 1.231-2.028.001-3.537-1.578-3.537-3.575zM293.959 254.918h5.156v1.093h-3.934v1.808h3.486v1.093h-3.486v1.867h3.983v1.093h-5.206v-6.954z"/></g><g><path class="st1" d="M470.283 189.878h2.593c2.186 0 3.695 1.5 3.695 3.456v.021c0 1.957-1.51 3.477-3.695 3.477h-2.593v-6.954zm1.223 1.112v4.729h1.37c1.461 0 2.414-.983 2.414-2.345v-.02c0-1.361-.953-2.364-2.414-2.364h-1.37zM480.643 189.828h1.133l3.06 7.003h-1.292l-.705-1.679h-3.288l-.715 1.679h-1.252l3.059-7.003zm1.748 4.241l-1.201-2.781-1.192 2.781h2.393zM487.455 191.01h-2.205v-1.132h5.642v1.132h-2.205v5.821h-1.231v-5.821zM494.367 189.828h1.133l3.06 7.003h-1.292l-.705-1.679h-3.288l-.715 1.679h-1.252l3.059-7.003zm1.748 4.241l-1.201-2.781-1.192 2.781h2.393zM501.18 191.01h-2.205v-1.132h5.642v1.132h-2.205v5.821h-1.231v-5.821zM506.522 189.878h3.119c.795 0 1.421.218 1.818.615.308.309.467.686.467 1.152v.021c0 .834-.477 1.281-.993 1.549.814.278 1.381.745 1.381 1.689v.02c0 1.241-1.023 1.907-2.573 1.907h-3.219v-6.953zm4.183 1.967c0-.547-.438-.885-1.222-.885h-1.759v1.848h1.669c.785 0 1.312-.308 1.312-.943v-.02zm-1.043 1.996h-1.938v1.907h2.026c.835 0 1.342-.327 1.342-.953v-.021c.001-.586-.467-.933-1.43-.933zM516.772 189.828h1.133l3.06 7.003h-1.292l-.705-1.679h-3.288l-.715 1.679h-1.252l3.059-7.003zm1.749 4.241l-1.201-2.781-1.192 2.781h2.393zM522.184 195.817l.735-.874c.666.576 1.341.904 2.195.904.755 0 1.231-.357 1.231-.874v-.02c0-.497-.277-.766-1.569-1.063-1.479-.357-2.314-.795-2.314-2.076v-.02c0-1.192.993-2.017 2.374-2.017 1.014 0 1.818.308 2.523.874l-.655.924c-.626-.467-1.252-.715-1.888-.715-.715 0-1.133.367-1.133.824v.02c0 .537.318.775 1.659 1.093 1.47.357 2.226.885 2.226 2.036v.021c0 1.301-1.023 2.076-2.483 2.076a4.279 4.279 0 0 1-2.901-1.113zM529.622 189.878h5.156v1.093h-3.934v1.808h3.486v1.093h-3.486v1.867h3.983v1.093h-5.206v-6.954zM536.425 195.817l.735-.874c.666.576 1.341.904 2.195.904.755 0 1.231-.357 1.231-.874v-.02c0-.497-.277-.766-1.569-1.063-1.479-.357-2.314-.795-2.314-2.076v-.02c0-1.192.993-2.017 2.374-2.017 1.014 0 1.818.308 2.523.874l-.655.924c-.626-.467-1.252-.715-1.888-.715-.715 0-1.133.367-1.133.824v.02c0 .537.318.775 1.659 1.093 1.47.357 2.226.885 2.226 2.036v.021c0 1.301-1.023 2.076-2.483 2.076a4.28 4.28 0 0 1-2.901-1.113z"/></g><g><path class="st1" d="M499.651 147.758c-7.698 0-15.984-1.604-15.984-5.128s8.286-5.128 15.984-5.128 15.983 1.605 15.983 5.128-8.284 5.128-15.983 5.128zm0-8.256c-9.227 0-13.984 2.193-13.984 3.128s4.758 3.128 13.984 3.128c9.226 0 13.983-2.192 13.983-3.128s-4.757-3.128-13.983-3.128zM499.651 155.301c-7.698 0-15.984-1.604-15.984-5.128h2c0 .936 4.758 3.128 13.984 3.128 9.226 0 13.983-2.192 13.983-3.128h2c.001 3.524-8.284 5.128-15.983 5.128zM499.651 162.845c-7.698 0-15.984-1.604-15.984-5.128h2c0 .936 4.758 3.128 13.984 3.128 9.226 0 13.983-2.192 13.983-3.128h2c.001 3.523-8.284 5.128-15.983 5.128zM499.651 170.387c-7.698 0-15.984-1.604-15.984-5.128h2c0 .936 4.758 3.128 13.984 3.128 9.226 0 13.983-2.192 13.983-3.128h2c.001 3.523-8.284 5.128-15.983 5.128z"/><path class="st1" d="M483.68 142.706h2v22.96h-2zM513.609 142.706h2v22.96h-2zM545.979 147.758c-7.698 0-15.983-1.604-15.983-5.128s8.285-5.128 15.983-5.128 15.984 1.605 15.984 5.128-8.286 5.128-15.984 5.128zm0-8.256c-9.226 0-13.983 2.193-13.983 3.128s4.758 3.128 13.983 3.128c9.227 0 13.984-2.192 13.984-3.128s-4.758-3.128-13.984-3.128zM545.979 155.301c-7.698 0-15.983-1.604-15.983-5.128h2c0 .936 4.758 3.128 13.983 3.128 9.227 0 13.984-2.192 13.984-3.128h2c0 3.524-8.286 5.128-15.984 5.128zM545.979 162.845c-7.698 0-15.983-1.604-15.983-5.128h2c0 .936 4.758 3.128 13.983 3.128 9.227 0 13.984-2.192 13.984-3.128h2c0 3.523-8.286 5.128-15.984 5.128zM545.979 170.387c-7.698 0-15.983-1.604-15.983-5.128h2c0 .936 4.758 3.128 13.983 3.128 9.227 0 13.984-2.192 13.984-3.128h2c0 3.523-8.286 5.128-15.984 5.128z"/><path class="st1" d="M530.008 142.706h2v22.96h-2zM559.938 142.706h2v22.96h-2zM522.814 108.194c-7.698 0-15.983-1.604-15.983-5.128s8.285-5.128 15.983-5.128 15.984 1.605 15.984 5.128-8.285 5.128-15.984 5.128zm0-8.257c-9.226 0-13.983 2.193-13.983 3.128s4.758 3.128 13.983 3.128c9.227 0 13.984-2.192 13.984-3.128s-4.757-3.128-13.984-3.128zM522.814 115.737c-7.698 0-15.983-1.604-15.983-5.128h2c0 .936 4.758 3.128 13.983 3.128 9.227 0 13.984-2.192 13.984-3.128h2c.001 3.523-8.285 5.128-15.984 5.128zM522.814 123.28c-7.698 0-15.983-1.604-15.983-5.128h2c0 .936 4.758 3.128 13.983 3.128 9.227 0 13.984-2.192 13.984-3.128h2c.001 3.523-8.285 5.128-15.984 5.128zM522.814 130.823c-7.698 0-15.983-1.605-15.983-5.128h2c0 .936 4.758 3.128 13.983 3.128 9.227 0 13.984-2.193 13.984-3.128h2c.001 3.523-8.285 5.128-15.984 5.128z"/><path class="st1" d="M506.844 103.142h2v22.96h-2zM536.773 103.142h2v22.96h-2zM514.635 150.357h16.36v2h-16.36z"/><path transform="rotate(-45.001 506.469 133.218)" class="st1" d="M499.444 132.212h14.048v2h-14.048z"/><path transform="rotate(-45.001 539.326 133.219)" class="st1" d="M538.325 126.188h2v14.048h-2z"/></g><g><path class="st1" d="M618.262 237.132l1.777 3.199a2 2 0 0 0 3.496 0l1.777-3.199c.957.178 1.896.428 2.81.749l-.061 3.663a2 2 0 0 0 3.029 1.748l3.14-1.883c.737.633 1.424 1.32 2.057 2.057l-1.883 3.14a2 2 0 0 0 1.715 3.029h.033l3.663-.061c.321.914.571 1.854.749 2.81l-3.199 1.777a2 2 0 0 0 0 3.496l3.199 1.777a18.916 18.916 0 0 1-.749 2.81l-3.663-.061h-.033a2.001 2.001 0 0 0-1.715 3.029l1.883 3.14a19.207 19.207 0 0 1-2.057 2.057l-3.14-1.883a1.995 1.995 0 0 0-2.029-.017 2 2 0 0 0-1 1.765l.061 3.663c-.914.321-1.854.571-2.81.749l-1.777-3.199a2 2 0 0 0-3.496 0l-1.777 3.199a18.916 18.916 0 0 1-2.81-.749l.061-3.663a2 2 0 0 0-3.029-1.748l-3.14 1.883a19.207 19.207 0 0 1-2.057-2.057l1.883-3.14a2 2 0 0 0-1.715-3.029h-.033l-3.663.061a18.948 18.948 0 0 1-.749-2.81l3.199-1.777a2 2 0 0 0 0-3.496l-3.199-1.777c.178-.957.428-1.896.749-2.811l3.663.061h.033a2.001 2.001 0 0 0 1.715-3.029l-1.883-3.14a19.207 19.207 0 0 1 2.057-2.057l3.14 1.883a1.995 1.995 0 0 0 2.029.017 2 2 0 0 0 1-1.765l-.061-3.663c.914-.32 1.854-.57 2.81-.748m3.392 28.705c5.606 0 10.166-4.561 10.166-10.166 0-5.606-4.56-10.166-10.166-10.166s-10.166 4.561-10.166 10.166 4.56 10.166 10.166 10.166m2.584-30.888l-2.451 4.411-2.451-4.411c-2.076.24-4.06.779-5.908 1.577l.084 5.052-4.332-2.597a21.192 21.192 0 0 0-4.323 4.324l2.597 4.332-5.052-.084a20.955 20.955 0 0 0-1.577 5.908l4.411 2.451-4.411 2.451c.24 2.076.779 4.06 1.577 5.908l5.052-.084-2.597 4.332a21.212 21.212 0 0 0 4.323 4.323l4.332-2.597-.084 5.052a20.955 20.955 0 0 0 5.908 1.577l2.451-4.411 2.451 4.411c2.076-.24 4.06-.779 5.908-1.577l-.084-5.052 4.332 2.597a21.242 21.242 0 0 0 4.324-4.323l-2.597-4.332 5.052.084a20.955 20.955 0 0 0 1.577-5.908l-4.411-2.451 4.411-2.451a20.946 20.946 0 0 0-1.577-5.908l-5.052.084 2.597-4.332a21.222 21.222 0 0 0-4.324-4.324l-4.332 2.597.084-5.052a20.937 20.937 0 0 0-5.908-1.577zm-2.584 28.888a8.166 8.166 0 1 1 0-16.332 8.166 8.166 0 0 1 0 16.332z"/><path class="st1" d="M621.788 252.967a2.946 2.946 0 0 1 2.943 2.943c0 1.623-1.32 2.943-2.943 2.943s-2.943-1.32-2.943-2.943a2.946 2.946 0 0 1 2.943-2.943m0-2a4.943 4.943 0 1 0 0 9.886 4.943 4.943 0 0 0 0-9.886zM621.788 218.406a4.037 4.037 0 0 1 4.033 4.033c0 2.224-1.809 4.033-4.033 4.033s-4.033-1.809-4.033-4.033a4.037 4.037 0 0 1 4.033-4.033m0-2a6.033 6.033 0 1 0 0 12.066 6.033 6.033 0 0 0 0-12.066zM653.506 251.878a4.037 4.037 0 0 1 4.033 4.033c0 2.224-1.809 4.033-4.033 4.033s-4.033-1.809-4.033-4.033a4.039 4.039 0 0 1 4.033-4.033m0-2a6.033 6.033 0 1 0 0 12.066 6.033 6.033 0 0 0 0-12.066zM644.525 228.354a4.037 4.037 0 0 1 4.033 4.033c0 2.224-1.809 4.033-4.033 4.033s-4.033-1.809-4.033-4.033a4.037 4.037 0 0 1 4.033-4.033m0-2a6.033 6.033 0 1 0 0 12.066 6.033 6.033 0 0 0 0-12.066zM597.495 228.354a4.037 4.037 0 0 1 4.033 4.033c0 2.224-1.809 4.033-4.033 4.033s-4.033-1.809-4.033-4.033a4.039 4.039 0 0 1 4.033-4.033m0-2a6.033 6.033 0 1 0 0 12.066 6.033 6.033 0 0 0 0-12.066zM589.625 251.878a4.037 4.037 0 0 1 4.033 4.033c0 2.224-1.809 4.033-4.033 4.033s-4.033-1.809-4.033-4.033a4.039 4.039 0 0 1 4.033-4.033m0-2a6.033 6.033 0 1 0 0 12.066 6.033 6.033 0 0 0 0-12.066z"/><path class="st1" d="M594.265 254.91h11.321v2h-11.321zM637.689 254.91h11.321v2h-11.321zM620.788 227.293h2v12.854h-2z"/><path transform="rotate(-47.833 604.132 239.14)" class="st1" d="M603.175 234.721h1.999v8.853h-1.999z"/><path transform="rotate(-45.001 637.69 238.875)" class="st1" d="M633.884 237.867h7.611v2h-7.611z"/></g><g><path class="st1" d="M217.409 197.78c-3.129-10.598-13.04-17.999-24.101-17.999-10.998 0-20.892 7.347-24.061 17.864l-1.915-.576c3.421-11.356 14.103-19.288 25.976-19.288 11.941 0 22.641 7.991 26.019 19.433l-1.918.566zM177.768 221.044H168.8a1 1 0 0 1-1-1v-17.152a1 1 0 0 1 1-1h8.968a1 1 0 0 1 1 1v17.152a1 1 0 0 1-1 1zm-7.968-2h6.968v-15.152H169.8v15.152zM197.813 221.044h-8.968a1 1 0 0 1-1-1v-17.152a1 1 0 0 1 1-1h8.968a1 1 0 0 1 1 1v17.152a1 1 0 0 1-1 1zm-7.968-2h6.968v-15.152h-6.968v15.152zM217.858 221.044h-8.968a1 1 0 0 1-1-1v-17.152a1 1 0 0 1 1-1h8.968a1 1 0 0 1 1 1v17.152a1 1 0 0 1-1 1zm-7.968-2h6.968v-15.152h-6.968v15.152z"/><path class="st1" d="M221.028 226.49h-56.26a1 1 0 0 1-1-1v-5.35a1 1 0 0 1 1-1h56.26a1 1 0 0 1 1 1v5.35a1 1 0 0 1-1 1zm-55.259-2h54.26v-3.35h-54.26v3.35z"/><path class="st1" d="M225.536 233.776h-64.983a1 1 0 0 1-1-1v-7.118a1 1 0 0 1 1-1h64.983a1 1 0 0 1 1 1v7.118a1 1 0 0 1-1 1zm-63.983-2h62.983v-5.118h-62.983v5.118zM225.39 203.488h-64.983a1 1 0 0 1-1-1v-5.774a1 1 0 0 1 1-1h64.983a1 1 0 0 1 1 1v5.774a1 1 0 0 1-1 1zm-63.983-2h62.983v-3.774h-62.983v3.774zM193.329 185.528a2.538 2.538 0 0 1 2.535 2.535 2.538 2.538 0 0 1-2.535 2.535 2.538 2.538 0 0 1-2.535-2.535 2.538 2.538 0 0 1 2.535-2.535m0-2a4.535 4.535 0 1 0-.001 9.069 4.535 4.535 0 0 0 .001-9.069zM192.43 163.447h2v15.532h-2z"/><path class="st1" d="M200.204 168.436v3.905h-5.848v-3.905h5.848m2-2h-9.848v7.905h9.848v-7.905z"/><path class="st1" d="M205.544 169.619l-.46.499a2 2 0 0 0-.033 2.673l.642.733h-3.437v-3.905h3.288m4.56-2h-9.848v7.905h9.848l-3.549-4.051 3.549-3.854z"/></g><g><path class="st1" d="M150.904 434.668v12.413h-8.097v-12.413h8.097m.819-2h-9.736c-.652 0-1.181.529-1.181 1.181V447.9c0 .652.529 1.181 1.181 1.181h9.736c.652 0 1.181-.529 1.181-1.181v-14.051a1.18 1.18 0 0 0-1.181-1.181zM186.878 428.858v18.223h-8.097v-18.223h8.097m.819-2h-9.736c-.652 0-1.181.529-1.181 1.181V447.9c0 .652.529 1.181 1.181 1.181h9.736c.652 0 1.181-.529 1.181-1.181v-19.861a1.18 1.18 0 0 0-1.181-1.181zM204.861 416.556v30.524h-8.09v-30.524h8.09m.819-2h-9.729c-.652 0-1.181.529-1.181 1.181V447.9c0 .652.529 1.181 1.181 1.181h9.729c.652 0 1.181-.529 1.181-1.181v-32.163c0-.652-.529-1.181-1.181-1.181zM168.891 422.218v24.863h-8.097v-24.863h8.097m.819-2h-9.736c-.652 0-1.181.529-1.181 1.181V447.9c0 .652.529 1.181 1.181 1.181h9.736c.652 0 1.181-.529 1.181-1.181v-26.501a1.18 1.18 0 0 0-1.181-1.181z"/><path transform="rotate(-40.049 156.229 406.762)" class="st1" d="M148.263 405.734h15.922v2h-15.922z"/><path transform="rotate(-56.962 174.32 405.388)" class="st1" d="M173.309 399.38h2v11.993h-2z"/><path transform="rotate(-49.932 192.213 399.612)" class="st1" d="M183.797 398.617h16.816v2h-16.816z"/><path class="st1" d="M146.856 410.728c2.263 0 4.103 1.841 4.103 4.103s-1.841 4.103-4.103 4.103-4.103-1.841-4.103-4.103 1.84-4.103 4.103-4.103m0-2a6.103 6.103 0 1 0 0 12.206 6.103 6.103 0 0 0 0-12.206zM184.099 406.018a4.108 4.108 0 0 1 4.103 4.103c0 2.263-1.841 4.103-4.103 4.103s-4.103-1.841-4.103-4.103a4.107 4.107 0 0 1 4.103-4.103m0-2a6.103 6.103 0 1 0 0 12.206 6.103 6.103 0 0 0 0-12.206zM200.833 385.558a4.108 4.108 0 0 1 4.103 4.103c0 2.263-1.841 4.103-4.103 4.103s-4.103-1.841-4.103-4.103a4.108 4.108 0 0 1 4.103-4.103m0-2a6.103 6.103 0 1 0 0 12.206 6.103 6.103 0 0 0 0-12.206zM165.586 395.183c2.263 0 4.103 1.841 4.103 4.103s-1.841 4.103-4.103 4.103-4.103-1.841-4.103-4.103 1.84-4.103 4.103-4.103m0-2a6.103 6.103 0 1 0 0 12.206 6.103 6.103 0 0 0 0-12.206z"/></g><g><path class="st1" d="M613.485 480.308a1.431 1.431 0 0 1 1.173 2.25l-9.417 13.514a1.43 1.43 0 0 1-2.163.216l-7.211-6.895a1.43 1.43 0 1 1 1.978-2.068l6.003 5.739 8.462-12.142c.278-.4.723-.614 1.175-.614m.001-2c-1.123 0-2.176.55-2.817 1.471l-7.126 10.226-4.315-4.126a3.411 3.411 0 0 0-2.37-.951c-.932 0-1.836.387-2.481 1.06a3.406 3.406 0 0 0-.95 2.448c.021.916.397 1.77 1.059 2.403l7.211 6.895a3.412 3.412 0 0 0 2.709.934c1-.098 1.902-.628 2.477-1.452l9.417-13.514a3.434 3.434 0 0 0-2.814-5.394z"/><path class="st1" d="M634.406 465.037c.17 0 .308.138.308.308v39.79c0 .17-.138.308-.308.308h-58.273a.308.308 0 0 1-.308-.308v-39.79c0-.17.138-.308.308-.308h58.273m0-2h-58.273a2.308 2.308 0 0 0-2.308 2.308v39.79a2.308 2.308 0 0 0 2.308 2.308h58.273a2.308 2.308 0 0 0 2.308-2.308v-39.79a2.308 2.308 0 0 0-2.308-2.308z"/><path class="st1" d="M575.327 472.482h60.308v2h-60.308zM581.604 469.769h-1.844a1 1 0 1 1 0-2h1.844a1 1 0 1 1 0 2zM587.545 469.769h-1.844a1 1 0 1 1 0-2h1.844a1 1 0 1 1 0 2zM593.486 469.769h-1.844a1 1 0 1 1 0-2h1.844a1 1 0 1 1 0 2zM631.791 458.694h-53.043a1 1 0 1 1 0-2h53.043a1 1 0 1 1 0 2zM628.579 452.01H581.96a1 1 0 1 1 0-2h46.619a1 1 0 1 1 0 2zM625.054 445.325h-39.568a1 1 0 1 1 0-2h39.568a1 1 0 1 1 0 2z"/></g><g><path class="st1" d="M319.277 106.849h-2v-8.793a1 1 0 0 1 1-1h59.447a1 1 0 0 1 1 1v7.176h-2v-6.176h-57.447v7.793z"/><path class="st1" d="M346.417 84.765h2v35.171h-2zM329.755 124.277h-.003l-23.136-.081a1 1 0 0 1-.997-1v-16.69a1 1 0 0 1 1-1h23.136a1 1 0 0 1 1 1v16.771a.999.999 0 0 1-1 1zm-22.136-2.077l21.136.074v-14.768h-21.136V122.2zM389.366 124.277h-.003l-23.136-.081a1 1 0 0 1-.997-1v-16.69a1 1 0 0 1 1-1h23.136a1 1 0 0 1 1 1v16.771a.999.999 0 0 1-1 1zM367.23 122.2l21.136.074v-14.768H367.23V122.2z"/><path class="st1" d="M358.945 137.627h-.003l-23.135-.081a1 1 0 0 1-.997-1v-16.69a1 1 0 0 1 1-1h23.135a1 1 0 0 1 1 1v16.771a.999.999 0 0 1-1 1zm-22.135-2.077l21.135.074v-14.767H336.81v14.693zM358.945 86.086h-.003l-23.135-.081a1 1 0 0 1-.997-1v-16.69a1 1 0 0 1 1-1h23.135a1 1 0 0 1 1 1v16.771a.999.999 0 0 1-1 1zm-22.135-2.077l21.135.074V69.316H336.81v14.693z"/></g><g><path class="st1" d="M330.52 576.207h-64.992a1 1 0 0 1-1-1v-46.162c0-.349.182-.672.479-.854l32.496-19.844a1.001 1.001 0 0 1 1.042 0l32.496 19.844c.297.182.479.505.479.854v46.162a1 1 0 0 1-1 1zm-63.992-2h62.992v-44.601l-31.496-19.233-31.496 19.233v44.601z"/><path class="st1" d="M322.459 575.207h-2v-32.003h-44.87v32.003h-2v-33.003a1 1 0 0 1 1-1h46.87a1 1 0 0 1 1 1v33.003z"/><path class="st1" d="M274.791 566.161h46.466v2h-46.466zM274.791 557.623h46.466v2h-46.466zM274.791 549.085h46.466v2h-46.466zM285.778 531.565v5.095h-10.16v-5.095h10.16m2-2h-14.16v9.095h14.16v-9.095zM303.059 531.565v5.095h-10.16v-5.095h10.16m2-2h-14.16v9.095h14.16v-9.095zM320.34 531.565v5.095h-10.16v-5.095h10.16m2-2h-14.16v9.095h14.16v-9.095z"/></g><g><path class="st1" d="M460.277 528.609c17.807 0 32.293 14.487 32.293 32.293 0 17.807-14.487 32.293-32.293 32.293s-32.293-14.487-32.293-32.293c-.001-17.806 14.486-32.293 32.293-32.293m0-2c-18.94 0-34.293 15.354-34.293 34.293 0 18.94 15.354 34.293 34.293 34.293s34.293-15.354 34.293-34.293-15.354-34.293-34.293-34.293z"/><path class="st1" d="M480.576 560.902v-.007c-.004-2.366 2.556-3.849 4.606-2.668l.012.007c2.049 1.179 2.054 4.134.01 5.321l-.01.006-.002.001c-2.046 1.188-4.611-.286-4.615-2.652v-.008zM439.978 560.902v.007c.004 2.366-2.556 3.849-4.606 2.668l-.012-.007c-2.049-1.179-2.054-4.134-.01-5.321l.01-.006.002-.001c2.046-1.188 4.611.286 4.615 2.652v.008z"/><path class="st1" d="M439.354 559.902h10.791v2h-10.791zM470.901 559.902h11.494v2h-11.494zM460.277 581.201h.007c2.366-.004 3.849 2.556 2.668 4.606l-.007.012c-1.179 2.049-4.134 2.055-5.321.01l-.006-.01-.001-.002c-1.188-2.046.286-4.611 2.652-4.615h.008zM460.277 540.603h-.007c-2.366.004-3.849-2.556-2.668-4.606l.007-.012c1.179-2.049 4.134-2.055 5.321-.01l.006.01.001.002c1.188 2.046-.286 4.611-2.652 4.615h-.008z"/><path class="st1" d="M459.276 539.979h2v10.229h-2zM459.276 570.651h2v13.164h-2z"/><g><path class="st1" d="M457.604 549.325l.924 1.664a2 2 0 0 0 3.496 0l.924-1.664c.27.062.537.133.801.214l-.032 1.904a2 2 0 0 0 3.029 1.748l1.632-.979c.202.189.398.384.587.587l-.979 1.632a2 2 0 0 0 1.715 3.029h.033l1.904-.031c.081.264.152.531.214.801l-1.664.924a2 2 0 0 0 0 3.496l1.664.924c-.062.27-.133.537-.214.801l-1.904-.031h-.033a2.001 2.001 0 0 0-1.715 3.029l.979 1.632c-.189.202-.384.398-.587.587l-1.632-.979a1.995 1.995 0 0 0-2.029-.017 2 2 0 0 0-1 1.765l.032 1.904c-.264.081-.532.152-.801.214l-.924-1.664a2 2 0 0 0-3.496 0l-.924 1.664c-.27-.062-.537-.133-.801-.214l.032-1.904a2 2 0 0 0-3.029-1.748l-1.632.979a12.036 12.036 0 0 1-.587-.587l.979-1.632a2 2 0 0 0-1.715-3.029h-.033l-1.904.031a11.515 11.515 0 0 1-.214-.801l1.664-.924a2 2 0 0 0 0-3.496l-1.664-.924c.062-.27.133-.537.214-.801l1.904.031h.033a2.001 2.001 0 0 0 1.715-3.029l-.979-1.632c.189-.202.384-.398.587-.587l1.632.979a1.995 1.995 0 0 0 2.029.017 2 2 0 0 0 1-1.765l-.032-1.904c.264-.081.531-.152.801-.214m2.585 18.79c4.064 0 7.371-3.306 7.371-7.371 0-4.064-3.306-7.371-7.371-7.371-4.064 0-7.371 3.306-7.371 7.371s3.307 7.371 7.371 7.371m1.699-20.999l-1.612 2.901-1.612-2.901c-1.365.158-2.67.512-3.886 1.037l.055 3.322-2.849-1.708a13.953 13.953 0 0 0-2.843 2.843l1.708 2.849-3.322-.055a13.775 13.775 0 0 0-1.037 3.886l2.901 1.612-2.901 1.612c.158 1.365.513 2.67 1.037 3.886l3.322-.055-1.708 2.849a13.953 13.953 0 0 0 2.843 2.843l2.849-1.708-.055 3.322c1.215.525 2.52.879 3.886 1.037l1.612-2.901 1.612 2.901a13.793 13.793 0 0 0 3.886-1.037l-.055-3.322 2.849 1.708a13.953 13.953 0 0 0 2.843-2.843l-1.708-2.849 3.322.055c.525-1.215.879-2.52 1.037-3.886l-2.901-1.612 2.901-1.612a13.826 13.826 0 0 0-1.037-3.886l-3.322.055 1.708-2.849a13.953 13.953 0 0 0-2.843-2.843l-2.849 1.708.055-3.322a13.808 13.808 0 0 0-3.886-1.037zm-1.699 18.999a5.371 5.371 0 1 1 0-10.743 5.371 5.371 0 0 1 0 10.743z"/><path class="st1" d="M460.277 559.651a1.252 1.252 0 0 1 0 2.502 1.252 1.252 0 0 1 0-2.502m0-2a3.251 3.251 0 1 0 0 6.502 3.251 3.251 0 0 0 0-6.502z"/></g></g></svg>