<svg id="Layer_1" data-name="Layer 1" xmlns="http://www.w3.org/2000/svg" xmlns:xlink="http://www.w3.org/1999/xlink" viewBox="0 0 1440 972"><defs><style>.cls-1{fill:url(#linear-gradient);}.cls-2,.cls-3,.cls-4{fill:#de91e5;}.cls-2,.cls-6{opacity:0.15;}.cls-3{opacity:0.4;}.cls-5{fill:#fff;}.cls-6,.cls-7,.cls-8{fill:#ac84f7;}.cls-7{opacity:0.5;}</style><linearGradient id="linear-gradient" x1="75.81039" y1="613.74089" x2="1315.52182" y2="-163.31578" gradientTransform="matrix(1, 0, 0, -1, 0, 972)" gradientUnits="userSpaceOnUse"><stop offset="0" stop-color="#fa97da"/><stop offset="1" stop-color="#9c81fd"/></linearGradient></defs><path class="cls-1" d="M1392.05078,922.84668c-30.28516,6.416-64.13476,4.92187-95.31055-4.208C1237.001,901.1416,1186.29,861.69824,1137.249,823.55371L1134.0166,821.04c-54.78613-42.59863-105.041-79.01563-165.332-93.21582-78.23145-18.42871-158.68652,4.85058-236.49219,27.3623q-6.74706,1.95264-13.46,3.88672c-37.44433,10.7666-81.68262,22.28125-125.88135,26.0459-47.38281,4.03418-87.63964-1.39453-123.07568-16.59766-35.71289-15.32519-66.13965-40.90332-95.56445-65.63867-16.3086-13.709-33.17237-27.88574-50.80713-40.22656C230.6651,597.75122,107.05927,584.32581,0,619.03674v1.0481c106.837-34.74573,230.255-21.39728,322.83057,43.38977,17.59863,12.31641,34.44482,26.47851,50.73681,40.17383,29.48047,24.78222,59.96485,50.4082,95.81348,65.792,35.5918,15.27148,76.00537,20.72852,123.55518,16.6748,44.28466-3.77148,88.58154-15.30078,126.07177-26.08105q6.71486-1.93066,13.46289-3.88672c77.68067-22.47461,158.00293-45.71875,235.98535-27.35058,60.09375,14.15429,110.25489,50.50683,164.94727,93.03222l3.23242,2.51367c49.11426,38.20215,99.90137,77.70508,159.82324,95.25489a204.46791,204.46791,0,0,0,57.125,8.16992,187.21625,187.21625,0,0,0,38.67481-3.94336A150.51318,150.51318,0,0,0,1440,905.16931v-1.17407A149.28313,149.28313,0,0,1,1392.05078,922.84668Z"/><circle class="cls-2" cx="391.42499" cy="717.72896" r="9.19324"/><circle class="cls-3" cx="391.427" cy="717.72778" r="7.2055" transform="translate(-392.86387 486.99829) rotate(-45)"/><circle class="cls-4" cx="391.42463" cy="717.72851" r="3.23006"/><path class="cls-5" d="M391.42538,723.44429a5.71494,5.71494,0,1,1,5.71493-5.71533A5.7212,5.7212,0,0,1,391.42538,723.44429Zm0-9.83105a4.11612,4.11612,0,1,0,4.11611,4.11572A4.12037,4.12037,0,0,0,391.42538,713.61324Zm-.00225,5.85526a1.73926,1.73926,0,1,0-1.73927-1.73926A1.73926,1.73926,0,0,0,391.42313,719.4685Z"/><circle class="cls-6" cx="1178.88" cy="855.90125" r="20.65051"/><circle class="cls-7" cx="1178.87983" cy="855.88626" r="16.18554" transform="translate(-62.99411 1617.49513) rotate(-67.49997)"/><circle class="cls-8" cx="1178.88" cy="855.89222" r="7.25562"/><path class="cls-5" d="M1178.88029,868.727a12.83692,12.83692,0,1,1,12.83691-12.83691A12.85168,12.85168,0,0,1,1178.88029,868.727Zm0-23.67383a10.83692,10.83692,0,1,0,10.83691,10.83692A10.84908,10.84908,0,0,0,1178.88029,845.05313Zm3.90651,10.84208a3.90686,3.90686,0,1,1-3.90686-3.90686A3.90684,3.90684,0,0,1,1182.7868,855.89521Z"/></svg>