<svg id="Layer_1" data-name="Layer 1" xmlns="http://www.w3.org/2000/svg" viewBox="0 0 200 200"><defs><style>.cls-1{fill-rule:evenodd;}</style></defs><path class="cls-1" d="M31.787,8.83311C44.7535-.09649,63.1599-.92355,79.8803.62842a210.82992,210.82992,0,0,1,47.4417,10.017c22.576,7.5589,43.425,17.4638,56.515,34.9276a80.10311,80.10311,0,0,1,14.638,63.71c-5.676,28.403-26.136,53.937-53.11,71.898-17.08,11.365-38.169,20.199-59.94371,18.64-17.9305-1.285-34.1078-9.434-48.2544-18.706-12.4083-8.132-24.1197-17.619-30.56735-29.626C-.72478,137.848-.57868,122.305.62394,107.395A365.59386,365.59386,0,0,1,11.5861,43.4938C14.9616,30.7024,19.6784,17.1762,31.787,8.83311Z"/></svg>