<svg id="Layer_1" data-name="Layer 1" xmlns="http://www.w3.org/2000/svg" viewBox="0 0 200 200"><defs><style>.cls-1{fill-rule:evenodd;}</style></defs><path class="cls-1" d="M23.7656,188.626C7.80438,177.77,1.68191,158.707.32556,140.764A126.93774,126.93774,0,0,1,5.73836,93.9889C13.952,67.2386,30.4928,43.1399,53.093,24.2804c2.2666-1.8927,4.409-3.9211,6.5456-5.9442C65.4348,12.8481,71.1894,7.39944,79.271,4.80609,95.5052-.40668,114.809-1.22141,131.652,1.6c21.924,3.68137,42.694,14.865,54.561,31.83863,14.907,21.3565,14.365,48.235,13.336,73.4084-.94,22.952-2.544,47.613-18.392,65.631-11.506,13.1-29.239,20.802-47.376,24.344-18.136,3.542-36.89,3.304-55.45061,3.048C59.3373,199.61,38.9081,198.927,23.7656,188.626Z"/></svg>