<svg id="Layer_1" data-name="Layer 1" xmlns="http://www.w3.org/2000/svg" viewBox="0 0 200 200"><defs><style>.cls-1{fill-rule:evenodd;}</style></defs><path class="cls-1" d="M2.24065,80.9672C4.82046,64.8321,9.36339,48.8215,17.642,34.8012,27.7288,17.7152,44.6316-.68228,65.4671.01939,91.9723.91451,118.655,10.4658,140.32,25.8599a145.48478,145.48478,0,0,1,55.81,81.1541c3.642,13.939,5.199,28.657,2.525,42.822-2.673,14.164-9.87,27.749-21.294,36.313-15.007,11.256-34.861,12.6-53.504,13.335-17.003.656-34.1222,1.17-50.9055-1.64-16.7834-2.81-33.3568-9.134-46.046-20.656S6.15073,149.452,2.528,132.55C-1.0947,115.647-.49092,98.0401,2.24065,80.9672Z"/></svg>