<svg id="Layer_1" data-name="Layer 1" xmlns="http://www.w3.org/2000/svg" viewBox="0 0 200 200"><defs><style>.cls-1{fill-rule:evenodd;}</style></defs><path class="cls-1" d="M.07977,152.263c-.48048-10.34,1.26706-20.659,3.69439-30.569A196.74465,196.74465,0,0,1,20.6587,77.067C33.7492,52.1861,51.6944,31.2452,72.5439,16.5916l.1254-.0882C82.0641,9.89931,94.3888,1.23557,105.334.20756c12.5-1.17709,27.762,2.87222,39.863,6.60083,12.83,3.95771,25.326,10.81231,34.968,21.94881,15.856,18.3047,22.469,47.1961,18.885,73.6558a113.78612,113.78612,0,0,1-33.837,66.519c-17.222,16.293-38.385,25.484-59.85,29.096-21.4655,3.613-43.3364,1.872-64.7767-2.075-11.318-2.087-23.3515-5.283-31.32038-15.479C3.44672,173.038.56026,162.603.07977,152.263Z"/></svg>