<svg id="Layer_1" data-name="Layer 1" xmlns="http://www.w3.org/2000/svg" viewBox="0 0 200 200"><defs><style>.cls-1{fill-rule:evenodd;}</style></defs><path class="cls-1" d="M168.213,8.83311C155.247-.09649,136.84-.92355,120.12.62842a210.81713,210.81713,0,0,0-47.4417,10.017C50.1021,18.2043,29.253,28.1092,16.1629,45.573a80.10031,80.10031,0,0,0-14.63741,63.71C7.20138,137.686,27.6608,163.22,54.6353,181.181c17.0801,11.365,38.169,20.199,59.9437,18.64,17.93-1.285,34.107-9.434,48.254-18.706,12.408-8.132,24.12-17.619,30.567-29.626,7.325-13.641,7.179-29.184,5.976-44.094a365.64309,365.64309,0,0,0-10.962-63.9012C185.038,30.7024,180.322,17.1762,168.213,8.83311Z"/></svg>