<svg id="Layer_1" data-name="Layer 1" xmlns="http://www.w3.org/2000/svg" viewBox="0 0 200 200"><defs><style>.cls-1{fill-rule:evenodd;}</style></defs><path class="cls-1" d="M.71725,142.981c-.91541-22.983-1.82139-46.3949,3.17406-68.5659C8.03571,56.0202,16.6761,44.5439,26.2406,31.84c2.1965-2.9173,4.4416-5.8994,6.6923-9.0449C45.6512,5.02536,60.4173,1.26763,79.2918.53983,103.137-.38333,127.548-1.203,150.222,7.82546,172.897,16.854,193.863,37.8797,198.859,66.2676c3.718,21.1866-1.97,43.7064-12.413,61.2154-10.444,17.509-25.267,30.506-40.895,40.829-29.975,19.75-63.35969,30.592-97.43039,31.641-13.0612.383-27.4467-1.353-36.5694-12.706C2.50718,175.974,1.3464,158.725.71725,142.981Z"/></svg>