<svg width="44" height="44" viewBox="0 0 44 44" fill="none" xmlns="http://www.w3.org/2000/svg">
<rect width="44" height="44" rx="8" fill="#1093F2" fill-opacity="0.1"/>
<path d="M22 13C24.3358 15.0666 27.3845 16.1426 30.5 16C30.9536 17.543 31.0924 19.1615 30.9081 20.7592C30.7239 22.3569 30.2203 23.9013 29.4274 25.3005C28.6345 26.6998 27.5684 27.9254 26.2924 28.9045C25.0165 29.8836 23.5568 30.5962 22 31C20.4432 30.5962 18.9835 29.8836 17.7075 28.9045C16.4316 27.9254 15.3655 26.6998 14.5726 25.3005C13.7797 23.9013 13.2761 22.3569 13.0919 20.7592C12.9076 19.1615 13.0464 17.543 13.5 16C16.6155 16.1426 19.6642 15.0666 22 13" stroke="#1093F2" stroke-width="2" stroke-linecap="round" stroke-linejoin="round"/>
</svg>
