<svg id="Layer_1" data-name="Layer 1" xmlns="http://www.w3.org/2000/svg" xmlns:xlink="http://www.w3.org/1999/xlink" viewBox="0 0 1440 881"><defs><style>.cls-1{fill:url(#linear-gradient);}.cls-2,.cls-3,.cls-4{fill:#7bc3ff;}.cls-2,.cls-6,.cls-9{opacity:0.1;}.cls-10,.cls-3{opacity:0.4;}.cls-5{fill:#fff;}.cls-6,.cls-7,.cls-8{fill:#8ed7ff;}.cls-7{opacity:0.5;}.cls-10,.cls-11,.cls-9{fill:#9cf0ff;}</style><linearGradient id="linear-gradient" x1="-55.47494" y1="516.66764" x2="888.37927" y2="444.29256" gradientTransform="matrix(1, 0, 0, -1, 0, 882)" gradientUnits="userSpaceOnUse"><stop offset="0" stop-color="#a7e3ff"/><stop offset="0.44359" stop-color="#80beff"/><stop offset="1" stop-color="#9befff"/></linearGradient></defs><path class="cls-1" d="M1373.458,139.89209c-41.73828,18.43848-53.75293,66.78076-59.52735,90.0127-.6289,2.52978-1.17187,4.71435-1.66211,6.47412-8.53808,30.59033-17.53027,57.46435-41.19433,76.54345-25.23633,20.34668-65.29981,29.82276-126.084,29.82276-71.80175,0-136.37011,57.94531-177.89257,106.55566-48.124,56.33887-84.30567,122.71484-95.17383,159.165a96.60152,96.60152,0,0,1-169.17774,31.48047c-5.66308-7.35449-10.60742-15.86426-15.38916-24.09375-10.89306-18.74609-22.15673-38.13086-42.53173-44.61035-25.71143-8.17383-52.09864,9.58105-66.88184,27.27246-7.65576,9.16015-14.13867,19.44336-20.40772,29.38867-7.07568,11.22266-14.3916,22.82715-23.396,32.80273-23.001,25.48438-50.27,29.26368-67.0918,21.70118-4.75146-2.13575-9.187-5.249-13.477-8.25879-6.63037-4.65235-13.48633-9.46289-21.59375-10.69239-16.72754-2.53808-30.25,10.92774-35.2876,16.83594A166.1067,166.1067,0,0,0,385.501,695.6543c-3.91211,5.82715-7.957,11.85351-12.74073,17.1084-31.34033,34.43261-88.36132,29.67871-125.3833,5.1914-38.16259-25.24023-62.03857-66.333-85.12793-106.07226-25.355-43.64258-49.415-81.64844-87.1709-104.76758A144.72726,144.72726,0,0,0,5.9082,486.76562c-1.95709-.066-3.92968-.0697-5.9082-.04547v1.00013c1.96741-.02417,3.92883-.02039,5.875.04534A143.71378,143.71378,0,0,1,74.56055,507.9707c37.55175,22.99317,61.53808,60.89063,86.82422,104.41309,23.147,39.83887,47.08252,81.03418,85.44043,106.4043a120.81574,120.81574,0,0,0,65.11865,19.65527c23.15381-.00195,45.62793-7.50781,61.55566-25.00684,4.8335-5.31054,8.89942-11.36718,12.83154-17.22558a165.66132,165.66132,0,0,1,11.11915-15.27051c4.92968-5.78027,18.146-18.95605,34.37646-16.49609,7.87549,1.19433,14.333,5.72558,21.16943,10.52246,4.32813,3.03711,8.80371,6.17773,13.64161,8.35254,23.80468,10.70214,51.42871-3.30957,68.24414-21.94336,9.062-10.03907,16.40136-21.68164,23.49951-32.93946,6.25195-9.917,12.71679-20.17187,20.32959-29.28125,14.584-17.45215,40.56982-34.98339,65.81152-26.96,20.00684,6.36231,31.17236,25.57715,41.96973,44.16016,4.79785,8.25683,9.75927,16.79492,15.46191,24.20019A97.64555,97.64555,0,0,0,872.88281,608.751c10.83789-36.34864,46.94141-102.56739,94.97461-158.80078,74.98047-87.77979,137.71192-106.20508,177.13281-106.20508,61.02442,0,101.28809-9.54688,126.71192-30.04444,23.89453-19.26464,32.94531-46.29394,41.5293-77.05322.49511-1.77344,1.03906-3.96435,1.66992-6.50146,5.73535-23.07764,17.6709-71.09864,58.96093-89.33936,18.40479-8.13116,40.52552-9.22919,66.1377-3.33832v-1.02356C1414.2644,130.562,1392.00977,131.69714,1373.458,139.89209Z"/><circle class="cls-2" cx="203.5" cy="677.5" r="11.5"/><circle class="cls-3" cx="203.50252" cy="677.49852" r="9.0135" transform="translate(-419.45929 342.33273) rotate(-45)"/><circle class="cls-4" cx="203.49956" cy="677.49944" r="4.04054"/><path class="cls-5" d="M203.50049,684.64941A7.14893,7.14893,0,1,1,210.64941,677.5,7.15675,7.15675,0,0,1,203.50049,684.64941Zm0-12.29785A5.14893,5.14893,0,1,0,208.64941,677.5,5.15426,5.15426,0,0,0,203.50049,672.35156Zm-.00282,7.32447a2.17568,2.17568,0,1,0-2.17568-2.17568A2.17568,2.17568,0,0,0,203.49767,679.676Z"/><circle class="cls-6" cx="629.71268" cy="570.04515" r="16.49002"/><circle class="cls-7" cx="629.71629" cy="570.04302" r="12.92458" transform="translate(-218.64166 612.23839) rotate(-45)"/><circle class="cls-8" cx="629.71204" cy="570.04434" r="5.79379"/><path class="cls-5" d="M629.71338,580.29679a10.25095,10.25095,0,1,1,10.25094-10.25164A10.26218,10.26218,0,0,1,629.71338,580.29679Zm0-17.63406a7.38312,7.38312,0,1,0,7.38311,7.38242A7.39076,7.39076,0,0,0,629.71338,562.66273Zm-.004,10.50265a3.11974,3.11974,0,1,0-3.11974-3.11974A3.11974,3.11974,0,0,0,629.70934,573.16538Z"/><circle class="cls-9" cx="1393.39446" cy="134.67741" r="12"/><circle class="cls-10" cx="1393.39709" cy="134.67586" r="9.40539" transform="translate(312.88634 1024.72618) rotate(-45)"/><circle class="cls-11" cx="1393.394" cy="134.67682" r="4.21622"/><path class="cls-5" d="M1393.395,142.13767a7.45975,7.45975,0,1,1,7.45975-7.46026A7.46792,7.46792,0,0,1,1393.395,142.13767Zm0-12.83254a5.37279,5.37279,0,1,0,5.3728,5.37228A5.37835,5.37835,0,0,0,1393.395,129.30513Zm-.00294,7.64291a2.27027,2.27027,0,1,0-2.27027-2.27027A2.27027,2.27027,0,0,0,1393.392,136.948Z"/></svg>