<svg id="Layer_1" data-name="Layer 1" xmlns="http://www.w3.org/2000/svg" xmlns:xlink="http://www.w3.org/1999/xlink" viewBox="0 0 1440.05938 1008"><defs><style>.cls-1{fill:#bba7df;}.cls-2{fill:url(#linear-gradient);}</style><linearGradient id="linear-gradient" x1="1338.00969" y1="745.13813" x2="941.75167" y2="161.48017" gradientTransform="matrix(1, 0, 0, -1, 0, 1028)" gradientUnits="userSpaceOnUse"><stop offset="0" stop-color="#5865f2"/><stop offset="1" stop-color="#673ab7"/></linearGradient></defs><path class="cls-1" d="M1131.30005,114.268C1052.01,157.118,1049.32,217.61,1048,285c-.00647.33154-.02026.66162-.02869.99274q-.2232,3.88411-.37658,7.80615C1043.03931,357.558,1003.2171,413.75616,959.229,457.642,913.23,503.536,853.481,539.819,790,554.5c-1.86407.43066-3.73511.82916-5.60919,1.21313q-5.50187,1.01139-11.0044,2.02167c-35.01983,5.7583-71.13092,6.08832-103.54144,20.56421-37.568,16.655-71.16894,51.693-69.805,92.652,1.24,37.505,31.617,68.718,65.961,84.139,34.344,15.298,72.78,18.506,109.976,24.304,37.32,5.922,75.756,15.421,103.777,40.589,30.252,27.142,45.998,70.56806,82.698,88.211,35.832,17.148,78.978,3.084,112.828-17.766,58.52-36.271,105.39-92.528,170.73-114.242,64.502-21.39306,135.88843-3.85253,193.99,32.88178V126.40942C1310.6825,83.33575,1190.344,82.36237,1131.30005,114.268Z"/><path class="cls-2" d="M1131.5,146.5c-65.96716,35.66895-80.37793,84.64337-83.52869,139.49274q-.09978,3.92128-.37658,7.80615-.21882,5.56485-.32471,11.20111c-1.23,62.5-32.64,117.394-75.278,159.958-42.639,42.563-98.496,71.054-157.34,84.669-9.99268,2.31006-20.11865,4.22168-30.26117,6.08612q-5.47879,1.12263-11.0044,2.02167c-23.86169,4.41455-47.58258,9.2666-69.64343,19.12421-34.824,15.447-65.97,47.942-64.706,85.929,1.15,34.783,29.308,63.731,61.144,78.033,31.835,14.188,67.464,17.163,101.943,22.541,34.595,5.492,70.223,14.302,96.198,37.644,28.043,25.172,42.639,65.447,76.659,81.809,33.219,15.904,73.20892,2.861,104.58893-16.476,54.25-33.639,97.69006-85.814,158.26-105.952,68.35217-22.68457,145.07165,1.82581,202.17,46.184V165.63342C1311.80823,118.041,1189.614,115.07806,1131.5,146.5Z"/></svg>