<svg id="Layer_1" data-name="Layer 1" xmlns="http://www.w3.org/2000/svg" xmlns:xlink="http://www.w3.org/1999/xlink" viewBox="0 0 1440 1008"><defs><style>.cls-1{fill:url(#linear-gradient);}.cls-2{fill:url(#linear-gradient-2);}.cls-3,.cls-4,.cls-5{fill:#ff99d9;}.cls-10,.cls-13,.cls-16,.cls-19,.cls-3,.cls-7{opacity:0.15;}.cls-11,.cls-14,.cls-17,.cls-20,.cls-4,.cls-8{opacity:0.5;}.cls-6{fill:#fff;}.cls-7,.cls-8,.cls-9{fill:#46abf7;}.cls-10,.cls-11,.cls-12{fill:#bf8af1;}.cls-13,.cls-14,.cls-15{fill:#b286f6;}.cls-16,.cls-17,.cls-18{fill:#3eaeff;}.cls-19,.cls-20,.cls-21{fill:#9cd0ff;}</style><linearGradient id="linear-gradient" x1="27.30342" y1="744.46867" x2="823.11493" y2="268.95282" gradientTransform="matrix(1, 0, 0, -1, 0, 980)" gradientUnits="userSpaceOnUse"><stop offset="0" stop-color="#1093f2"/><stop offset="0.57292" stop-color="#a7d5ff"/><stop offset="1" stop-color="#3eaeff"/></linearGradient><linearGradient id="linear-gradient-2" x1="307.35742" y1="810.22046" x2="1595.48299" y2="585.97551" gradientTransform="matrix(1, 0, 0, -1, 0, 980)" gradientUnits="userSpaceOnUse"><stop offset="0" stop-color="#ff98d8"/><stop offset="0.40625" stop-color="#9880ff"/><stop offset="0.60417" stop-color="#9880ff"/><stop offset="1" stop-color="#ff98d8"/></linearGradient></defs><path class="cls-1" d="M1432.63672,571.04688a281.701,281.701,0,0,0-97.48145-60.7002c-87.58007-31.94775-177.752-15.26758-228.35742,8.72168-40.97461,19.42578-77.77734,50.27246-106.42969,89.20605-28.63867,38.91309-47.76367,84.03907-55.30957,130.499-1.88671,11.48828-2.65136,19.63379-3.32617,26.82129-1.44043,15.334-2.57812,27.44629-13.42773,61.6914a103.94515,103.94515,0,0,1-43.2461,56.81055,109.12511,109.12511,0,0,1-65.36621,16.97949c-25.80273-1.61914-65.748-15.415-109.51562-71.94433-11.123-14.40137-20.03418-27.31153-27.89649-38.70215-15.08593-21.85449-25.98535-37.64453-40.94287-47.543-56.76123-37.56348-106.01025-5.47949-153.63769,25.55078-5.82276,3.79395-11.84375,7.71582-17.76953,11.43848q-4.33155,2.71875-8.55372,5.42382c-38.65625,24.63672-72.042,45.91309-148.30468,24.1504-38.9336-11.11231-66.23242-5.60938-92.63379-.29-29.21631,5.88769-56.813,11.44824-97.16162-6.543-44.1211-19.6709-59.36182-45.9375-77.00928-76.35059C34.41992,705.84888,22.20563,684.80273,0,663.17249v1.40472c21.66663,21.29938,33.71674,42.05231,45.40234,62.19134,17.73438,30.56348,33.0503,56.959,77.4668,76.7627,40.64209,18.12012,68.38867,12.53027,97.7666,6.60937,26.28418-5.29687,53.46338-10.77246,92.16162.27051,22.41748,6.39746,41.1416,9.09766,57.39844,9.09668,39.36035-.00195,64.21631-15.83789,91.71826-33.36523q4.22827-2.69385,8.54785-5.41895c5.93311-3.72754,11.95752-7.65234,17.7837-11.44824,23.67089-15.42187,48.14746-31.36914,73.27-38.49023,28.13624-7.97754,54.06495-3.74414,79.27,12.93554,14.79639,9.792,25.64991,25.51563,40.67139,47.27735,7.86914,11.40039,16.78809,24.32226,27.92871,38.74511,43.99707,56.8252,84.23535,70.69922,110.24414,72.33106q3.3545.21093,6.71289.21a110.22679,110.22679,0,0,0,59.25586-17.34668,104.9283,104.9283,0,0,0,43.65918-57.34863c10.88281-34.34766,12.02442-46.50684,13.46973-61.90137.67383-7.1709,1.43652-15.29785,3.31738-26.75293,7.52149-46.30469,26.584-91.28125,55.12793-130.06738,28.55567-38.80078,65.22754-69.54,106.05274-88.89453,50.43261-23.90723,140.29882-40.52686,227.58691-8.68653Q1394.30457,532.988,1440,579.57648v-1.291C1437.57129,575.82617,1435.12354,573.40106,1432.63672,571.04688Z"/><path class="cls-2" d="M59.61768,20.38477c45.33837,47.00585,107.43164,111.38281,176.53808,125.04834,27.44434,5.42968,57.04834.18164,88.3916-5.37207,44.5293-7.89063,94.99854-16.833,150.53076,3.38183,63.82959,23.23438,124.34327,81.40137,184.999,177.82324,39.74512,63.18409,89.12207,96.80518,146.75879,99.9292q4.5044.2439,9.05859.24365c43.89844,0,91.27539-16.99462,140.98145-50.59863,38.2539-25.86181,77.88574-62.5083,106.01562-98.02978,51.9541-65.606,105.53711-99.23584,163.81152-102.81153,65.53174-4.02765,137.24622,30.71222,213.29688,103.25312v-1.3794c-76.00476-72.29321-147.73218-106.90063-213.3584-102.87176-58.57422,3.59375-112.39355,37.34716-164.5332,103.18847-28.07031,35.4458-67.61914,72.01514-105.792,97.82227-52.96,35.80371-103.23926,52.689-149.42579,50.18506-57.29394-3.10547-106.40527-36.56934-145.96777-99.46289-60.77783-96.61768-121.45654-154.91748-185.50293-178.231-55.78418-20.30615-106.39551-11.33936-151.04687-3.42676-31.249,5.5376-60.76416,10.76758-88.02295,5.376C167.55127,130.84766,105.584,66.60107,60.3374,19.69043,53.50934,12.61115,47.09686,5.964,41.14117,0H39.72833C45.87225,6.13519,52.51886,13.02466,59.61768,20.38477Z"/><circle class="cls-3" cx="291.02599" cy="144.83825" r="8.97401"/><circle class="cls-4" cx="291.02795" cy="144.83709" r="7.03367" transform="translate(-17.17518 248.20964) rotate(-45)"/><circle class="cls-5" cx="291.02564" cy="144.83781" r="3.15303"/><path class="cls-6" d="M291.02637,150.41729a5.57866,5.57866,0,1,1,5.57865-5.579A5.58477,5.58477,0,0,1,291.02637,150.41729Zm0-9.59662a4.018,4.018,0,1,0,4.018,4.01758A4.02212,4.02212,0,0,0,291.02637,140.82067Zm-.0022,5.71564a1.69779,1.69779,0,1,0-1.69779-1.69779A1.69779,1.69779,0,0,0,291.02417,146.53631Z"/><circle class="cls-7" cx="642.03111" cy="745.14482" r="14.03111"/><circle class="cls-8" cx="642.03418" cy="745.14301" r="10.99733" transform="translate(-338.84822 672.23406) rotate(-45)"/><circle class="cls-9" cx="642.03056" cy="745.14413" r="4.92985"/><path class="cls-6" d="M642.0317,753.86779a8.72238,8.72238,0,1,1,8.72238-8.723A8.73193,8.73193,0,0,1,642.0317,753.86779Zm0-15.00456a6.28219,6.28219,0,1,0,6.28219,6.28159A6.28869,6.28869,0,0,0,642.0317,738.86323Zm-.00344,8.93655a2.65454,2.65454,0,1,0-2.65453-2.65454A2.65454,2.65454,0,0,0,642.02826,747.79978Z"/><circle class="cls-10" cx="624.99466" cy="268.99423" r="17.99466"/><circle class="cls-11" cx="624.9986" cy="268.99192" r="14.1039" transform="translate(-7.14816 520.72666) rotate(-45)"/><circle class="cls-12" cx="624.99397" cy="268.99335" r="6.32245"/><path class="cls-6" d="M624.99543,280.1813a11.18631,11.18631,0,1,1,11.1863-11.18707A11.19855,11.19855,0,0,1,624.99543,280.1813Zm0-19.2431a8.0568,8.0568,0,1,0,8.05679,8.056A8.06514,8.06514,0,0,0,624.99543,260.9382Zm-.00441,11.461a3.4044,3.4044,0,1,0-3.40441-3.4044A3.4044,3.4044,0,0,0,624.991,272.39917Z"/><circle class="cls-13" cx="1246.13287" cy="169.9337" r="28.13287"/><circle class="cls-14" cx="1246.13263" cy="169.91328" r="22.05009" transform="translate(612.27841 1256.16642) rotate(-67.49997)"/><circle class="cls-15" cx="1246.13287" cy="169.92139" r="9.88456"/><path class="cls-6" d="M1246.13325,187.40658a17.48815,17.48815,0,1,1,17.48815-17.48815A17.50826,17.50826,0,0,1,1246.13325,187.40658Zm0-32.25163a14.76349,14.76349,0,1,0,14.76349,14.76348A14.78,14.78,0,0,0,1246.13325,155.155Zm5.322,14.77051a5.32245,5.32245,0,1,1-5.32244-5.32244A5.32242,5.32242,0,0,1,1251.45523,169.92546Z"/><circle class="cls-16" cx="938.14216" cy="791.99944" r="24.02484"/><circle class="cls-17" cx="938.14195" cy="791.982" r="18.83028" transform="translate(-152.56565 1355.63325) rotate(-67.49997)"/><circle class="cls-18" cx="938.14216" cy="791.98893" r="8.44119"/><path class="cls-6" d="M938.14249,806.92089A14.93449,14.93449,0,1,1,953.077,791.9864,14.95167,14.95167,0,0,1,938.14249,806.92089Zm0-27.54217a12.60769,12.60769,0,1,0,12.60768,12.60768A12.62182,12.62182,0,0,0,938.14249,779.37872Zm4.54485,12.61369a4.54525,4.54525,0,1,1-4.54525-4.54525A4.54522,4.54522,0,0,1,942.68734,791.99241Z"/><circle class="cls-19" cx="258.0329" cy="804.22782" r="22.0329"/><circle class="cls-20" cx="258.03272" cy="804.21183" r="17.26904" transform="translate(-583.70694 734.84404) rotate(-67.49997)"/><circle class="cls-21" cx="258.0329" cy="804.21818" r="7.74132"/><path class="cls-6" d="M258.0332,817.91211a13.69625,13.69625,0,1,1,13.69625-13.69625A13.712,13.712,0,0,1,258.0332,817.91211Zm0-25.25861a11.56236,11.56236,0,1,0,11.56237,11.56236A11.57534,11.57534,0,0,0,258.0332,792.6535Zm4.168,11.56787a4.1684,4.1684,0,1,1-4.16839-4.16839A4.16836,4.16836,0,0,1,262.20123,804.22137Z"/></svg>