<svg id="Layer_1" data-name="Layer 1" xmlns="http://www.w3.org/2000/svg" xmlns:xlink="http://www.w3.org/1999/xlink" viewBox="0 0 1440 1008"><defs><style>.cls-1{fill:url(#linear-gradient);}.cls-2{fill:url(#linear-gradient-2);}.cls-3,.cls-4,.cls-5{fill:#ff99d9;}.cls-10,.cls-13,.cls-16,.cls-19,.cls-3,.cls-7{opacity:0.15;}.cls-11,.cls-14,.cls-17,.cls-20,.cls-4,.cls-8{opacity:0.5;}.cls-6{fill:#fff;}.cls-7,.cls-8,.cls-9{fill:#46abf7;}.cls-10,.cls-11,.cls-12{fill:#bf8af1;}.cls-13,.cls-14,.cls-15{fill:#b286f6;}.cls-16,.cls-17,.cls-18{fill:#3eaeff;}.cls-19,.cls-20,.cls-21{fill:#9cd0ff;}</style><linearGradient id="linear-gradient" x1="26.52169" y1="743.90619" x2="822.33343" y2="268.39022" gradientTransform="matrix(1, 0, 0, -1, 0, 980)" gradientUnits="userSpaceOnUse"><stop offset="0" stop-color="#1093f2"/><stop offset="0.57292" stop-color="#a7d5ff"/><stop offset="1" stop-color="#3eaeff"/></linearGradient><linearGradient id="linear-gradient-2" x1="307.35742" y1="810.22046" x2="1595.48299" y2="585.97551" gradientTransform="matrix(1, 0, 0, -1, 0, 980)" gradientUnits="userSpaceOnUse"><stop offset="0" stop-color="#ff98d8"/><stop offset="0.40625" stop-color="#9880ff"/><stop offset="0.60417" stop-color="#9880ff"/><stop offset="1" stop-color="#ff98d8"/></linearGradient></defs><path class="cls-1" d="M1431.85547,571.60938a281.69427,281.69427,0,0,0-97.48047-60.69922c-87.58008-31.94776-177.752-15.26856-228.3584,8.7207-40.97461,19.42578-77.77734,50.27246-106.43066,89.20605-28.6377,38.91309-47.76367,84.03907-55.30957,130.499-1.79,10.90234-3.01856,22.12988-4.20606,32.9873-2.70312,24.70508-5.498,50.252-15.10254,73.35156-16.41406,39.33106-52.98339,68.75782-93.16406,74.96778-40.25,6.21972-82.68555-10.99024-108.11914-43.8418-12.76465-16.52637-21.37012-36.41992-29.69238-55.6582-12.61914-29.17188-25.667-59.33692-53.436-77.69336C583.79346,705.88477,534.54541,737.96973,486.919,769c-5.82325,3.793-11.84424,7.71582-17.77051,11.43848q-4.33155,2.71875-8.55371,5.42382C421.938,810.499,388.55225,831.77441,312.29,810.0127c-38.93262-11.11036-66.23193-5.6084-92.63281-.29-29.21534,5.88769-56.81153,11.44922-97.1626-6.543-44.12109-19.6709-59.36182-45.93653-77.00928-76.35059C33.77905,706.65424,21.708,685.86536,0,664.50616V665.911c21.17664,21.0293,33.07568,41.52417,44.62061,61.42C62.355,757.89453,77.6709,784.29,122.0874,804.09375c40.64307,18.12109,68.3916,12.53027,97.76709,6.60937,26.28369-5.29589,53.46143-10.77246,92.16113.27051,22.41749,6.39746,41.14161,9.09766,57.39844,9.09668,39.36035-.00195,64.21631-15.83789,91.71826-33.36523q4.22827-2.69532,8.54786-5.41992c5.93359-3.72657,11.958-7.65235,17.78466-11.44825,23.67041-15.42089,48.147-31.36816,73.27-38.48925,28.13428-7.97657,54.06543-3.74414,79.26953,12.93554,27.521,18.19239,40.50928,48.21875,53.06983,77.25586,8.34668,19.2959,16.97754,39.24805,29.81933,55.874a118.27619,118.27619,0,0,0,92.44727,45.48632,108.85438,108.85438,0,0,0,16.61523-1.26855c40.51758-6.26172,77.38965-35.92578,93.93555-75.57129,9.65918-23.2334,12.46192-48.85156,15.17285-73.62695,1.18653-10.84473,2.41309-22.0586,4.19825-32.93555,7.52148-46.30469,26.585-91.28125,55.1289-130.06738,28.55469-38.80078,65.22754-69.54,106.05274-88.89453,50.43359-23.90821,140.30078-40.52881,227.58789-8.68555Q1394.0348,533.73776,1440,580.94012v-1.28887C1437.31653,576.91425,1434.61047,574.21741,1431.85547,571.60938Z"/><path class="cls-2" d="M59.61768,20.38477c45.33837,47.00585,107.43164,111.38281,176.53808,125.04834,27.44434,5.42968,57.04834.18164,88.3916-5.37207,44.5293-7.89063,94.99854-16.833,150.53076,3.38183,63.82959,23.23438,124.34327,81.40137,184.999,177.82324,39.74512,63.18409,89.12207,96.80518,146.75879,99.9292q4.5044.2439,9.05859.24365c43.89844,0,91.27539-16.99462,140.98145-50.59863,38.2539-25.86181,77.88574-62.5083,106.01562-98.02978,51.9541-65.606,105.53711-99.23584,163.81152-102.81153,65.53174-4.02765,137.24622,30.71222,213.29688,103.25312v-1.3794c-76.00476-72.29321-147.73218-106.90063-213.3584-102.87176-58.57422,3.59375-112.39355,37.34716-164.5332,103.18847-28.07031,35.4458-67.61914,72.01514-105.792,97.82227-52.96,35.80371-103.23926,52.689-149.42579,50.18506-57.29394-3.10547-106.40527-36.56934-145.96777-99.46289-60.77783-96.61768-121.45654-154.91748-185.50293-178.231-55.78418-20.30615-106.39551-11.33936-151.04687-3.42676-31.249,5.5376-60.76416,10.76758-88.02295,5.376C167.55127,130.84766,105.584,66.60107,60.3374,19.69043,53.50934,12.61115,47.09686,5.964,41.14117,0H39.72833C45.87225,6.13519,52.51886,13.02466,59.61768,20.38477Z"/><circle class="cls-3" cx="291.02599" cy="144.83825" r="8.97401"/><circle class="cls-4" cx="291.02795" cy="144.83709" r="7.03367" transform="translate(-17.17518 248.20964) rotate(-45)"/><circle class="cls-5" cx="291.02564" cy="144.83781" r="3.15303"/><path class="cls-6" d="M291.02637,150.41729a5.57866,5.57866,0,1,1,5.57865-5.579A5.58477,5.58477,0,0,1,291.02637,150.41729Zm0-9.59662a4.018,4.018,0,1,0,4.018,4.01758A4.02212,4.02212,0,0,0,291.02637,140.82067Zm-.0022,5.71564a1.69779,1.69779,0,1,0-1.69779-1.69779A1.69779,1.69779,0,0,0,291.02417,146.53631Z"/><circle class="cls-7" cx="642.03111" cy="745.14482" r="14.03111"/><circle class="cls-8" cx="642.03418" cy="745.14301" r="10.99733" transform="translate(-338.84822 672.23406) rotate(-45)"/><circle class="cls-9" cx="642.03056" cy="745.14413" r="4.92985"/><path class="cls-6" d="M642.0317,753.86779a8.72238,8.72238,0,1,1,8.72238-8.723A8.73193,8.73193,0,0,1,642.0317,753.86779Zm0-15.00456a6.28219,6.28219,0,1,0,6.28219,6.28159A6.28869,6.28869,0,0,0,642.0317,738.86323Zm-.00344,8.93655a2.65454,2.65454,0,1,0-2.65453-2.65454A2.65454,2.65454,0,0,0,642.02826,747.79978Z"/><circle class="cls-10" cx="624.99466" cy="268.99423" r="17.99466"/><circle class="cls-11" cx="624.9986" cy="268.99192" r="14.1039" transform="translate(-7.14816 520.72666) rotate(-45)"/><circle class="cls-12" cx="624.99397" cy="268.99335" r="6.32245"/><path class="cls-6" d="M624.99543,280.1813a11.18631,11.18631,0,1,1,11.1863-11.18707A11.19855,11.19855,0,0,1,624.99543,280.1813Zm0-19.2431a8.0568,8.0568,0,1,0,8.05679,8.056A8.06514,8.06514,0,0,0,624.99543,260.9382Zm-.00441,11.461a3.4044,3.4044,0,1,0-3.40441-3.4044A3.4044,3.4044,0,0,0,624.991,272.39917Z"/><circle class="cls-13" cx="1246.13287" cy="169.9337" r="28.13287"/><circle class="cls-14" cx="1246.13263" cy="169.91328" r="22.05009" transform="translate(612.27841 1256.16642) rotate(-67.49997)"/><circle class="cls-15" cx="1246.13287" cy="169.92139" r="9.88456"/><path class="cls-6" d="M1246.13325,187.40658a17.48815,17.48815,0,1,1,17.48815-17.48815A17.50826,17.50826,0,0,1,1246.13325,187.40658Zm0-32.25163a14.76349,14.76349,0,1,0,14.76349,14.76348A14.78,14.78,0,0,0,1246.13325,155.155Zm5.322,14.77051a5.32245,5.32245,0,1,1-5.32244-5.32244A5.32242,5.32242,0,0,1,1251.45523,169.92546Z"/><circle class="cls-16" cx="938.14216" cy="791.99944" r="24.02484"/><circle class="cls-17" cx="938.14195" cy="791.982" r="18.83028" transform="translate(-152.56565 1355.63325) rotate(-67.49997)"/><circle class="cls-18" cx="938.14216" cy="791.98893" r="8.44119"/><path class="cls-6" d="M938.14249,806.92089A14.93449,14.93449,0,1,1,953.077,791.9864,14.95167,14.95167,0,0,1,938.14249,806.92089Zm0-27.54217a12.60769,12.60769,0,1,0,12.60768,12.60768A12.62182,12.62182,0,0,0,938.14249,779.37872Zm4.54485,12.61369a4.54525,4.54525,0,1,1-4.54525-4.54525A4.54522,4.54522,0,0,1,942.68734,791.99241Z"/><circle class="cls-19" cx="258.0329" cy="804.22782" r="22.0329"/><circle class="cls-20" cx="258.03272" cy="804.21183" r="17.26904" transform="translate(-583.70694 734.84404) rotate(-67.49997)"/><circle class="cls-21" cx="258.0329" cy="804.21818" r="7.74132"/><path class="cls-6" d="M258.0332,817.91211a13.69625,13.69625,0,1,1,13.69625-13.69625A13.712,13.712,0,0,1,258.0332,817.91211Zm0-25.25861a11.56236,11.56236,0,1,0,11.56237,11.56236A11.57534,11.57534,0,0,0,258.0332,792.6535Zm4.168,11.56787a4.1684,4.1684,0,1,1-4.16839-4.16839A4.16836,4.16836,0,0,1,262.20123,804.22137Z"/></svg>