<svg width="109" height="26" viewBox="0 0 109 26" fill="none" xmlns="http://www.w3.org/2000/svg">
<path d="M20.1032 1.1701C19.7275 0.794203 19.218 0.583021 18.6868 0.583008C18.1555 0.582995 17.646 0.794152 17.2703 1.17003C16.8947 1.5459 16.6836 2.05571 16.6836 2.58729C16.6836 3.11887 16.8946 3.62868 17.2703 4.00458L22.3008 9.03838C22.4867 9.22506 22.7075 9.37324 22.9507 9.47444C23.1938 9.57563 23.4546 9.62785 23.7179 9.6281C23.9813 9.62836 24.2421 9.57665 24.4855 9.47593C24.7288 9.37521 24.9499 9.22746 25.1362 9.04114C25.3224 8.85481 25.4701 8.63357 25.5708 8.39007C25.6715 8.14657 25.7232 7.8856 25.7229 7.62208C25.7227 7.35856 25.6706 7.09768 25.5694 6.85436C25.4683 6.61103 25.3203 6.39005 25.1337 6.20405L20.1032 1.1701Z" fill="white"/>
<path d="M5.2466 2.46997C5.06075 2.2832 4.83991 2.13495 4.59673 2.03369C4.35354 1.93244 4.09278 1.88017 3.82938 1.87988C3.56598 1.8796 3.3051 1.9313 3.0617 2.03203C2.81829 2.13276 2.59713 2.28053 2.41088 2.4669C2.22463 2.65326 2.07694 2.87455 1.97627 3.11811C1.8756 3.36166 1.82393 3.62268 1.82422 3.88624C1.82451 4.1498 1.87674 4.41072 1.97794 4.65405C2.07913 4.89738 2.2273 5.11835 2.41396 5.30431L20.4943 23.3954C20.8699 23.7713 21.3794 23.9825 21.9107 23.9825C22.442 23.9825 22.9515 23.7713 23.3271 23.3955C23.7028 23.0196 23.9139 22.5098 23.9139 21.9782C23.9139 21.4466 23.7029 20.9368 23.3272 20.5609L5.2466 2.46997Z" fill="white"/>
<path d="M11.4404 0.588366C11.2545 0.401964 11.0336 0.254058 10.7905 0.153102C10.5474 0.0521468 10.2868 0.000121408 10.0236 2.12239e-07C9.76041 -0.000120984 9.49976 0.0516644 9.25657 0.152396C9.01337 0.253128 8.7924 0.400831 8.60629 0.587061C8.42018 0.773291 8.27258 0.994398 8.17192 1.23774C8.07126 1.48108 8.01952 1.74189 8.01965 2.00525C8.01979 2.26862 8.0718 2.52937 8.1727 2.77261C8.27361 3.01585 8.42144 3.23681 8.60774 3.42285L22.5538 17.377C22.7397 17.5637 22.9605 17.7119 23.2037 17.813C23.4468 17.9142 23.7076 17.9664 23.9709 17.9666C24.2343 17.9669 24.4951 17.9151 24.7384 17.8144C24.9818 17.7137 25.2029 17.5659 25.3891 17.3796C25.5753 17.1932 25.723 16.972 25.8236 16.7285C25.9243 16.485 25.976 16.224 25.9757 15.9605C25.9755 15.697 25.9233 15.4361 25.8222 15.1928C25.7211 14.9495 25.573 14.7285 25.3864 14.5426L11.4404 0.588366Z" fill="white"/>
<path d="M3.41728 8.71661C3.04142 8.34173 2.53224 8.13141 2.00154 8.13184C1.47085 8.13226 0.962006 8.34338 0.586738 8.71886C0.211469 9.09433 0.000446892 9.60347 7.08984e-07 10.1345C-0.000445474 10.6655 0.209721 11.175 0.584358 11.5511L14.3356 25.3103C14.7113 25.6862 15.2208 25.8974 15.7521 25.8974C16.0151 25.8974 16.2756 25.8455 16.5186 25.7448C16.7617 25.6441 16.9825 25.4965 17.1685 25.3104C17.3545 25.1242 17.5021 24.9033 17.6027 24.6601C17.7034 24.4169 17.7552 24.1563 17.7552 23.8931C17.7553 23.6299 17.7034 23.3692 17.6028 23.1261C17.5021 22.8829 17.3546 22.6619 17.1686 22.4758L3.41728 8.71661Z" fill="white"/>
<path d="M3.95477 17.3303C3.57912 16.9544 3.06961 16.7432 2.53835 16.7432C2.00708 16.7432 1.49757 16.9543 1.1219 17.3302C0.746228 17.7061 0.53517 18.2159 0.535156 18.7474C0.535142 19.279 0.746174 19.7888 1.12183 20.1647L6.15235 25.1985C6.33835 25.3847 6.55916 25.5323 6.80218 25.633C7.0452 25.7338 7.30567 25.7856 7.56872 25.7856C7.83177 25.7857 8.09225 25.7338 8.33528 25.6331C8.57831 25.5324 8.79913 25.3848 8.98515 25.1987C9.17116 25.0126 9.31872 24.7916 9.41939 24.5485C9.52007 24.3053 9.57189 24.0447 9.57191 23.7815C9.57192 23.5183 9.52012 23.2576 9.41947 23.0144C9.31881 22.7713 9.17128 22.5503 8.98528 22.3642L3.95477 17.3303Z" fill="white"/>
<path d="M40.9237 19.2614C40.7092 19.2773 40.4964 19.2146 40.3247 19.085C40.1531 18.9554 40.0345 18.7677 39.9909 18.557L39.3398 16.2502H34.3065L33.6554 18.557C33.6114 18.7658 33.4939 18.9519 33.3243 19.0812C33.1546 19.2105 32.9442 19.2745 32.7314 19.2614H31.7986C31.6809 19.2729 31.5622 19.2556 31.4526 19.2112C31.343 19.1667 31.2459 19.0963 31.1694 19.006C31.1052 18.9065 31.0657 18.793 31.0543 18.6751C31.0428 18.5571 31.0597 18.4382 31.1035 18.3281L33.497 10.3599C33.8195 9.25047 34.2302 8.47566 34.7289 8.03543C35.2274 7.59519 35.9284 7.37505 36.8319 7.375C37.7411 7.375 38.4466 7.5966 38.9483 8.03979C39.4497 8.48314 39.856 9.25649 40.1669 10.3599L42.5516 18.3281C42.5954 18.4382 42.6122 18.5572 42.6007 18.6751C42.5892 18.793 42.5498 18.9064 42.4856 19.006C42.4091 19.0962 42.312 19.1666 42.2024 19.2111C42.0928 19.2556 41.9741 19.2728 41.8564 19.2614L40.9237 19.2614ZM34.9049 14.1282H38.7502L37.7559 10.58C37.694 10.2847 37.5678 10.0066 37.3863 9.76549C37.235 9.62676 37.0372 9.54981 36.832 9.54981C36.6267 9.54981 36.4289 9.62676 36.2776 9.76549C36.0948 10.0069 35.9658 10.2846 35.8991 10.58L34.9049 14.1282Z" fill="white"/>
<path d="M45.5337 9.24113C45.3451 9.25495 45.1558 9.23007 44.9772 9.16801C44.7987 9.10594 44.6347 9.00801 44.4953 8.88021C44.3723 8.74247 44.2778 8.58164 44.2174 8.40706C44.157 8.23248 44.1318 8.04763 44.1434 7.86324C44.1324 7.67723 44.1583 7.49088 44.2194 7.31488C44.2806 7.13887 44.3758 6.97666 44.4997 6.83754C44.6373 6.70792 44.8001 6.60815 44.9781 6.54452C45.156 6.48088 45.3452 6.45474 45.5337 6.46774C45.7239 6.4535 45.9151 6.4786 46.0953 6.54147C46.2754 6.60434 46.4407 6.70363 46.5809 6.83317C46.8304 7.1178 46.9569 7.48978 46.9328 7.8676C46.9449 8.05203 46.9199 8.23701 46.8595 8.41166C46.7991 8.5863 46.7043 8.74709 46.5809 8.88458C46.4393 9.01155 46.2736 9.10859 46.0937 9.16986C45.9137 9.23113 45.7232 9.25537 45.5337 9.24113V9.24113ZM45.085 19.261C44.9734 19.273 44.8605 19.2599 44.7547 19.2226C44.6489 19.1853 44.5527 19.1247 44.4734 19.0453C44.394 18.9659 44.3335 18.8697 44.2962 18.7638C44.2589 18.6579 44.2458 18.545 44.2578 18.4333V11.2311C44.2509 11.1192 44.2665 11.0071 44.3035 10.9012C44.3405 10.7954 44.3983 10.698 44.4734 10.6148C44.5548 10.5382 44.6512 10.4791 44.7564 10.4413C44.8616 10.4034 44.9734 10.3875 45.085 10.3946H45.9825C46.0941 10.3875 46.2059 10.4034 46.311 10.4413C46.4162 10.4791 46.5125 10.5382 46.5939 10.6148C46.6691 10.698 46.7268 10.7954 46.7639 10.9012C46.8009 11.007 46.8165 11.1192 46.8096 11.2311V18.4333C46.8217 18.545 46.8086 18.6579 46.7712 18.7638C46.7339 18.8696 46.6734 18.9658 46.594 19.0452C46.5147 19.1246 46.4186 19.1852 46.3127 19.2225C46.2069 19.2599 46.0941 19.273 45.9825 19.261H45.085Z" fill="white"/>
<path d="M59.0078 10.2363C60.2866 10.2363 61.2722 10.5592 61.9644 11.2048C62.6566 11.8506 63.0027 12.8954 63.0028 14.3393V18.4335C63.0148 18.5452 63.0017 18.6581 62.9644 18.764C62.9271 18.8699 62.8666 18.9661 62.7872 19.0455C62.7079 19.1249 62.6117 19.1855 62.5059 19.2228C62.4001 19.2601 62.2872 19.2732 62.1756 19.2612H61.3748C61.2632 19.2732 61.1504 19.2601 61.0445 19.2228C60.9387 19.1855 60.8426 19.1249 60.7632 19.0455C60.6839 18.9661 60.6233 18.8699 60.586 18.764C60.5487 18.6581 60.5356 18.5452 60.5477 18.4335V14.216C60.5477 13.5704 60.4054 13.0979 60.1209 12.7986C59.8362 12.4992 59.3977 12.3495 58.8054 12.3494C58.2187 12.3494 57.8007 12.4962 57.5515 12.7897C57.302 13.0833 57.1774 13.5587 57.1776 14.216V18.4335C57.1846 18.5452 57.1687 18.6571 57.1309 18.7623C57.093 18.8676 57.034 18.9639 56.9575 19.0455C56.8743 19.1206 56.777 19.1784 56.6712 19.2154C56.5655 19.2524 56.4534 19.268 56.3415 19.2612H55.5496C55.438 19.2732 55.3252 19.2601 55.2193 19.2228C55.1135 19.1855 55.0173 19.1249 54.938 19.0455C54.8586 18.9661 54.7981 18.8699 54.7608 18.764C54.7235 18.6581 54.7104 18.5452 54.7224 18.4335V14.216C54.7224 13.5587 54.5978 13.0833 54.3485 12.7897C54.099 12.4962 53.681 12.3495 53.0945 12.3494C52.5019 12.3494 52.0634 12.4991 51.7789 12.7986C51.4944 13.0979 51.3521 13.5704 51.3522 14.216V18.4335C51.3643 18.5452 51.3512 18.6581 51.3139 18.764C51.2766 18.8699 51.216 18.9661 51.1367 19.0455C51.0573 19.1249 50.9612 19.1855 50.8553 19.2228C50.7495 19.2601 50.6366 19.2732 50.5251 19.2612H49.7244C49.6125 19.268 49.5005 19.2525 49.3947 19.2154C49.2889 19.1784 49.1916 19.1206 49.1084 19.0455C49.0319 18.964 48.9729 18.8676 48.935 18.7623C48.8971 18.6571 48.8813 18.5452 48.8884 18.4335V14.3393C48.8884 12.8953 49.233 11.8505 49.9223 11.2048C50.6115 10.5592 51.5956 10.2364 52.8746 10.2363C54.3705 10.2363 55.3941 10.659 55.9455 11.5042C56.4911 10.659 57.5118 10.2363 59.0078 10.2363Z" fill="white"/>
<path d="M65.3141 19.0313C65.1012 18.9981 64.9088 18.8849 64.7764 18.7148C64.6439 18.5446 64.5813 18.3304 64.6013 18.1156V17.7722C64.5903 17.657 64.6065 17.5408 64.6486 17.433C64.6906 17.3252 64.7573 17.2288 64.8433 17.1515C64.941 17.0857 65.0517 17.0418 65.1679 17.0228C65.284 17.0038 65.4029 17.0102 65.5164 17.0415C66.0924 17.1487 66.6742 17.2222 67.2587 17.2615C67.7793 17.2974 68.3019 17.2871 68.8207 17.2308C69.2368 17.2009 69.6383 17.0644 69.9865 16.8345C70.123 16.7417 70.234 16.616 70.3094 16.4691C70.3847 16.3222 70.422 16.1587 70.4178 15.9936C70.4168 15.8491 70.3858 15.7064 70.3267 15.5745C70.2676 15.4427 70.1817 15.3246 70.0745 15.2277C69.7054 14.922 69.2855 14.6836 68.8339 14.5233L67.7076 14.039C66.6105 13.5635 65.8303 13.0573 65.3669 12.5202C64.9028 11.9816 64.6551 11.2898 64.6717 10.5788C64.6638 10.1313 64.7508 9.68708 64.927 9.27561C65.0883 8.90561 65.3357 8.57958 65.6485 8.3247C65.9789 8.06146 66.3505 7.85473 66.7484 7.71291C67.2024 7.55047 67.6757 7.4483 68.1563 7.40903C68.7009 7.36219 69.2486 7.36371 69.793 7.41355C70.3914 7.4672 70.9854 7.56281 71.5704 7.69966C71.7859 7.73253 71.9806 7.84657 72.1148 8.01843C72.2489 8.19029 72.3123 8.40696 72.292 8.62407V8.99387C72.3017 9.10896 72.285 9.22476 72.2431 9.33238C72.2011 9.43999 72.1351 9.53657 72.0501 9.61471C71.9539 9.68356 71.8438 9.73064 71.7275 9.75268C71.6113 9.77472 71.4916 9.77119 71.3768 9.74234C68.5962 9.27873 67.2059 9.54287 67.2059 10.5348C67.2074 10.6747 67.2374 10.8129 67.2941 10.9408C67.3509 11.0688 67.4332 11.1838 67.5359 11.2787C67.8767 11.5708 68.2692 11.7963 68.6931 11.9435L69.7314 12.3837C70.887 12.871 71.7142 13.3876 72.2129 13.9334C72.7185 14.4978 72.9865 15.236 72.9609 15.9936C72.9755 16.5839 72.8246 17.1665 72.5253 17.6754C72.2417 18.1444 71.8335 18.5254 71.3462 18.7759C70.8027 19.0494 70.2189 19.2338 69.617 19.3219C68.9316 19.4286 68.236 19.4537 67.5447 19.3967C66.7924 19.3364 66.0464 19.2142 65.3141 19.0313V19.0313Z" fill="white"/>
<path d="M80.3787 11.6264C80.3907 11.7381 80.3777 11.851 80.3404 11.9569C80.3031 12.0628 80.2425 12.159 80.1631 12.2384C80.0838 12.3178 79.9877 12.3784 79.8818 12.4157C79.776 12.453 79.6631 12.4661 79.5515 12.4541H77.0964V15.9848C77.0964 16.4486 77.2064 16.7831 77.4264 16.9885C77.6464 17.1941 78.0027 17.2968 78.4956 17.2966C78.7018 17.2943 78.9076 17.2782 79.1116 17.2483C79.2718 17.223 79.4334 17.2068 79.5955 17.1998C79.806 17.1808 80.0164 17.2369 80.1895 17.3583C80.2536 17.4224 80.3029 17.4997 80.3341 17.5849C80.3652 17.6701 80.3774 17.761 80.3698 17.8514V18.3003C80.3698 18.7993 80.1469 19.0958 79.7011 19.1897C79.1664 19.324 78.6196 19.4036 78.0689 19.4275C77.5913 19.4485 77.1133 19.395 76.6521 19.269C76.24 19.1589 75.858 18.9573 75.5345 18.679C75.2083 18.3822 74.9592 18.0105 74.8086 17.596C74.6217 17.0799 74.5322 16.5336 74.5446 15.9848V9.16985C74.5375 9.05823 74.5534 8.94635 74.5912 8.84112C74.6291 8.73589 74.6881 8.63955 74.7647 8.55805C74.8478 8.48289 74.9452 8.42509 75.0509 8.38803C75.1567 8.35097 75.2688 8.33539 75.3806 8.34222H76.2693C76.3809 8.33018 76.4937 8.34332 76.5995 8.38066C76.7053 8.41799 76.8015 8.47858 76.8808 8.55798C76.9602 8.63737 77.0207 8.73354 77.058 8.83943C77.0953 8.94532 77.1085 9.05823 77.0964 9.16986V10.3938H79.5515C79.6631 10.3867 79.775 10.4026 79.8802 10.4405C79.9853 10.4783 80.0817 10.5374 80.1631 10.614C80.2382 10.6972 80.2959 10.7946 80.3329 10.9004C80.37 11.0062 80.3855 11.1184 80.3787 11.2303L80.3787 11.6264Z" fill="white"/>
<path d="M85.5551 10.2357C86.1261 10.2295 86.6956 10.2976 87.2491 10.4383C87.728 10.5603 88.1811 10.7675 88.5866 11.0501C88.9745 11.3278 89.2826 11.7029 89.4796 12.1375C89.6987 12.6273 89.8069 13.1595 89.7965 13.696V16.672C89.7965 17.5995 89.5765 18.2628 89.1365 18.6619C88.6965 19.0611 87.9867 19.2607 87.007 19.2606H84.9567C83.7776 19.2606 82.8932 19.061 82.3036 18.6619C81.7142 18.2628 81.4194 17.5613 81.4194 16.5575C81.4062 16.1055 81.4871 15.6558 81.657 15.2368C81.8055 14.8903 82.0555 14.5971 82.3741 14.3959C82.7112 14.1867 83.0841 14.0419 83.4741 13.9689C83.9632 13.8802 84.4597 13.8389 84.9567 13.8456H87.2886V13.696C87.2886 12.7451 86.5905 12.2697 85.1944 12.2697C84.4126 12.2863 83.6344 12.3807 82.8713 12.5514C82.7578 12.5828 82.6389 12.5891 82.5226 12.5701C82.4064 12.5511 82.2957 12.5071 82.1981 12.4413C82.1121 12.3639 82.0454 12.2675 82.0034 12.1597C81.9614 12.0519 81.9452 11.9357 81.9562 11.8206V11.486C81.9562 10.9753 82.2466 10.6642 82.8273 10.5527C83.7231 10.3529 84.6373 10.2467 85.5551 10.2357ZM86.3911 17.4644C86.7547 17.4644 86.9953 17.394 87.1126 17.2531C87.2489 17.0448 87.3109 16.7967 87.2886 16.5487V15.6331H85.0888C84.5608 15.6331 84.2088 15.6991 84.0328 15.8311C83.8568 15.9633 83.7689 16.2054 83.7689 16.5575C83.754 16.6877 83.7697 16.8196 83.8147 16.9427C83.8597 17.0657 83.9329 17.1766 84.0283 17.2664C84.2013 17.3984 84.5519 17.4644 85.0799 17.4644H86.3911Z" fill="white"/>
<path d="M96.3914 12.3055C95.5525 12.3055 94.9468 12.5051 94.5744 12.9042C94.2019 13.3035 94.0156 13.9477 94.0156 14.8369C94.0156 15.7261 94.2019 16.3659 94.5744 16.7563C94.9469 17.1467 95.5526 17.3418 96.3914 17.3418C96.8932 17.3382 97.3937 17.2911 97.8873 17.2009C98.0014 17.1724 98.1201 17.1678 98.236 17.1875C98.3518 17.2072 98.4624 17.2507 98.5606 17.3153C98.6468 17.3915 98.7136 17.4872 98.7557 17.5943C98.7977 17.7014 98.8138 17.817 98.8025 17.9316V18.2398C98.8243 18.4545 98.7637 18.6695 98.633 18.8412C98.5023 19.0128 98.3112 19.1283 98.0985 19.1642C97.408 19.3373 96.6985 19.4232 95.9867 19.4196C94.614 19.4196 93.5184 19.0308 92.7 18.2531C91.8818 17.4753 91.4727 16.3351 91.4727 14.8324C91.4727 13.3298 91.8818 12.1882 92.7 11.4074C93.5185 10.6267 94.614 10.2363 95.9867 10.2363C96.6987 10.2388 97.4078 10.3275 98.0985 10.5005C98.3109 10.5336 98.5024 10.6471 98.6334 10.8175C98.7644 10.988 98.825 11.2023 98.8025 11.4162V11.7244C98.8131 11.8409 98.7926 11.958 98.7431 12.064C98.6936 12.1699 98.617 12.2609 98.5209 12.3275C98.278 12.4563 97.9965 12.4923 97.729 12.4288C97.2868 12.3547 96.8397 12.3135 96.3914 12.3055V12.3055Z" fill="white"/>
<path d="M108.828 18.3713C109.022 18.6178 109.051 18.8277 108.916 19.0008C108.781 19.1741 108.523 19.2607 108.142 19.2606H107.35C106.81 19.2606 106.423 19.1139 106.188 18.8204L102.836 14.9287V18.433C102.848 18.5446 102.835 18.6575 102.797 18.7634C102.76 18.8693 102.7 18.9655 102.62 19.0449C102.541 19.1243 102.445 19.1848 102.339 19.2222C102.233 19.2595 102.12 19.2727 102.009 19.2606H101.164C101.052 19.2675 100.94 19.2519 100.834 19.2149C100.729 19.1779 100.631 19.1201 100.548 19.0449C100.471 18.9634 100.412 18.867 100.375 18.7618C100.337 18.6565 100.321 18.5446 100.328 18.433V7.47113C100.317 7.35851 100.331 7.2448 100.369 7.13822C100.407 7.03164 100.468 6.93484 100.548 6.85481C100.628 6.77478 100.725 6.71351 100.831 6.67543C100.938 6.63735 101.051 6.62341 101.164 6.63461H102.009C102.12 6.62756 102.232 6.64345 102.337 6.68133C102.442 6.7192 102.539 6.77824 102.62 6.85481C102.695 6.93803 102.753 7.0354 102.79 7.14123C102.827 7.24706 102.843 7.35921 102.836 7.47113V14.145L106.18 10.7993C106.408 10.5294 106.793 10.3944 107.332 10.3943H108.054C108.441 10.3943 108.702 10.4853 108.837 10.6673C108.972 10.8492 108.931 11.0546 108.714 11.2836L105.405 14.5148L108.828 18.3713Z" fill="white"/>
</svg>
