<svg width="44" height="44" viewBox="0 0 44 44" fill="none" xmlns="http://www.w3.org/2000/svg">
<path d="M26.4263 0.138267C30.1048 -0.203167 34.1542 -0.0212135 37.0069 1.9433C39.6707 3.77878 40.7084 6.75454 41.4511 9.56865C42.6728 14.1919 43.4791 18.8924 43.8627 23.6269C44.1273 26.9071 44.1595 30.3265 42.5481 33.3277C41.1296 35.9692 38.5531 38.0563 35.8233 39.8453C32.711 41.8853 29.152 43.678 25.2073 43.9607C20.4169 44.3036 15.7774 42.3601 12.0198 39.8598C6.08537 35.9083 1.58429 30.291 0.335599 24.0423C-0.61885 19.2636 0.465001 14.1486 3.55583 10.0261C6.43566 6.18404 11.0225 4.00495 15.9892 2.342C19.3454 1.21406 22.8537 0.473314 26.4263 0.138267Z" fill="#1093F2" fill-opacity="0.2"/>
<path d="M38.5 36.6668H36.6667V20.1668C36.6667 19.865 36.5922 19.5678 36.4498 19.3017C36.3074 19.0356 36.1014 18.8088 35.8503 18.6415L25.6667 11.8523V5.50014C25.6665 5.18767 25.5865 4.88043 25.4343 4.60755C25.2821 4.33468 25.0627 4.10522 24.7969 3.94094C24.5311 3.77666 24.2278 3.68301 23.9156 3.66887C23.6035 3.65473 23.2929 3.72058 23.0133 3.86016L8.34668 11.1935C8.04212 11.3458 7.78599 11.5799 7.60701 11.8695C7.42803 12.1592 7.33326 12.493 7.33334 12.8335V36.6668H5.50001C5.01377 36.6668 4.54746 36.86 4.20364 37.2038C3.85983 37.5476 3.66667 38.0139 3.66667 38.5001C3.66667 38.9864 3.85983 39.4527 4.20364 39.7965C4.54746 40.1403 5.01377 40.3335 5.50001 40.3335H38.5C38.9862 40.3335 39.4526 40.1403 39.7964 39.7965C40.1402 39.4527 40.3333 38.9864 40.3333 38.5001C40.3333 38.0139 40.1402 37.5476 39.7964 37.2038C39.4526 36.86 38.9862 36.6668 38.5 36.6668ZM33 21.1479V36.6668H25.6667V16.259L33 21.1479ZM11 13.9668L22 8.46676V36.6668H11V13.9668ZM16.5 18.3514C16.1369 18.3523 15.7817 18.2456 15.4792 18.0447C15.1766 17.8439 14.9404 17.558 14.8002 17.223C14.66 16.8881 14.6222 16.5191 14.6915 16.1627C14.7609 15.8063 14.9342 15.4784 15.1897 15.2204C15.4452 14.9624 15.7714 14.7858 16.1272 14.713C16.4829 14.6403 16.8522 14.6745 17.1885 14.8114C17.5248 14.9483 17.813 15.1818 18.0168 15.4823C18.2205 15.7829 18.3307 16.137 18.3333 16.5001V16.518C18.3333 17.0043 18.1402 17.4706 17.7963 17.8144C17.4525 18.1582 16.9862 18.3514 16.5 18.3514ZM16.5 23.8514C16.1369 23.8523 15.7817 23.7456 15.4792 23.5447C15.1766 23.3439 14.9404 23.058 14.8002 22.723C14.66 22.3881 14.6222 22.0191 14.6915 21.6627C14.7609 21.3063 14.9342 20.9784 15.1897 20.7204C15.4452 20.4624 15.7714 20.2858 16.1272 20.213C16.4829 20.1403 16.8522 20.1745 17.1885 20.3114C17.5248 20.4483 17.813 20.6818 18.0168 20.9823C18.2205 21.2829 18.3307 21.637 18.3333 22.0001V22.018C18.3333 22.5043 18.1402 22.9706 17.7963 23.3144C17.4525 23.6582 16.9862 23.8514 16.5 23.8514ZM16.5 29.3514C16.1369 29.3523 15.7817 29.2456 15.4792 29.0447C15.1766 28.8439 14.9404 28.558 14.8002 28.223C14.66 27.8881 14.6222 27.5191 14.6915 27.1627C14.7609 26.8063 14.9342 26.4784 15.1897 26.2204C15.4452 25.9624 15.7714 25.7858 16.1272 25.713C16.4829 25.6403 16.8522 25.6745 17.1885 25.8114C17.5248 25.9483 17.813 26.1818 18.0168 26.4823C18.2205 26.7829 18.3307 27.137 18.3333 27.5001V27.518C18.3334 27.7588 18.286 27.9972 18.1939 28.2197C18.1018 28.4422 17.9668 28.6443 17.7965 28.8145C17.6263 28.9848 17.4241 29.1198 17.2017 29.212C16.9792 29.3041 16.7408 29.3514 16.5 29.3514ZM16.5 34.8514C16.1369 34.8523 15.7817 34.7456 15.4792 34.5447C15.1766 34.3439 14.9404 34.058 14.8002 33.723C14.66 33.3881 14.6222 33.0191 14.6915 32.6627C14.7609 32.3063 14.9342 31.9784 15.1897 31.7204C15.4452 31.4624 15.7714 31.2858 16.1272 31.213C16.4829 31.1402 16.8522 31.1745 17.1885 31.3114C17.5248 31.4483 17.813 31.6818 18.0168 31.9823C18.2205 32.2829 18.3307 32.637 18.3333 33.0001V33.018C18.3334 33.2588 18.286 33.4972 18.1939 33.7197C18.1018 33.9422 17.9668 34.1443 17.7965 34.3146C17.6263 34.4848 17.4241 34.6198 17.2017 34.712C16.9792 34.8041 16.7408 34.8514 16.5 34.8514Z" fill="black"/>
</svg>
