<svg width="44" height="44" viewBox="0 0 44 44" fill="none" xmlns="http://www.w3.org/2000/svg">
<path d="M26.4263 0.138267C30.1048 -0.203167 34.1542 -0.0212135 37.0069 1.9433C39.6707 3.77878 40.7084 6.75454 41.4511 9.56865C42.6728 14.1919 43.4791 18.8924 43.8627 23.6269C44.1273 26.9071 44.1595 30.3265 42.5481 33.3277C41.1296 35.9692 38.5531 38.0563 35.8233 39.8453C32.711 41.8853 29.152 43.678 25.2073 43.9607C20.4169 44.3036 15.7774 42.3601 12.0198 39.8598C6.08537 35.9083 1.58429 30.291 0.335599 24.0423C-0.61885 19.2636 0.465001 14.1486 3.55583 10.0261C6.43566 6.18404 11.0225 4.00495 15.9892 2.342C19.3454 1.21406 22.8537 0.473314 26.4263 0.138267Z" fill="#1093F2" fill-opacity="0.2"/>
<path d="M15.3685 38.9474C15.1155 38.9472 14.8653 38.8947 14.6335 38.7934C10.777 37.1047 7.61921 34.1402 5.69063 30.3979C3.76204 26.6556 3.18021 22.3636 4.04288 18.2429C4.90556 14.1223 7.16017 10.424 10.4279 7.76962C13.6957 5.1152 17.7775 3.66633 21.9875 3.66644C21.9939 3.66457 22.0007 3.66457 22.0072 3.66644C26.2171 3.66564 30.299 5.11379 33.5672 7.76759C36.8353 10.4214 39.0905 14.1191 39.9539 18.2396C40.8173 22.36 40.2363 26.652 38.3085 30.3946C36.3806 34.1372 33.2234 37.1022 29.3673 38.7916C29.1411 38.8906 28.8972 38.943 28.6502 38.9455C28.4032 38.9479 28.1583 38.9005 27.9301 38.8061C27.7019 38.7116 27.4951 38.572 27.3221 38.3957C27.1492 38.2194 27.0136 38.01 26.9235 37.78L22.905 27.5087C22.7417 27.0916 22.7367 26.629 22.8911 26.2085C23.0454 25.7879 23.3484 25.4384 23.7429 25.226C24.2794 24.9365 24.7353 24.5178 25.0691 24.0077C25.403 23.4976 25.6044 22.9122 25.6549 22.3047C25.7055 21.6971 25.6037 21.0866 25.3588 20.5283C25.1139 19.97 24.7335 19.4816 24.2522 19.1074C23.6013 18.6224 22.8111 18.3605 21.9994 18.3606C21.1876 18.3608 20.3975 18.623 19.7468 19.1083C19.2657 19.4826 18.8856 19.9711 18.6408 20.5294C18.3961 21.0877 18.2946 21.6982 18.3453 22.3056C18.3961 22.9131 18.5975 23.4983 18.9315 24.0082C19.2655 24.5181 19.7214 24.9367 20.2579 25.226C20.6524 25.4384 20.9554 25.7879 21.1097 26.2085C21.2641 26.629 21.2591 27.0916 21.0957 27.5087L17.0757 37.7818C16.9414 38.1253 16.7067 38.4203 16.4021 38.6282C16.0975 38.8362 15.7373 38.9474 15.3686 38.9474H15.3685ZM21.9875 7.3331C18.7839 7.33306 15.6685 8.38193 13.1172 10.3194C10.566 12.2569 8.71929 14.9765 7.85935 18.0624C6.99942 21.1484 7.17355 24.431 8.35514 27.4087C9.53673 30.3864 11.6608 32.8953 14.4027 34.552L17.1589 27.5069C16.3483 26.7948 15.7048 25.9125 15.2745 24.923C14.8442 23.9335 14.6377 22.8612 14.6697 21.7827C14.7016 20.7042 14.9713 19.646 15.4595 18.6837C15.9477 17.7214 16.6422 16.8788 17.4937 16.216C18.795 15.2442 20.3755 14.7189 21.9997 14.7186C23.6239 14.7183 25.2046 15.2429 26.5063 16.2142C27.3585 16.8767 28.0537 17.7193 28.5423 18.6818C29.031 19.6442 29.3009 20.7028 29.3329 21.7817C29.3649 22.8606 29.1581 23.9333 28.7274 24.923C28.2966 25.9127 27.6525 26.795 26.8411 27.5069L29.5965 34.5484C32.3377 32.8912 34.4609 30.3821 35.6417 27.4045C36.8225 24.4269 36.996 21.1445 36.1356 18.0591C35.2751 14.9736 33.4282 12.2547 30.8769 10.3178C28.3256 8.38094 25.2104 7.33264 22.0072 7.3331H21.9875Z" fill="black"/>
</svg>
