<svg id="Layer_1" data-name="Layer 1" xmlns="http://www.w3.org/2000/svg" xmlns:xlink="http://www.w3.org/1999/xlink" viewBox="0 0 1440 881"><defs><style>.cls-1{fill:url(#linear-gradient);}.cls-2,.cls-3,.cls-4{fill:#ff98d8;}.cls-2,.cls-3,.cls-6,.cls-7{isolation:isolate;}.cls-2,.cls-6{opacity:0.15;}.cls-10,.cls-3{opacity:0.5;}.cls-5{fill:#fff;}.cls-6,.cls-7,.cls-8{fill:#c28aef;}.cls-7{opacity:0.4;}.cls-10,.cls-11,.cls-9{fill:#9880ff;}.cls-9{opacity:0.15;}</style><linearGradient id="linear-gradient" x1="290.31549" y1="1256.67957" x2="1657.81491" y2="1432.17968" gradientTransform="matrix(1, 0, 0, -1, 0, 1724)" gradientUnits="userSpaceOnUse"><stop offset="0" stop-color="#ff98d8"/><stop offset="0.40625" stop-color="#9880ff"/><stop offset="0.60417" stop-color="#9880ff"/><stop offset="1" stop-color="#ff98d8"/></linearGradient></defs><path class="cls-1" d="M1425.4165,232.52a73.52182,73.52182,0,0,0-118.74707,49.76217l-27.16015,251.9707a95.98161,95.98161,0,0,1-100.76563,85.56933l-8.37011-.46289a85.17542,85.17542,0,0,0-85.00586,55.6836c-13.65625,36.76275-47.71973,58.292-86.7862,54.835-39.06347-3.45117-68.82617-30.61523-75.82324-69.20117l-4.57324-25.2002-4.46192-93.65918-1.44043-12.97265c-2.81543-25.32422-15.03711-51.07911-34.41308-72.51953-17.61231-19.48835-39.916-34.14411-61.19336-40.209-40.8877-11.6557-81.83008-.89984-121.42285,9.501l-2.61621.687c-44.00684,11.55127-83.687,19.92822-123.6753,5.39893-51.92529-18.86573-94.648-73.58252-135.96386-126.498q-3.58856-4.60035-7.16358-9.16553C380.85,238.60254,331.66058,184.605,276.80072,178.4624c-25.73193-2.88379-50.80713,5.18115-75.05713,12.978-13.37744,4.30127-27.21045,8.749-41.01758,11.32178C106.34851,212.8949,48.87732,191.33,0,147.98035v1.32391c48.96844,43.1637,106.47546,64.58527,160.90961,54.44128,13.86914-2.58447,27.73291-7.04248,41.14013-11.353,24.14893-7.76465,49.11963-15.79486,74.63965-12.93653,32.2041,3.606,72.46631,20.3003,148.35791,117.2002q3.57376,4.56784,7.1626,9.16455c41.40283,53.02637,84.21533,107.8584,136.41016,126.82178,40.25976,14.6289,80.09863,6.22168,124.271-5.37061l2.61719-.6875c39.46289-10.36621,80.27051-21.08691,120.89453-9.50635,21.10162,6.0152,43.23438,20.56452,60.72461,39.918,19.23633,21.28614,31.3681,46.8418,34.16113,71.959l1.43848,12.94043,4.4668,93.69336,4.58007,25.26562c7.08106,39.043,37.19532,66.52735,76.71973,70.01953q4.15521.36521,8.22754.36524c36.02643,0,66.73444-21.25684,79.58405-55.84857a84.243,84.243,0,0,1,84.01367-55.03321l8.37011.46289a96.99264,96.99264,0,0,0,101.81446-86.46l27.16015-251.97119a72.52217,72.52217,0,0,1,117.13184-49.085L1440,245.34473v-1.276Z"/><circle class="cls-2" cx="195.14026" cy="194.00577" r="13.5412"/><circle class="cls-3" cx="195.1432" cy="194.00403" r="10.61334"/><circle class="cls-4" cx="195.13972" cy="194.0051" r="4.75772"/><path class="cls-5" d="M195.14082,202.42416a8.41756,8.41756,0,1,1,.00055,0Zm0-14.48066a6.06284,6.06284,0,1,0,6.06284,6.06285v-.00058A6.06911,6.06911,0,0,0,195.14082,187.9435Zm-.00332,8.62452a2.56186,2.56186,0,1,0-2.56185-2.56187h0a2.56186,2.56186,0,0,0,2.56186,2.56183Z"/><circle class="cls-6" cx="1340.34607" cy="228.80154" r="10.65405"/><circle class="cls-7" cx="1340.34839" cy="228.80019" r="8.35046"/><circle class="cls-8" cx="1340.34558" cy="228.80103" r="3.74329"/><path class="cls-5" d="M1340.34644,235.425a6.62274,6.62274,0,1,1,.00061,0Zm0-11.3932a4.77017,4.77017,0,1,0,4.77014,4.7702v-.00049a4.775,4.775,0,0,0-4.77014-4.76968Zm-.00257,6.78567a2.01564,2.01564,0,1,0-2.01562-2.01565h0a2.01561,2.01561,0,0,0,2.0155,2.01567h.00012Z"/><circle class="cls-9" cx="1074.12622" cy="696.58503" r="20.65051"/><circle class="cls-10" cx="1074.12604" cy="696.57005" r="16.18554" transform="translate(19.52865 1422.3668) rotate(-67.49997)"/><circle class="cls-11" cx="1074.12622" cy="696.576" r="7.25562"/><path class="cls-5" d="M1074.1265,709.41074a12.83691,12.83691,0,1,1,12.83692-12.83691A12.85168,12.85168,0,0,1,1074.1265,709.41074Zm0-23.67382a10.83691,10.83691,0,1,0,10.83692,10.83691A10.84906,10.84906,0,0,0,1074.1265,685.73692ZM1078.033,696.579a3.90686,3.90686,0,1,1-3.90686-3.90686A3.90684,3.90684,0,0,1,1078.033,696.579Z"/></svg>