<svg width="157" height="38" viewBox="0 0 157 38" fill="none" xmlns="http://www.w3.org/2000/svg">
<path d="M28.7785 1.68817C28.2407 1.15002 27.5113 0.847675 26.7507 0.847656C25.9901 0.847638 25.2607 1.14994 24.7228 1.68807C24.185 2.22619 23.8828 2.95606 23.8828 3.7171C23.8828 4.47814 24.1849 5.20802 24.7227 5.74617L31.9247 12.9528C32.1908 13.2201 32.507 13.4323 32.8551 13.5771C33.2032 13.722 33.5765 13.7968 33.9535 13.7971C34.3306 13.7975 34.704 13.7235 35.0524 13.5793C35.4008 13.4351 35.7174 13.2236 35.984 12.9568C36.2506 12.69 36.4621 12.3733 36.6062 12.0247C36.7504 11.6761 36.8244 11.3025 36.8241 10.9252C36.8237 10.5479 36.7491 10.1744 36.6043 9.82608C36.4596 9.47772 36.2476 9.16135 35.9805 8.89506L28.7785 1.68817Z" fill="#57AEEA"/>
<path d="M7.51687 3.54988C7.2508 3.28249 6.93463 3.07024 6.58647 2.92528C6.23831 2.78032 5.86499 2.70549 5.48789 2.70508C5.11079 2.70467 4.73731 2.77869 4.38883 2.9229C4.04036 3.06711 3.72373 3.27867 3.45708 3.54548C3.19043 3.81229 2.97899 4.12911 2.83487 4.47779C2.69075 4.82647 2.61678 5.20017 2.61719 5.5775C2.6176 5.95482 2.69238 6.32836 2.83726 6.67673C2.98214 7.0251 3.19427 7.34146 3.46149 7.60769L29.3463 33.5079C29.8841 34.0461 30.6135 34.3484 31.3741 34.3484C32.1347 34.3484 32.8642 34.0461 33.402 33.508C33.9398 32.9699 34.242 32.24 34.242 31.479C34.242 30.7179 33.9399 29.9881 33.4021 29.4499L7.51687 3.54988Z" fill="#7869D0"/>
<path d="M16.3837 0.855034C16.1175 0.58817 15.8013 0.376419 15.4533 0.231886C15.1052 0.0873517 14.7321 0.0128691 14.3553 0.0126956C13.9785 0.0125221 13.6053 0.0866611 13.2572 0.230874C12.909 0.375088 12.5926 0.586547 12.3262 0.853166C12.0598 1.11978 11.8484 1.43633 11.7043 1.78472C11.5602 2.1331 11.4861 2.50649 11.4863 2.88353C11.4865 3.26058 11.561 3.63389 11.7054 3.98212C11.8499 4.33036 12.0615 4.64669 12.3283 4.91304L32.2942 24.8907C32.5603 25.1579 32.8765 25.37 33.2246 25.5148C33.5728 25.6597 33.946 25.7344 34.3231 25.7347C34.7001 25.7351 35.0735 25.661 35.4219 25.5168C35.7703 25.3726 36.0868 25.161 36.3534 24.8943C36.62 24.6275 36.8314 24.3108 36.9755 23.9622C37.1196 23.6135 37.1936 23.2399 37.1933 22.8627C37.1929 22.4854 37.1182 22.1119 36.9734 21.7636C36.8287 21.4153 36.6167 21.0989 36.3496 20.8327L16.3837 0.855034Z" fill="#688BDD"/>
<path d="M4.89238 12.492C4.35427 11.9553 3.6253 11.6542 2.86553 11.6548C2.10575 11.6554 1.37726 11.9576 0.840007 12.4952C0.302752 13.0328 0.000639796 13.7617 1.01502e-06 14.5219C-0.000637766 15.2821 0.300249 16.0115 0.8366 16.55L20.5237 36.2484C21.0615 36.7866 21.791 37.0889 22.5516 37.089C22.9282 37.089 23.3011 37.0148 23.649 36.8706C23.997 36.7264 24.3131 36.515 24.5794 36.2485C24.8457 35.9821 25.057 35.6658 25.2011 35.3176C25.3452 34.9695 25.4194 34.5963 25.4194 34.2195C25.4194 33.8427 25.3453 33.4695 25.2012 33.1214C25.057 32.7732 24.8458 32.4569 24.5795 32.1904L4.89238 12.492Z" fill="#8946C2"/>
<path d="M5.65743 24.8244C5.11963 24.2862 4.39019 23.9839 3.6296 23.9839C2.86901 23.9839 2.13957 24.2862 1.60173 24.8243C1.0639 25.3624 0.761738 26.0923 0.761719 26.8533C0.761699 27.6144 1.06382 28.3443 1.60163 28.8824L8.80362 36.0891C9.0699 36.3555 9.38603 36.5669 9.73395 36.7111C10.0819 36.8554 10.4548 36.9296 10.8314 36.9296C11.208 36.9296 11.5809 36.8554 11.9288 36.7112C12.2768 36.5671 12.5929 36.3557 12.8592 36.0893C13.1255 35.8228 13.3368 35.5065 13.4809 35.1584C13.625 34.8103 13.6992 34.4371 13.6992 34.0603C13.6993 33.6835 13.6251 33.3104 13.481 32.9622C13.3369 32.6141 13.1257 32.2977 12.8594 32.0313L5.65743 24.8244Z" fill="#9923B5"/>
<path d="M58.5897 27.5876C58.2827 27.6103 57.9779 27.5205 57.7322 27.335C57.4865 27.1494 57.3167 26.8808 57.2543 26.5792L56.3221 23.2766H49.1162L48.184 26.5792C48.121 26.8781 47.9528 27.1444 47.71 27.3296C47.4671 27.5147 47.1658 27.6063 46.8611 27.5876H45.5257C45.3572 27.604 45.1873 27.5793 45.0304 27.5156C44.8735 27.452 44.7344 27.3512 44.6249 27.2219C44.533 27.0794 44.4765 26.917 44.4601 26.7481C44.4437 26.5793 44.4679 26.409 44.5306 26.2514L47.9572 14.8436C48.419 13.2553 49.0069 12.1461 49.7209 11.5158C50.4346 10.8856 51.4382 10.5704 52.7316 10.5703C54.0333 10.5703 55.0433 10.8876 55.7616 11.5221C56.4795 12.1568 57.0611 13.264 57.5063 14.8436L60.9204 26.2514C60.983 26.409 61.0071 26.5793 60.9906 26.7481C60.9742 26.9169 60.9177 27.0794 60.8258 27.2219C60.7164 27.3511 60.5772 27.4519 60.4204 27.5156C60.2635 27.5792 60.0935 27.604 59.925 27.5876L58.5897 27.5876ZM49.9728 20.2386H55.4779L54.0545 15.1588C53.9658 14.736 53.7852 14.3378 53.5254 13.9927C53.3088 13.7941 53.0256 13.6839 52.7318 13.6839C52.4379 13.6839 52.1548 13.7941 51.9381 13.9927C51.6764 14.3383 51.4917 14.7359 51.3963 15.1588L49.9728 20.2386Z" fill="#0C1031"/>
<path d="M65.1897 13.2422C64.9198 13.262 64.6487 13.2264 64.3931 13.1375C64.1374 13.0487 63.9026 12.9084 63.7031 12.7255C63.527 12.5283 63.3917 12.298 63.3052 12.0481C63.2187 11.7982 63.1827 11.5335 63.1992 11.2695C63.1836 11.0032 63.2206 10.7364 63.3081 10.4845C63.3957 10.2325 63.532 10.0003 63.7094 9.80108C63.9063 9.61551 64.1395 9.47268 64.3942 9.38157C64.649 9.29047 64.9198 9.25304 65.1897 9.27166C65.4621 9.25128 65.7357 9.28721 65.9937 9.37721C66.2516 9.46722 66.4883 9.60937 66.6889 9.79483C67.0461 10.2023 67.2273 10.7349 67.1928 11.2758C67.2101 11.5398 67.1744 11.8046 67.0878 12.0547C67.0013 12.3047 66.8656 12.5349 66.6889 12.7317C66.4863 12.9135 66.249 13.0524 65.9914 13.1402C65.7337 13.2279 65.461 13.2626 65.1897 13.2422ZM64.5473 27.5872C64.3876 27.6045 64.226 27.5857 64.0745 27.5323C63.9229 27.4788 63.7853 27.3921 63.6717 27.2784C63.5581 27.1647 63.4714 27.027 63.418 26.8754C63.3646 26.7238 63.3458 26.5621 63.3631 26.4023V16.0912C63.3533 15.931 63.3755 15.7704 63.4285 15.6189C63.4815 15.4674 63.5642 15.328 63.6717 15.2088C63.7883 15.0992 63.9262 15.0146 64.0768 14.9604C64.2274 14.9061 64.3876 14.8834 64.5473 14.8936H65.8323C65.992 14.8834 66.152 14.9062 66.3026 14.9604C66.4532 15.0146 66.591 15.0992 66.7076 15.2088C66.8152 15.328 66.8979 15.4674 66.9509 15.6189C67.0039 15.7704 67.0262 15.931 67.0164 16.0912V26.4023C67.0337 26.5621 67.0149 26.7237 66.9614 26.8753C66.908 27.0269 66.8213 27.1646 66.7077 27.2783C66.5941 27.3919 66.4565 27.4787 66.305 27.5321C66.1535 27.5856 65.992 27.6044 65.8323 27.5872H64.5473Z" fill="#0C1031"/>
<path d="M84.4783 14.667C86.3091 14.667 87.72 15.1292 88.7111 16.0536C89.702 16.9781 90.1975 18.4739 90.1976 20.541V26.4026C90.2149 26.5624 90.1961 26.7241 90.1427 26.8757C90.0893 27.0273 90.0026 27.165 89.889 27.2787C89.7754 27.3924 89.6378 27.4791 89.4863 27.5326C89.3347 27.586 89.1732 27.6048 89.0134 27.5875H87.8669C87.7072 27.6048 87.5456 27.586 87.3941 27.5326C87.2426 27.4791 87.1049 27.3924 86.9913 27.2787C86.8777 27.165 86.791 27.0273 86.7376 26.8757C86.6842 26.7241 86.6655 26.5624 86.6827 26.4026V20.3646C86.6827 19.4403 86.4791 18.7638 86.0718 18.3352C85.6642 17.9067 85.0364 17.6923 84.1884 17.6923C83.3485 17.6923 82.7501 17.9023 82.3933 18.3225C82.0361 18.7428 81.8576 19.4235 81.8579 20.3646V26.4026C81.868 26.5624 81.8453 26.7226 81.7911 26.8733C81.7369 27.024 81.6524 27.162 81.5429 27.2787C81.4238 27.3862 81.2845 27.469 81.133 27.522C80.9816 27.575 80.8212 27.5973 80.661 27.5875H79.5272C79.3675 27.6048 79.2059 27.586 79.0544 27.5326C78.9029 27.4791 78.7652 27.3924 78.6516 27.2787C78.538 27.165 78.4513 27.0273 78.3979 26.8757C78.3445 26.7241 78.3258 26.5624 78.343 26.4026V20.3646C78.343 19.4235 78.1646 18.7428 77.8077 18.3225C77.4505 17.9024 76.8521 17.6923 76.0124 17.6923C75.164 17.6923 74.5362 17.9066 74.1289 18.3352C73.7216 18.7638 73.5179 19.4403 73.518 20.3646V26.4026C73.5353 26.5624 73.5165 26.7241 73.4631 26.8757C73.4097 27.0273 73.323 27.165 73.2094 27.2787C73.0958 27.3924 72.9582 27.4791 72.8067 27.5326C72.6551 27.586 72.4936 27.6048 72.3338 27.5875H71.1875C71.0274 27.5973 70.8669 27.575 70.7155 27.522C70.5641 27.469 70.4248 27.3863 70.3057 27.2787C70.1961 27.162 70.1116 27.024 70.0574 26.8733C70.0032 26.7226 69.9805 26.5624 69.9906 26.4026V20.541C69.9906 18.4738 70.4841 16.978 71.4709 16.0536C72.4576 15.1293 73.8664 14.6671 75.6975 14.667C77.8391 14.667 79.3046 15.272 80.094 16.4821C80.8751 15.272 82.3365 14.667 84.4783 14.667Z" fill="#0C1031"/>
<path d="M93.5101 27.2596C93.2052 27.2121 92.9299 27.0501 92.7403 26.8065C92.5506 26.5629 92.461 26.2561 92.4896 25.9487V25.457C92.4739 25.292 92.4971 25.1257 92.5573 24.9714C92.6174 24.8171 92.7129 24.679 92.8361 24.5683C92.9759 24.4741 93.1344 24.4113 93.3007 24.3841C93.467 24.3569 93.6373 24.366 93.7998 24.4108C94.6244 24.5644 95.4572 24.6696 96.2941 24.7258C97.0393 24.7773 97.7876 24.7626 98.5303 24.6819C99.1261 24.6391 99.7008 24.4437 100.199 24.1145C100.395 23.9816 100.554 23.8018 100.662 23.5914C100.769 23.3811 100.823 23.147 100.817 22.9107C100.815 22.7038 100.771 22.4995 100.686 22.3107C100.602 22.1219 100.479 21.9528 100.325 21.8142C99.7969 21.3766 99.1957 21.0352 98.5492 20.8057L96.9367 20.1123C95.3661 19.4317 94.2491 18.7069 93.5857 17.938C92.9213 17.1669 92.5666 16.1764 92.5904 15.1586C92.579 14.5178 92.7036 13.8819 92.9558 13.2928C93.1868 12.7631 93.541 12.2963 93.9888 11.9314C94.4618 11.5546 94.9939 11.2586 95.5634 11.0555C96.2134 10.823 96.8911 10.6767 97.5791 10.6205C98.3588 10.5534 99.1429 10.5556 99.9223 10.627C100.779 10.7038 101.629 10.8407 102.467 11.0366C102.775 11.0836 103.054 11.2469 103.246 11.4929C103.438 11.739 103.529 12.0492 103.5 12.36V12.8894C103.514 13.0542 103.49 13.22 103.43 13.3741C103.37 13.5281 103.275 13.6664 103.154 13.7783C103.016 13.8769 102.858 13.9443 102.692 13.9758C102.525 14.0074 102.354 14.0023 102.19 13.961C98.209 13.2973 96.2185 13.6754 96.2185 15.0955C96.2206 15.2958 96.2636 15.4937 96.3448 15.6768C96.4261 15.86 96.5439 16.0246 96.691 16.1606C97.1788 16.5788 97.7408 16.9016 98.3477 17.1123L99.8342 17.7426C101.489 18.4402 102.673 19.1797 103.387 19.9611C104.111 20.7692 104.494 21.8261 104.458 22.9107C104.479 23.7558 104.262 24.5898 103.834 25.3184C103.428 25.9899 102.844 26.5353 102.146 26.8939C101.368 27.2855 100.532 27.5495 99.6703 27.6757C98.689 27.8284 97.6932 27.8643 96.7035 27.7828C95.6265 27.6964 94.5584 27.5214 93.5101 27.2596Z" fill="#0C1031"/>
<path d="M115.077 16.6587C115.095 16.8186 115.076 16.9802 115.023 17.1318C114.969 17.2835 114.882 17.4212 114.769 17.5348C114.655 17.6485 114.518 17.7353 114.366 17.7887C114.215 17.8421 114.053 17.8609 113.893 17.8436H110.378V22.8984C110.378 23.5624 110.536 24.0414 110.851 24.3354C111.166 24.6297 111.676 24.7767 112.381 24.7765C112.677 24.7733 112.971 24.7501 113.263 24.7073C113.493 24.6711 113.724 24.6479 113.956 24.6379C114.257 24.6107 114.559 24.6911 114.807 24.8648C114.898 24.9566 114.969 25.0673 115.014 25.1892C115.058 25.3112 115.076 25.4414 115.065 25.5707V26.2135C115.065 26.9279 114.746 27.3523 114.107 27.4867C113.342 27.679 112.559 27.793 111.771 27.8272C111.087 27.8573 110.402 27.7807 109.742 27.6003C109.152 27.4427 108.605 27.154 108.142 26.7556C107.675 26.3308 107.319 25.7986 107.103 25.2051C106.835 24.4662 106.707 23.6841 106.725 22.8984V13.1418C106.715 12.982 106.738 12.8218 106.792 12.6711C106.846 12.5205 106.93 12.3825 107.04 12.2659C107.159 12.1583 107.298 12.0755 107.45 12.0225C107.601 11.9694 107.762 11.9471 107.922 11.9569H109.194C109.354 11.9397 109.515 11.9585 109.667 12.0119C109.818 12.0654 109.956 12.1521 110.07 12.2658C110.183 12.3794 110.27 12.5171 110.323 12.6687C110.377 12.8203 110.396 12.982 110.378 13.1418V14.894H113.893C114.053 14.8839 114.213 14.9066 114.364 14.9608C114.514 15.0151 114.652 15.0996 114.769 15.2093C114.876 15.3284 114.959 15.4678 115.012 15.6193C115.065 15.7709 115.087 15.9314 115.077 16.0916L115.077 16.6587Z" fill="#0C1031"/>
<path d="M122.485 14.6671C123.303 14.6582 124.118 14.7556 124.911 14.9571C125.596 15.1317 126.245 15.4284 126.825 15.833C127.381 16.2305 127.822 16.7675 128.104 17.3898C128.418 18.091 128.573 18.8529 128.558 19.621V23.8816C128.558 25.2095 128.243 26.1591 127.613 26.7304C126.983 27.302 125.967 27.5877 124.564 27.5875H121.629C119.941 27.5875 118.675 27.3018 117.83 26.7304C116.987 26.159 116.565 25.1548 116.564 23.7176C116.546 23.0706 116.662 22.4267 116.905 21.8268C117.117 21.3309 117.475 20.9111 117.931 20.623C118.414 20.3234 118.948 20.1162 119.506 20.0117C120.206 19.8846 120.917 19.8255 121.629 19.8352H124.967V19.621C124.967 18.2597 123.968 17.579 121.969 17.579C120.85 17.6028 119.736 17.7379 118.643 17.9823C118.481 18.0272 118.31 18.0363 118.144 18.0091C117.978 17.9819 117.819 17.9189 117.679 17.8246C117.556 17.7139 117.461 17.5758 117.401 17.4215C117.34 17.2672 117.317 17.1009 117.333 16.936V16.457C117.333 15.7259 117.749 15.2805 118.58 15.1209C119.863 14.8348 121.171 14.6827 122.485 14.6671ZM123.682 25.0161C124.203 25.0161 124.547 24.9152 124.715 24.7135C124.91 24.4154 124.999 24.0601 124.967 23.7051V22.3942H121.818C121.062 22.3942 120.558 22.4887 120.306 22.6777C120.054 22.8669 119.928 23.2136 119.928 23.7176C119.907 23.904 119.929 24.0929 119.994 24.2691C120.058 24.4453 120.163 24.604 120.3 24.7325C120.547 24.9215 121.049 25.016 121.805 25.0161H123.682Z" fill="#0C1031"/>
<path d="M138.005 17.6294C136.804 17.6294 135.937 17.9151 135.404 18.4865C134.87 19.0581 134.604 19.9804 134.604 21.2534C134.604 22.5264 134.87 23.4424 135.404 24.0014C135.937 24.5602 136.804 24.8396 138.005 24.8395C138.723 24.8345 139.44 24.767 140.147 24.6379C140.31 24.597 140.48 24.5905 140.646 24.6187C140.812 24.6469 140.97 24.7092 141.11 24.8016C141.234 24.9108 141.329 25.0477 141.39 25.2011C141.45 25.3545 141.473 25.52 141.457 25.684V26.1253C141.488 26.4326 141.401 26.7404 141.214 26.9862C141.027 27.2319 140.753 27.3973 140.449 27.4487C139.46 27.6965 138.445 27.8194 137.425 27.8144C135.46 27.8144 133.892 27.2576 132.72 26.1442C131.549 25.0307 130.963 23.3983 130.963 21.2469C130.963 19.0958 131.549 17.4613 132.72 16.3436C133.892 15.2259 135.46 14.667 137.425 14.667C138.445 14.6705 139.46 14.7975 140.449 15.0452C140.753 15.0926 141.027 15.2551 141.215 15.4991C141.402 15.7431 141.489 16.0499 141.457 16.3561V16.7974C141.472 16.9641 141.442 17.1319 141.372 17.2836C141.301 17.4352 141.191 17.5654 141.054 17.6608C140.706 17.8452 140.303 17.8967 139.92 17.8058C139.287 17.6998 138.647 17.6408 138.005 17.6294Z" fill="#0C1031"/>
<path d="M155.806 26.3141C156.083 26.6671 156.125 26.9675 155.932 27.2154C155.739 27.4635 155.369 27.5875 154.823 27.5873H153.689C152.916 27.5873 152.362 27.3773 152.026 26.9571L147.227 21.3856V26.4025C147.244 26.5623 147.225 26.7239 147.172 26.8755C147.118 27.0271 147.032 27.1648 146.918 27.2785C146.804 27.3921 146.667 27.4789 146.515 27.5323C146.364 27.5858 146.202 27.6046 146.043 27.5873H144.833C144.673 27.5972 144.513 27.5749 144.361 27.5219C144.21 27.4689 144.07 27.3861 143.951 27.2786C143.842 27.1619 143.757 27.0239 143.703 26.8732C143.649 26.7225 143.626 26.5623 143.636 26.4025V10.7088C143.62 10.5476 143.64 10.3848 143.695 10.2322C143.749 10.0796 143.837 9.94105 143.951 9.82647C144.066 9.7119 144.204 9.62419 144.357 9.56967C144.509 9.51516 144.672 9.4952 144.833 9.51123H146.043C146.202 9.50113 146.362 9.52389 146.513 9.57811C146.663 9.63233 146.801 9.71686 146.918 9.82648C147.025 9.94562 147.108 10.085 147.161 10.2365C147.214 10.388 147.236 10.5486 147.227 10.7088V20.2636L152.014 15.4736C152.341 15.0872 152.891 14.8939 153.664 14.8938H154.697C155.252 14.8938 155.625 15.0241 155.818 15.2846C156.011 15.545 155.953 15.8391 155.642 16.167L150.905 20.793L155.806 26.3141Z" fill="#0C1031"/>
</svg>
