<svg width="157" height="38" viewBox="0 0 157 38" fill="none" xmlns="http://www.w3.org/2000/svg">
<path d="M28.7785 1.68817C28.2407 1.15002 27.5113 0.847675 26.7507 0.847656C25.9901 0.847638 25.2607 1.14994 24.7228 1.68807C24.185 2.22619 23.8828 2.95606 23.8828 3.7171C23.8828 4.47814 24.1849 5.20802 24.7227 5.74617L31.9247 12.9528C32.1908 13.2201 32.507 13.4323 32.8551 13.5771C33.2032 13.722 33.5765 13.7968 33.9535 13.7971C34.3306 13.7975 34.704 13.7235 35.0524 13.5793C35.4008 13.4351 35.7174 13.2236 35.984 12.9568C36.2506 12.69 36.4621 12.3733 36.6062 12.0247C36.7504 11.6761 36.8244 11.3025 36.8241 10.9252C36.8237 10.5479 36.7491 10.1744 36.6043 9.82608C36.4596 9.47772 36.2476 9.16135 35.9805 8.89506L28.7785 1.68817Z" fill="#57AEEA"/>
<path d="M7.51687 3.54793C7.2508 3.28054 6.93463 3.06829 6.58647 2.92333C6.23831 2.77836 5.86499 2.70354 5.48789 2.70313C5.11079 2.70272 4.73731 2.77674 4.38883 2.92094C4.04036 3.06515 3.72373 3.27672 3.45708 3.54353C3.19043 3.81034 2.97899 4.12715 2.83487 4.47584C2.69075 4.82452 2.61678 5.19822 2.61719 5.57555C2.6176 5.95287 2.69238 6.32641 2.83726 6.67478C2.98214 7.02315 3.19427 7.3395 3.46149 7.60573L29.3463 33.506C29.8841 34.0441 30.6135 34.3465 31.3741 34.3465C32.1347 34.3465 32.8642 34.0442 33.402 33.5061C33.9398 32.9679 34.242 32.2381 34.242 31.477C34.242 30.716 33.9399 29.9861 33.4021 29.448L7.51687 3.54793Z" fill="#7869D0"/>
<path d="M16.3837 0.854057C16.1175 0.587194 15.8013 0.375443 15.4533 0.230909C15.1052 0.0863752 14.7321 0.0118926 14.3553 0.0117191C13.9785 0.0115455 13.6053 0.0856845 13.2572 0.229898C12.909 0.374111 12.5926 0.585571 12.3262 0.852189C12.0598 1.11881 11.8484 1.43536 11.7043 1.78374C11.5602 2.13212 11.4861 2.50551 11.4863 2.88256C11.4865 3.2596 11.561 3.63291 11.7054 3.98115C11.8499 4.32938 12.0615 4.64572 12.3283 4.91206L32.2942 24.8897C32.5603 25.1569 32.8765 25.369 33.2246 25.5139C33.5728 25.6587 33.946 25.7334 34.3231 25.7338C34.7001 25.7341 35.0735 25.66 35.4219 25.5158C35.7703 25.3716 36.0868 25.1601 36.3534 24.8933C36.62 24.6265 36.8314 24.3098 36.9755 23.9612C37.1196 23.6126 37.1936 23.2389 37.1933 22.8617C37.1929 22.4844 37.1182 22.111 36.9734 21.7626C36.8287 21.4143 36.6167 21.0979 36.3496 20.8317L16.3837 0.854057Z" fill="#688BDD"/>
<path d="M4.89238 12.4915C4.35427 11.9548 3.6253 11.6537 2.86553 11.6543C2.10575 11.6549 1.37726 11.9572 0.840007 12.4947C0.302752 13.0323 0.000639796 13.7612 1.01502e-06 14.5214C-0.000637766 15.2816 0.300249 16.011 0.8366 16.5495L20.5237 36.248C21.0615 36.7861 21.791 37.0885 22.5516 37.0885C22.9282 37.0885 23.3011 37.0143 23.649 36.8701C23.997 36.7259 24.3131 36.5145 24.5794 36.2481C24.8457 35.9816 25.057 35.6653 25.2011 35.3171C25.3452 34.969 25.4194 34.5959 25.4194 34.219C25.4194 33.8422 25.3453 33.4691 25.2012 33.1209C25.057 32.7728 24.8458 32.4564 24.5795 32.19L4.89238 12.4915Z" fill="#8946C2"/>
<path d="M5.65743 24.8229C5.11963 24.2848 4.39019 23.9824 3.6296 23.9824C2.86901 23.9824 2.13957 24.2847 1.60173 24.8228C1.0639 25.361 0.761738 26.0908 0.761719 26.8519C0.761699 27.6129 1.06382 28.3428 1.60163 28.8809L8.80362 36.0876C9.0699 36.3541 9.38603 36.5655 9.73395 36.7097C10.0819 36.8539 10.4548 36.9281 10.8314 36.9282C11.208 36.9282 11.5809 36.854 11.9288 36.7098C12.2768 36.5656 12.5929 36.3543 12.8592 36.0878C13.1255 35.8214 13.3368 35.5051 13.4809 35.1569C13.625 34.8088 13.6992 34.4357 13.6992 34.0589C13.6993 33.682 13.6251 33.3089 13.481 32.9608C13.3369 32.6126 13.1257 32.2963 12.8594 32.0298L5.65743 24.8229Z" fill="#9923B5"/>
<path d="M58.5897 27.5856C58.2827 27.6084 57.9779 27.5186 57.7322 27.333C57.4865 27.1475 57.3167 26.8788 57.2543 26.5772L56.3221 23.2747H49.1162L48.184 26.5772C48.121 26.8761 47.9528 27.1425 47.71 27.3276C47.4671 27.5127 47.1658 27.6043 46.8611 27.5856H45.5257C45.3572 27.6021 45.1873 27.5774 45.0304 27.5137C44.8735 27.45 44.7344 27.3492 44.6249 27.22C44.533 27.0775 44.4765 26.915 44.4601 26.7462C44.4437 26.5774 44.4679 26.4071 44.5306 26.2495L47.9572 14.8416C48.419 13.2534 49.0069 12.1441 49.7209 11.5139C50.4346 10.8836 51.4382 10.5684 52.7316 10.5684C54.0333 10.5684 55.0433 10.8856 55.7616 11.5201C56.4795 12.1548 57.0611 13.262 57.5063 14.8416L60.9204 26.2495C60.983 26.4071 61.0071 26.5774 60.9906 26.7462C60.9742 26.915 60.9177 27.0774 60.8258 27.22C60.7164 27.3492 60.5772 27.4499 60.4204 27.5136C60.2635 27.5773 60.0935 27.602 59.925 27.5856L58.5897 27.5856ZM49.9728 20.2367H55.4779L54.0545 15.1569C53.9658 14.734 53.7852 14.3359 53.5254 13.9907C53.3088 13.7921 53.0256 13.6819 52.7318 13.6819C52.4379 13.6819 52.1548 13.7921 51.9381 13.9907C51.6764 14.3363 51.4917 14.7339 51.3963 15.1569L49.9728 20.2367Z" fill="white"/>
<path d="M65.1897 13.2417C64.9198 13.2615 64.6487 13.2259 64.3931 13.137C64.1374 13.0482 63.9026 12.908 63.7031 12.725C63.527 12.5278 63.3917 12.2976 63.3052 12.0476C63.2187 11.7977 63.1827 11.533 63.1992 11.269C63.1836 11.0027 63.2206 10.736 63.3081 10.484C63.3957 10.232 63.532 9.99977 63.7094 9.80059C63.9063 9.61502 64.1395 9.47219 64.3942 9.38109C64.649 9.28998 64.9198 9.25256 65.1897 9.27117C65.4621 9.25079 65.7357 9.28672 65.9937 9.37672C66.2516 9.46673 66.4883 9.60889 66.6889 9.79435C67.0461 10.2018 67.2273 10.7344 67.1928 11.2753C67.2101 11.5393 67.1744 11.8042 67.0878 12.0542C67.0013 12.3042 66.8656 12.5344 66.6889 12.7313C66.4863 12.913 66.249 13.052 65.9914 13.1397C65.7337 13.2274 65.461 13.2621 65.1897 13.2417ZM64.5473 27.5867C64.3876 27.604 64.226 27.5852 64.0745 27.5318C63.9229 27.4783 63.7853 27.3916 63.6717 27.2779C63.5581 27.1642 63.4714 27.0265 63.418 26.8749C63.3646 26.7233 63.3458 26.5616 63.3631 26.4018V16.0907C63.3533 15.9305 63.3755 15.7699 63.4285 15.6184C63.4815 15.4669 63.5642 15.3275 63.6717 15.2083C63.7883 15.0987 63.9262 15.0141 64.0768 14.9599C64.2274 14.9057 64.3876 14.8829 64.5473 14.8931H65.8323C65.992 14.8829 66.152 14.9057 66.3026 14.9599C66.4532 15.0141 66.591 15.0987 66.7076 15.2083C66.8152 15.3275 66.8979 15.4669 66.9509 15.6184C67.0039 15.7699 67.0262 15.9305 67.0164 16.0907V26.4018C67.0337 26.5616 67.0149 26.7233 66.9614 26.8748C66.908 27.0264 66.8213 27.1641 66.7077 27.2778C66.5941 27.3915 66.4565 27.4782 66.305 27.5317C66.1535 27.5851 65.992 27.6039 65.8323 27.5867H64.5473Z" fill="white"/>
<path d="M84.4783 14.666C86.3091 14.666 87.72 15.1282 88.7111 16.0526C89.702 16.9771 90.1975 18.473 90.1976 20.5401V26.4016C90.2149 26.5614 90.1961 26.7231 90.1427 26.8747C90.0893 27.0263 90.0026 27.164 89.889 27.2777C89.7754 27.3914 89.6378 27.4781 89.4863 27.5316C89.3347 27.585 89.1732 27.6038 89.0134 27.5865H87.8669C87.7072 27.6038 87.5456 27.585 87.3941 27.5316C87.2426 27.4781 87.1049 27.3914 86.9913 27.2777C86.8777 27.164 86.791 27.0263 86.7376 26.8747C86.6842 26.7231 86.6655 26.5614 86.6827 26.4016V20.3636C86.6827 19.4393 86.4791 18.7628 86.0718 18.3343C85.6642 17.9057 85.0364 17.6914 84.1884 17.6913C83.3485 17.6913 82.7501 17.9014 82.3933 18.3215C82.0361 18.7419 81.8576 19.4225 81.8579 20.3636V26.4016C81.868 26.5614 81.8453 26.7216 81.7911 26.8723C81.7369 27.023 81.6524 27.161 81.5429 27.2777C81.4238 27.3853 81.2845 27.468 81.133 27.521C80.9816 27.574 80.8212 27.5963 80.661 27.5865H79.5272C79.3675 27.6038 79.2059 27.585 79.0544 27.5316C78.9029 27.4781 78.7652 27.3914 78.6516 27.2777C78.538 27.164 78.4513 27.0263 78.3979 26.8747C78.3445 26.7231 78.3258 26.5614 78.343 26.4016V20.3636C78.343 19.4225 78.1646 18.7419 77.8077 18.3215C77.4505 17.9014 76.8521 17.6914 76.0124 17.6913C75.164 17.6913 74.5362 17.9056 74.1289 18.3343C73.7216 18.7628 73.5179 19.4393 73.518 20.3636V26.4016C73.5353 26.5614 73.5165 26.7231 73.4631 26.8747C73.4097 27.0263 73.323 27.164 73.2094 27.2777C73.0958 27.3914 72.9582 27.4781 72.8067 27.5316C72.6551 27.585 72.4936 27.6038 72.3338 27.5865H71.1875C71.0274 27.5963 70.8669 27.574 70.7155 27.521C70.5641 27.468 70.4248 27.3853 70.3057 27.2777C70.1961 27.161 70.1116 27.023 70.0574 26.8723C70.0032 26.7216 69.9805 26.5614 69.9906 26.4016V20.5401C69.9906 18.4728 70.4841 16.977 71.4709 16.0526C72.4576 15.1283 73.8664 14.6661 75.6975 14.666C77.8391 14.666 79.3046 15.2711 80.094 16.4812C80.8751 15.2711 82.3365 14.666 84.4783 14.666Z" fill="white"/>
<path d="M93.5101 27.2581C93.2052 27.2106 92.9299 27.0486 92.7403 26.805C92.5506 26.5614 92.461 26.2546 92.4896 25.9472V25.4555C92.4739 25.2906 92.4971 25.1243 92.5573 24.97C92.6174 24.8156 92.7129 24.6776 92.8361 24.5669C92.9759 24.4727 93.1344 24.4098 93.3007 24.3827C93.467 24.3555 93.6373 24.3646 93.7998 24.4094C94.6244 24.5629 95.4572 24.6681 96.2941 24.7244C97.0393 24.7758 97.7876 24.7611 98.5303 24.6804C99.1261 24.6376 99.7008 24.4423 100.199 24.1131C100.395 23.9802 100.554 23.8003 100.662 23.59C100.769 23.3796 100.823 23.1456 100.817 22.9092C100.815 22.7023 100.771 22.498 100.686 22.3092C100.602 22.1205 100.479 21.9514 100.325 21.8127C99.7969 21.3751 99.1957 21.0338 98.5492 20.8043L96.9367 20.1109C95.3661 19.4302 94.2491 18.7054 93.5857 17.9365C92.9213 17.1654 92.5666 16.175 92.5904 15.1571C92.579 14.5163 92.7036 13.8804 92.9558 13.2913C93.1868 12.7616 93.541 12.2949 93.9888 11.93C94.4618 11.5531 94.9939 11.2571 95.5634 11.0541C96.2134 10.8215 96.8911 10.6753 97.5791 10.619C98.3588 10.552 99.1429 10.5541 99.9223 10.6255C100.779 10.7023 101.629 10.8392 102.467 11.0351C102.775 11.0822 103.054 11.2454 103.246 11.4915C103.438 11.7375 103.529 12.0477 103.5 12.3586V12.888C103.514 13.0527 103.49 13.2185 103.43 13.3726C103.37 13.5267 103.275 13.6649 103.154 13.7768C103.016 13.8754 102.858 13.9428 102.692 13.9743C102.525 14.0059 102.354 14.0008 102.19 13.9595C98.209 13.2958 96.2185 13.674 96.2185 15.094C96.2206 15.2944 96.2636 15.4922 96.3448 15.6754C96.4261 15.8585 96.5439 16.0231 96.691 16.1591C97.1788 16.5773 97.7408 16.9001 98.3477 17.1108L99.8342 17.7411C101.489 18.4387 102.673 19.1782 103.387 19.9596C104.111 20.7678 104.494 21.8246 104.458 22.9092C104.479 23.7543 104.262 24.5884 103.834 25.3169C103.428 25.9884 102.844 26.5339 102.146 26.8925C101.368 27.2841 100.532 27.548 99.6703 27.6742C98.689 27.8269 97.6932 27.8628 96.7035 27.7813C95.6265 27.6949 94.5584 27.5199 93.5101 27.2581Z" fill="white"/>
<path d="M115.077 16.6573C115.095 16.8171 115.076 16.9788 115.023 17.1304C114.969 17.282 114.882 17.4197 114.769 17.5334C114.655 17.6471 114.518 17.7338 114.366 17.7872C114.215 17.8407 114.053 17.8594 113.893 17.8422H110.378V22.897C110.378 23.5609 110.536 24.0399 110.851 24.334C111.166 24.6282 111.676 24.7753 112.381 24.775C112.677 24.7718 112.971 24.7487 113.263 24.7059C113.493 24.6696 113.724 24.6464 113.956 24.6365C114.257 24.6092 114.559 24.6896 114.807 24.8634C114.898 24.9551 114.969 25.0659 115.014 25.1878C115.058 25.3097 115.076 25.4399 115.065 25.5693V26.212C115.065 26.9264 114.746 27.3508 114.107 27.4853C113.342 27.6775 112.559 27.7916 111.771 27.8257C111.087 27.8558 110.402 27.7793 109.742 27.5988C109.152 27.4412 108.605 27.1525 108.142 26.7542C107.675 26.3293 107.319 25.7972 107.103 25.2036C106.835 24.4648 106.707 23.6826 106.725 22.897V13.1403C106.715 12.9805 106.738 12.8203 106.792 12.6697C106.846 12.519 106.93 12.3811 107.04 12.2644C107.159 12.1568 107.298 12.0741 107.45 12.021C107.601 11.9679 107.762 11.9456 107.922 11.9554H109.194C109.354 11.9382 109.515 11.957 109.667 12.0104C109.818 12.0639 109.956 12.1506 110.07 12.2643C110.183 12.378 110.27 12.5157 110.323 12.6673C110.377 12.8188 110.396 12.9805 110.378 13.1403V14.8925H113.893C114.053 14.8824 114.213 14.9052 114.364 14.9594C114.514 15.0136 114.652 15.0981 114.769 15.2078C114.876 15.327 114.959 15.4664 115.012 15.6179C115.065 15.7694 115.087 15.9299 115.077 16.0902L115.077 16.6573Z" fill="white"/>
<path d="M122.485 14.6666C123.303 14.6577 124.118 14.7552 124.911 14.9566C125.596 15.1312 126.245 15.4279 126.825 15.8325C127.381 16.23 127.822 16.767 128.104 17.3893C128.418 18.0905 128.573 18.8524 128.558 19.6205V23.8811C128.558 25.209 128.243 26.1586 127.613 26.7299C126.983 27.3015 125.967 27.5872 124.564 27.587H121.629C119.941 27.587 118.675 27.3013 117.83 26.7299C116.987 26.1585 116.565 25.1543 116.564 23.7171C116.546 23.0701 116.662 22.4262 116.905 21.8263C117.117 21.3304 117.475 20.9106 117.931 20.6225C118.414 20.323 118.948 20.1157 119.506 20.0112C120.206 19.8842 120.917 19.8251 121.629 19.8347H124.967V19.6205C124.967 18.2592 123.968 17.5785 121.969 17.5785C120.85 17.6023 119.736 17.7374 118.643 17.9819C118.481 18.0267 118.31 18.0358 118.144 18.0086C117.978 17.9814 117.819 17.9184 117.679 17.8241C117.556 17.7134 117.461 17.5753 117.401 17.421C117.34 17.2667 117.317 17.1004 117.333 16.9355V16.4565C117.333 15.7254 117.749 15.28 118.58 15.1204C119.863 14.8343 121.171 14.6822 122.485 14.6666ZM123.682 25.0156C124.203 25.0156 124.547 24.9147 124.715 24.7131C124.91 24.4149 124.999 24.0596 124.967 23.7046V22.3937H121.818C121.062 22.3937 120.558 22.4882 120.306 22.6773C120.054 22.8664 119.928 23.2131 119.928 23.7171C119.907 23.9036 119.929 24.0924 119.994 24.2686C120.058 24.4448 120.163 24.6035 120.3 24.732C120.547 24.921 121.049 25.0155 121.805 25.0156H123.682Z" fill="white"/>
<path d="M138.005 17.6284C136.804 17.6284 135.937 17.9141 135.404 18.4855C134.87 19.0571 134.604 19.9794 134.604 21.2524C134.604 22.5255 134.87 23.4414 135.404 24.0004C135.937 24.5592 136.804 24.8386 138.005 24.8386C138.723 24.8335 139.44 24.766 140.147 24.6369C140.31 24.5961 140.48 24.5895 140.646 24.6177C140.812 24.6459 140.97 24.7082 141.11 24.8006C141.234 24.9098 141.329 25.0467 141.39 25.2001C141.45 25.3535 141.473 25.519 141.457 25.683V26.1243C141.488 26.4317 141.401 26.7394 141.214 26.9852C141.027 27.2309 140.753 27.3963 140.449 27.4477C139.46 27.6956 138.445 27.8184 137.425 27.8134C135.46 27.8134 133.892 27.2567 132.72 26.1432C131.549 25.0297 130.963 23.3973 130.963 21.2459C130.963 19.0948 131.549 17.4604 132.72 16.3426C133.892 15.2249 135.46 14.666 137.425 14.666C138.445 14.6695 139.46 14.7965 140.449 15.0442C140.753 15.0916 141.027 15.2541 141.215 15.4981C141.402 15.7421 141.489 16.049 141.457 16.3551V16.7964C141.472 16.9631 141.442 17.1309 141.372 17.2826C141.301 17.4343 141.191 17.5644 141.054 17.6598C140.706 17.8442 140.303 17.8957 139.92 17.8048C139.287 17.6988 138.647 17.6399 138.005 17.6284Z" fill="white"/>
<path d="M155.806 26.3122C156.083 26.6651 156.125 26.9655 155.932 27.2135C155.739 27.4616 155.369 27.5855 154.823 27.5854H153.689C152.916 27.5854 152.362 27.3753 152.026 26.9551L147.227 21.3836V26.4005C147.244 26.5603 147.225 26.722 147.172 26.8736C147.118 27.0252 147.032 27.1628 146.918 27.2765C146.804 27.3902 146.667 27.4769 146.515 27.5304C146.364 27.5838 146.202 27.6026 146.043 27.5854H144.833C144.673 27.5952 144.513 27.5729 144.361 27.5199C144.21 27.4669 144.07 27.3842 143.951 27.2766C143.842 27.1599 143.757 27.0219 143.703 26.8712C143.649 26.7205 143.626 26.5603 143.636 26.4005V10.7069C143.62 10.5456 143.64 10.3829 143.695 10.2303C143.749 10.0777 143.837 9.9391 143.951 9.82452C144.066 9.70995 144.204 9.62223 144.357 9.56772C144.509 9.5132 144.672 9.49324 144.833 9.50928H146.043C146.202 9.49918 146.362 9.52194 146.513 9.57616C146.663 9.63038 146.801 9.71491 146.918 9.82452C147.025 9.94367 147.108 10.0831 147.161 10.2346C147.214 10.3861 147.236 10.5467 147.227 10.7069V20.2616L152.014 15.4717C152.341 15.0852 152.891 14.892 153.664 14.8918H154.697C155.252 14.8918 155.625 15.0221 155.818 15.2827C156.011 15.5431 155.953 15.8372 155.642 16.1651L150.905 20.7911L155.806 26.3122Z" fill="white"/>
</svg>
