<svg width="44" height="44" viewBox="0 0 44 44" fill="none" xmlns="http://www.w3.org/2000/svg">
<rect width="44" height="44" rx="8" fill="#1093F2" fill-opacity="0.1"/>
<path d="M22 31C20.8181 31 19.6478 30.7672 18.5558 30.3149C17.4639 29.8626 16.4718 29.1997 15.636 28.364C14.8003 27.5282 14.1374 26.5361 13.6851 25.4442C13.2328 24.3522 13 23.1819 13 22C13 20.8181 13.2328 19.6478 13.6851 18.5558C14.1374 17.4639 14.8003 16.4718 15.636 15.636C16.4718 14.8003 17.4639 14.1374 18.5558 13.6851C19.6478 13.2328 20.8181 13 22 13C24.3869 13 26.6761 13.9482 28.364 15.636C30.0518 17.3239 31 19.6131 31 22C31 24.3869 30.0518 26.6761 28.364 28.364C26.6761 30.0518 24.3869 31 22 31Z" stroke="#1093F2" stroke-width="2" stroke-linecap="round" stroke-linejoin="round"/>
<path d="M20 20C19.5 19 17.5 19 17 20" stroke="#1093F2" stroke-width="2" stroke-linecap="round" stroke-linejoin="round"/>
<path d="M27 20C26.5 19 24.5 19 24 20" stroke="#1093F2" stroke-width="2" stroke-linecap="round" stroke-linejoin="round"/>
<path d="M24.5 25C24.1741 25.3326 23.7852 25.5968 23.3559 25.7772C22.9266 25.9576 22.4656 26.0505 22 26.0505C21.5344 26.0505 21.0734 25.9576 20.6441 25.7772C20.2148 25.5968 19.8259 25.3326 19.5 25" stroke="#1093F2" stroke-width="2" stroke-linecap="round" stroke-linejoin="round"/>
</svg>
